<mxfile host="app.diagrams.net" agent="Mozilla/5.0 (Windows NT 10.0; Win64; x64) AppleWebKit/537.36 (KHTML, like Gecko) Chrome/131.0.0.0 Safari/537.36" version="25.0.3">
  <diagram id="C5RBs43oDa-KdzZeNtuy" name="Page-1">
    <mxGraphModel dx="794" dy="539" grid="1" gridSize="10" guides="1" tooltips="1" connect="1" arrows="1" fold="1" page="1" pageScale="1" pageWidth="827" pageHeight="1169" math="0" shadow="0">
      <root>
        <mxCell id="WIyWlLk6GJQsqaUBKTNV-0" />
        <mxCell id="WIyWlLk6GJQsqaUBKTNV-1" parent="WIyWlLk6GJQsqaUBKTNV-0" />
        <mxCell id="a-LNourcdsWGeh-w3yn2-2" value="" style="shape=table;startSize=0;container=1;collapsible=0;childLayout=tableLayout;fontSize=16;" parent="WIyWlLk6GJQsqaUBKTNV-1" vertex="1">
          <mxGeometry x="80" y="590" width="360" height="140" as="geometry" />
        </mxCell>
        <mxCell id="a-LNourcdsWGeh-w3yn2-3" value="" style="shape=tableRow;horizontal=0;startSize=0;swimlaneHead=0;swimlaneBody=0;strokeColor=inherit;top=0;left=0;bottom=0;right=0;collapsible=0;dropTarget=0;fillColor=none;points=[[0,0.5],[1,0.5]];portConstraint=eastwest;fontSize=16;" parent="a-LNourcdsWGeh-w3yn2-2" vertex="1">
          <mxGeometry width="360" height="47" as="geometry" />
        </mxCell>
        <mxCell id="a-LNourcdsWGeh-w3yn2-4" value="featureid" style="shape=partialRectangle;html=1;whiteSpace=wrap;connectable=0;strokeColor=inherit;overflow=hidden;fillColor=none;top=0;left=0;bottom=0;right=0;pointerEvents=1;fontSize=16;" parent="a-LNourcdsWGeh-w3yn2-3" vertex="1">
          <mxGeometry width="120" height="47" as="geometry">
            <mxRectangle width="120" height="47" as="alternateBounds" />
          </mxGeometry>
        </mxCell>
        <mxCell id="a-LNourcdsWGeh-w3yn2-5" value="display name" style="shape=partialRectangle;html=1;whiteSpace=wrap;connectable=0;strokeColor=inherit;overflow=hidden;fillColor=none;top=0;left=0;bottom=0;right=0;pointerEvents=1;fontSize=16;" parent="a-LNourcdsWGeh-w3yn2-3" vertex="1">
          <mxGeometry x="120" width="120" height="47" as="geometry">
            <mxRectangle width="120" height="47" as="alternateBounds" />
          </mxGeometry>
        </mxCell>
        <mxCell id="a-LNourcdsWGeh-w3yn2-6" value="menu id" style="shape=partialRectangle;html=1;whiteSpace=wrap;connectable=0;strokeColor=inherit;overflow=hidden;fillColor=none;top=0;left=0;bottom=0;right=0;pointerEvents=1;fontSize=16;" parent="a-LNourcdsWGeh-w3yn2-3" vertex="1">
          <mxGeometry x="240" width="120" height="47" as="geometry">
            <mxRectangle width="120" height="47" as="alternateBounds" />
          </mxGeometry>
        </mxCell>
        <mxCell id="a-LNourcdsWGeh-w3yn2-7" value="" style="shape=tableRow;horizontal=0;startSize=0;swimlaneHead=0;swimlaneBody=0;strokeColor=inherit;top=0;left=0;bottom=0;right=0;collapsible=0;dropTarget=0;fillColor=none;points=[[0,0.5],[1,0.5]];portConstraint=eastwest;fontSize=16;" parent="a-LNourcdsWGeh-w3yn2-2" vertex="1">
          <mxGeometry y="47" width="360" height="46" as="geometry" />
        </mxCell>
        <mxCell id="a-LNourcdsWGeh-w3yn2-8" value="managed-cust-edit" style="shape=partialRectangle;html=1;whiteSpace=wrap;connectable=0;strokeColor=inherit;overflow=hidden;fillColor=none;top=0;left=0;bottom=0;right=0;pointerEvents=1;fontSize=16;" parent="a-LNourcdsWGeh-w3yn2-7" vertex="1">
          <mxGeometry width="120" height="46" as="geometry">
            <mxRectangle width="120" height="46" as="alternateBounds" />
          </mxGeometry>
        </mxCell>
        <mxCell id="a-LNourcdsWGeh-w3yn2-9" value="Modify Customer" style="shape=partialRectangle;html=1;whiteSpace=wrap;connectable=0;strokeColor=inherit;overflow=hidden;fillColor=none;top=0;left=0;bottom=0;right=0;pointerEvents=1;fontSize=16;" parent="a-LNourcdsWGeh-w3yn2-7" vertex="1">
          <mxGeometry x="120" width="120" height="46" as="geometry">
            <mxRectangle width="120" height="46" as="alternateBounds" />
          </mxGeometry>
        </mxCell>
        <mxCell id="a-LNourcdsWGeh-w3yn2-10" value="manage-cust" style="shape=partialRectangle;html=1;whiteSpace=wrap;connectable=0;strokeColor=inherit;overflow=hidden;fillColor=none;top=0;left=0;bottom=0;right=0;pointerEvents=1;fontSize=16;" parent="a-LNourcdsWGeh-w3yn2-7" vertex="1">
          <mxGeometry x="240" width="120" height="46" as="geometry">
            <mxRectangle width="120" height="46" as="alternateBounds" />
          </mxGeometry>
        </mxCell>
        <mxCell id="a-LNourcdsWGeh-w3yn2-11" value="" style="shape=tableRow;horizontal=0;startSize=0;swimlaneHead=0;swimlaneBody=0;strokeColor=inherit;top=0;left=0;bottom=0;right=0;collapsible=0;dropTarget=0;fillColor=none;points=[[0,0.5],[1,0.5]];portConstraint=eastwest;fontSize=16;" parent="a-LNourcdsWGeh-w3yn2-2" vertex="1">
          <mxGeometry y="93" width="360" height="47" as="geometry" />
        </mxCell>
        <mxCell id="a-LNourcdsWGeh-w3yn2-12" value="managed-cust-activate" style="shape=partialRectangle;html=1;whiteSpace=wrap;connectable=0;strokeColor=inherit;overflow=hidden;fillColor=none;top=0;left=0;bottom=0;right=0;pointerEvents=1;fontSize=16;" parent="a-LNourcdsWGeh-w3yn2-11" vertex="1">
          <mxGeometry width="120" height="47" as="geometry">
            <mxRectangle width="120" height="47" as="alternateBounds" />
          </mxGeometry>
        </mxCell>
        <mxCell id="a-LNourcdsWGeh-w3yn2-13" value="Activate Customer" style="shape=partialRectangle;html=1;whiteSpace=wrap;connectable=0;strokeColor=inherit;overflow=hidden;fillColor=none;top=0;left=0;bottom=0;right=0;pointerEvents=1;fontSize=16;" parent="a-LNourcdsWGeh-w3yn2-11" vertex="1">
          <mxGeometry x="120" width="120" height="47" as="geometry">
            <mxRectangle width="120" height="47" as="alternateBounds" />
          </mxGeometry>
        </mxCell>
        <mxCell id="a-LNourcdsWGeh-w3yn2-14" value="manage-cust" style="shape=partialRectangle;html=1;whiteSpace=wrap;connectable=0;strokeColor=inherit;overflow=hidden;fillColor=none;top=0;left=0;bottom=0;right=0;pointerEvents=1;fontSize=16;" parent="a-LNourcdsWGeh-w3yn2-11" vertex="1">
          <mxGeometry x="240" width="120" height="47" as="geometry">
            <mxRectangle width="120" height="47" as="alternateBounds" />
          </mxGeometry>
        </mxCell>
        <mxCell id="WIyWlLk6GJQsqaUBKTNV-2" value="" style="rounded=0;html=1;jettySize=auto;orthogonalLoop=1;fontSize=11;endArrow=block;endFill=0;endSize=8;strokeWidth=1;shadow=0;labelBackgroundColor=none;edgeStyle=orthogonalEdgeStyle;" parent="WIyWlLk6GJQsqaUBKTNV-1" source="WIyWlLk6GJQsqaUBKTNV-3" target="WIyWlLk6GJQsqaUBKTNV-6" edge="1">
          <mxGeometry relative="1" as="geometry" />
        </mxCell>
        <mxCell id="WIyWlLk6GJQsqaUBKTNV-3" value="user login" style="rounded=1;whiteSpace=wrap;html=1;fontSize=12;glass=0;strokeWidth=1;shadow=0;" parent="WIyWlLk6GJQsqaUBKTNV-1" vertex="1">
          <mxGeometry x="60" y="60" width="120" height="40" as="geometry" />
        </mxCell>
        <mxCell id="WIyWlLk6GJQsqaUBKTNV-4" value="Yes" style="rounded=0;html=1;jettySize=auto;orthogonalLoop=1;fontSize=11;endArrow=block;endFill=0;endSize=8;strokeWidth=1;shadow=0;labelBackgroundColor=none;edgeStyle=orthogonalEdgeStyle;" parent="WIyWlLk6GJQsqaUBKTNV-1" source="WIyWlLk6GJQsqaUBKTNV-6" target="2PG8up5FBm-87iPVKYQF-1" edge="1">
          <mxGeometry y="20" relative="1" as="geometry">
            <mxPoint as="offset" />
            <mxPoint x="120" y="270" as="targetPoint" />
          </mxGeometry>
        </mxCell>
        <mxCell id="WIyWlLk6GJQsqaUBKTNV-5" value="No" style="edgeStyle=orthogonalEdgeStyle;rounded=0;html=1;jettySize=auto;orthogonalLoop=1;fontSize=11;endArrow=block;endFill=0;endSize=8;strokeWidth=1;shadow=0;labelBackgroundColor=none;" parent="WIyWlLk6GJQsqaUBKTNV-1" source="WIyWlLk6GJQsqaUBKTNV-6" target="WIyWlLk6GJQsqaUBKTNV-7" edge="1">
          <mxGeometry y="10" relative="1" as="geometry">
            <mxPoint as="offset" />
          </mxGeometry>
        </mxCell>
        <mxCell id="WIyWlLk6GJQsqaUBKTNV-6" value="auth" style="rhombus;whiteSpace=wrap;html=1;shadow=0;fontFamily=Helvetica;fontSize=12;align=center;strokeWidth=1;spacing=6;spacingTop=-4;" parent="WIyWlLk6GJQsqaUBKTNV-1" vertex="1">
          <mxGeometry x="70" y="150" width="100" height="80" as="geometry" />
        </mxCell>
        <mxCell id="WIyWlLk6GJQsqaUBKTNV-7" value="login page" style="rounded=1;whiteSpace=wrap;html=1;fontSize=12;glass=0;strokeWidth=1;shadow=0;" parent="WIyWlLk6GJQsqaUBKTNV-1" vertex="1">
          <mxGeometry x="220" y="170" width="120" height="40" as="geometry" />
        </mxCell>
        <mxCell id="WIyWlLk6GJQsqaUBKTNV-9" value="call to server" style="edgeStyle=orthogonalEdgeStyle;rounded=0;html=1;jettySize=auto;orthogonalLoop=1;fontSize=11;endArrow=block;endFill=0;endSize=8;strokeWidth=1;shadow=0;labelBackgroundColor=none;exitX=1;exitY=0.5;exitDx=0;exitDy=0;" parent="WIyWlLk6GJQsqaUBKTNV-1" source="2PG8up5FBm-87iPVKYQF-1" target="WIyWlLk6GJQsqaUBKTNV-12" edge="1">
          <mxGeometry y="10" relative="1" as="geometry">
            <mxPoint as="offset" />
            <mxPoint x="170" y="310" as="sourcePoint" />
          </mxGeometry>
        </mxCell>
        <mxCell id="WIyWlLk6GJQsqaUBKTNV-12" value="gell all prilvileges of current user" style="rounded=1;whiteSpace=wrap;html=1;fontSize=12;glass=0;strokeWidth=1;shadow=0;" parent="WIyWlLk6GJQsqaUBKTNV-1" vertex="1">
          <mxGeometry x="480" y="100" width="120" height="40" as="geometry" />
        </mxCell>
        <mxCell id="2PG8up5FBm-87iPVKYQF-1" value="load privileges" style="rounded=1;whiteSpace=wrap;html=1;" parent="WIyWlLk6GJQsqaUBKTNV-1" vertex="1">
          <mxGeometry x="60" y="310" width="120" height="30" as="geometry" />
        </mxCell>
        <mxCell id="2PG8up5FBm-87iPVKYQF-7" value="return prilvileges and menu items to client" style="rounded=1;whiteSpace=wrap;html=1;" parent="WIyWlLk6GJQsqaUBKTNV-1" vertex="1">
          <mxGeometry x="520" y="400" width="120" height="60" as="geometry" />
        </mxCell>
        <mxCell id="2PG8up5FBm-87iPVKYQF-8" value="" style="endArrow=classic;html=1;rounded=0;exitX=0.825;exitY=0.975;exitDx=0;exitDy=0;entryX=0.5;entryY=0;entryDx=0;entryDy=0;exitPerimeter=0;" parent="WIyWlLk6GJQsqaUBKTNV-1" source="WIyWlLk6GJQsqaUBKTNV-12" target="2PG8up5FBm-87iPVKYQF-7" edge="1">
          <mxGeometry width="50" height="50" relative="1" as="geometry">
            <mxPoint x="620" y="400" as="sourcePoint" />
            <mxPoint x="450" y="310" as="targetPoint" />
          </mxGeometry>
        </mxCell>
        <mxCell id="2PG8up5FBm-87iPVKYQF-9" value="display menu item has title in privileges" style="rounded=1;whiteSpace=wrap;html=1;" parent="WIyWlLk6GJQsqaUBKTNV-1" vertex="1">
          <mxGeometry x="150" y="400" width="130" height="60" as="geometry" />
        </mxCell>
        <mxCell id="2PG8up5FBm-87iPVKYQF-10" value="" style="endArrow=classic;html=1;rounded=0;exitX=0;exitY=0.5;exitDx=0;exitDy=0;entryX=1;entryY=0.5;entryDx=0;entryDy=0;" parent="WIyWlLk6GJQsqaUBKTNV-1" source="2PG8up5FBm-87iPVKYQF-7" target="2PG8up5FBm-87iPVKYQF-9" edge="1">
          <mxGeometry width="50" height="50" relative="1" as="geometry">
            <mxPoint x="400" y="360" as="sourcePoint" />
            <mxPoint x="450" y="310" as="targetPoint" />
          </mxGeometry>
        </mxCell>
        <mxCell id="a-LNourcdsWGeh-w3yn2-17" value="Table" style="shape=table;startSize=30;container=1;collapsible=0;childLayout=tableLayout;strokeColor=default;fontSize=16;" parent="WIyWlLk6GJQsqaUBKTNV-1" vertex="1">
          <mxGeometry x="80" y="770" width="410" height="330" as="geometry" />
        </mxCell>
        <mxCell id="a-LNourcdsWGeh-w3yn2-18" value="" style="shape=tableRow;horizontal=0;startSize=0;swimlaneHead=0;swimlaneBody=0;strokeColor=inherit;top=0;left=0;bottom=0;right=0;collapsible=0;dropTarget=0;fillColor=none;points=[[0,0.5],[1,0.5]];portConstraint=eastwest;fontSize=16;" parent="a-LNourcdsWGeh-w3yn2-17" vertex="1">
          <mxGeometry y="30" width="410" height="100" as="geometry" />
        </mxCell>
        <mxCell id="a-LNourcdsWGeh-w3yn2-19" value="featureid" style="shape=partialRectangle;html=1;whiteSpace=wrap;connectable=0;strokeColor=inherit;overflow=hidden;fillColor=none;top=0;left=0;bottom=0;right=0;pointerEvents=1;fontSize=16;" parent="a-LNourcdsWGeh-w3yn2-18" vertex="1">
          <mxGeometry width="110" height="100" as="geometry">
            <mxRectangle width="110" height="100" as="alternateBounds" />
          </mxGeometry>
        </mxCell>
        <mxCell id="a-LNourcdsWGeh-w3yn2-20" value="display name" style="shape=partialRectangle;html=1;whiteSpace=wrap;connectable=0;strokeColor=inherit;overflow=hidden;fillColor=none;top=0;left=0;bottom=0;right=0;pointerEvents=1;fontSize=16;" parent="a-LNourcdsWGeh-w3yn2-18" vertex="1">
          <mxGeometry x="110" width="130" height="100" as="geometry">
            <mxRectangle width="130" height="100" as="alternateBounds" />
          </mxGeometry>
        </mxCell>
        <mxCell id="a-LNourcdsWGeh-w3yn2-21" value="menu id" style="shape=partialRectangle;html=1;whiteSpace=wrap;connectable=0;strokeColor=inherit;overflow=hidden;fillColor=none;top=0;left=0;bottom=0;right=0;pointerEvents=1;fontSize=16;" parent="a-LNourcdsWGeh-w3yn2-18" vertex="1">
          <mxGeometry x="240" width="170" height="100" as="geometry">
            <mxRectangle width="170" height="100" as="alternateBounds" />
          </mxGeometry>
        </mxCell>
        <mxCell id="a-LNourcdsWGeh-w3yn2-22" value="" style="shape=tableRow;horizontal=0;startSize=0;swimlaneHead=0;swimlaneBody=0;strokeColor=inherit;top=0;left=0;bottom=0;right=0;collapsible=0;dropTarget=0;fillColor=none;points=[[0,0.5],[1,0.5]];portConstraint=eastwest;fontSize=16;" parent="a-LNourcdsWGeh-w3yn2-17" vertex="1">
          <mxGeometry y="130" width="410" height="100" as="geometry" />
        </mxCell>
        <mxCell id="a-LNourcdsWGeh-w3yn2-23" value="common-menu" style="shape=partialRectangle;html=1;whiteSpace=wrap;connectable=0;strokeColor=inherit;overflow=hidden;fillColor=none;top=0;left=0;bottom=0;right=0;pointerEvents=1;fontSize=16;" parent="a-LNourcdsWGeh-w3yn2-22" vertex="1">
          <mxGeometry width="110" height="100" as="geometry">
            <mxRectangle width="110" height="100" as="alternateBounds" />
          </mxGeometry>
        </mxCell>
        <mxCell id="a-LNourcdsWGeh-w3yn2-24" value="Access to common menu item" style="shape=partialRectangle;html=1;whiteSpace=wrap;connectable=0;strokeColor=inherit;overflow=hidden;fillColor=none;top=0;left=0;bottom=0;right=0;pointerEvents=1;fontSize=16;" parent="a-LNourcdsWGeh-w3yn2-22" vertex="1">
          <mxGeometry x="110" width="130" height="100" as="geometry">
            <mxRectangle width="130" height="100" as="alternateBounds" />
          </mxGeometry>
        </mxCell>
        <mxCell id="a-LNourcdsWGeh-w3yn2-25" value="home, catalogue,&amp;nbsp;dashboard" style="shape=partialRectangle;html=1;whiteSpace=wrap;connectable=0;strokeColor=inherit;overflow=hidden;fillColor=none;top=0;left=0;bottom=0;right=0;pointerEvents=1;fontSize=16;" parent="a-LNourcdsWGeh-w3yn2-22" vertex="1">
          <mxGeometry x="240" width="170" height="100" as="geometry">
            <mxRectangle width="170" height="100" as="alternateBounds" />
          </mxGeometry>
        </mxCell>
        <mxCell id="a-LNourcdsWGeh-w3yn2-26" value="" style="shape=tableRow;horizontal=0;startSize=0;swimlaneHead=0;swimlaneBody=0;strokeColor=inherit;top=0;left=0;bottom=0;right=0;collapsible=0;dropTarget=0;fillColor=none;points=[[0,0.5],[1,0.5]];portConstraint=eastwest;fontSize=16;" parent="a-LNourcdsWGeh-w3yn2-17" vertex="1">
          <mxGeometry y="230" width="410" height="100" as="geometry" />
        </mxCell>
        <mxCell id="a-LNourcdsWGeh-w3yn2-27" value="monitoring-job-status" style="shape=partialRectangle;html=1;whiteSpace=wrap;connectable=0;strokeColor=inherit;overflow=hidden;fillColor=none;top=0;left=0;bottom=0;right=0;pointerEvents=1;fontSize=16;" parent="a-LNourcdsWGeh-w3yn2-26" vertex="1">
          <mxGeometry width="110" height="100" as="geometry">
            <mxRectangle width="110" height="100" as="alternateBounds" />
          </mxGeometry>
        </mxCell>
        <mxCell id="a-LNourcdsWGeh-w3yn2-28" value="Patching, Backup and Replication Status" style="shape=partialRectangle;html=1;whiteSpace=wrap;connectable=0;strokeColor=inherit;overflow=hidden;fillColor=none;top=0;left=0;bottom=0;right=0;pointerEvents=1;fontSize=16;" parent="a-LNourcdsWGeh-w3yn2-26" vertex="1">
          <mxGeometry x="110" width="130" height="100" as="geometry">
            <mxRectangle width="130" height="100" as="alternateBounds" />
          </mxGeometry>
        </mxCell>
        <mxCell id="a-LNourcdsWGeh-w3yn2-29" value="patch" style="shape=partialRectangle;html=1;whiteSpace=wrap;connectable=0;strokeColor=inherit;overflow=hidden;fillColor=none;top=0;left=0;bottom=0;right=0;pointerEvents=1;fontSize=16;" parent="a-LNourcdsWGeh-w3yn2-26" vertex="1">
          <mxGeometry x="240" width="170" height="100" as="geometry">
            <mxRectangle width="170" height="100" as="alternateBounds" />
          </mxGeometry>
        </mxCell>
        <mxCell id="a-LNourcdsWGeh-w3yn2-32" value="&lt;span style=&quot;font-weight: normal;&quot;&gt;&lt;font style=&quot;font-size: 16px;&quot;&gt;scope: everyone&lt;/font&gt;&lt;/span&gt;" style="text;strokeColor=none;fillColor=none;html=1;fontSize=24;fontStyle=1;verticalAlign=middle;align=center;" parent="WIyWlLk6GJQsqaUBKTNV-1" vertex="1">
          <mxGeometry x="364" y="960" width="76" height="40" as="geometry" />
        </mxCell>
        <mxCell id="a-LNourcdsWGeh-w3yn2-36" value="" style="shape=image;verticalLabelPosition=bottom;labelBackgroundColor=default;verticalAlign=top;aspect=fixed;imageAspect=0;image=data:image/png,iVBORw0KGgoAAAANSUhEUgAABLwAAAGiCAIAAABiWUghAAAgAElEQVR4AezdhV8T7wMH8N+/cnSPklJRwQTFbgG7GxsJW6kxERT7i4qKnYRSSnfXGOtd/hG/160HiAiIxGcvX3LbLp7n/dx2+1w89z8/PCAAAQhAAAIQgAAEIAABCEAAAr8Q+J9AIPDz8wv61w//gFne3jMEeEAAAhCAAARGK+DuHzDL09NrtLPB9BCAAAQgAAEICASenp4IjVgRIAABCEBgigkgNE6xBkV1IAABCEDgXwogNP5LfSwbAhCAAAT+jgBC499xxVwhAAEIQGBaCiA0TstmR6UhAAEITHEBhMYp3sCoHgQgAAEIjKcAQuN4amNZEIAABCAwPgIIjePjjKVAAAIQgMC0EEBonBbNjEpCAAIQmGYCCI3TrMFRXQhAAAIQ+JsCCI1/UxfzhgAEIACBfyOA0Phv3LFUCEAAAhCYkgIIjVOyWVEpCEAAAtNcAKFxmq8AqD4EIAABCIylAELjWGpiXhCAAAQgMDEEEBonRjugFBCAAAQgMCUEEBqnRDOiEhCAAAQgYCGA0GjBgScQgAAEIACB0QggNI5GD9NCAAIQgMDEFEBonJjtglJBAAIQgMCkFEBonJTNhkJDAAIQgMCQAgiNQ/LgTQhAAAIQgMCfCCA0/okWxoUABCAAgckhgNA4OdoJpYQABCAAgUkhgNA4KZoJhYQABCAAgT8SQGj8Iy6MDAEIQAACEBhKAKFxKB28BwEIQAACk1MAoXFythtKDQEIQAACE1Lgz0Lj6tWr79+/39bWRg/5UKvV1dXVb968OXXqVNCwH/4Bs7y9Z0xIJRQKAhCAAAQmlwBC4+RqL5QWAhCAAAQmtMBwQ+OGDRvu3bsnkUiampqKi4vzhnzk5+f/+PGjqalJLpcLhcI1a9YMJzkiNE7oNQWFgwAEIDCZBBAaJ1NroawQgAAEIDDBBYYbGgsKCvr6+tLS0iIjI0NCQoYOgcHBwWFhYZGRkffu3ROLxbm5uUOPr3sXoXGCrysoHgQgAIHJI4DQOHnaCiWFAAQgAIEJLzCs0Jidna1Sqa5evTp//vzhxD/jOPPnz7927Zparb5165bxxV8NIDRO+LUFBYQABCAwWQQQGidLS6GcEIAABCAwCQR+HxrDw8O7u7uLiop+e4Bx0DQYEhJSUlLS2dkZHh4+6AjGF0ceGmcGb4jYut3wWBc2Tw/v7jkzeMn6TeHbtunf2xYZsWFliLenh3nLeM+ctz58a8SGlYHaV/1XbTbMaXvEhkUzvMzHxTAEIAABCEwKgVGExjkhkcbNwLZtSxfO1lfY03vOorBN4ZGmbUpE+NqwBUYOd/eA0JXrI7ZqNznbtkVsXhc6z0//rrtH0MpNhm3R9q0bw4xTYQACEIAABCAw8QV+HxqjoqJkMllsbKwx3f3pwMmTJ+Vy+ZkzZ4aecOShcfOZComaMzyK/juhc99yKjHnW4VYpmZY/XssRfZWv18wb6axYWYu3Z785HOPipJUvN2lfXXtxzbDnLje8mvz5xjHxQAEIAABCEwWgVGExgNpMsNmgGXI+1d3CAQCD0+vvRdvff5RL1ORxm0KQ6q6S/7TiyyKSLr7rrpFrKG1mxyWIeU9VXnP9m4M5kfw9j3xuoE2zFZZ/XiyOKKcEIAABCAAAYFA8PvQmJiYSFHU+vXrh458Q7y7du1aiqISEhKGGCcoKGiUoZFRS948To6Ji9kXvkggEARF3e9WU7q0yFIajYr/x2+ve8uXLNAGwaBV5zO/tEmUlHb7bwyNc3Yej4mLiXldox0XoREfEwhAAAKTUWC0oZGSNGSmXY2Jjd68ij97ZemlDxJSFwc5huQ3KKSK5LcpHXl6nbiH/NssoxJ3Nje2SFW6hMg05YlWzuNDZ+j2o9FxMZf+q1JzHELjZFylUGYIQAAC01ng96Hxzp07HMcNnfd++y7Hcenp6UOPNtrQqOy6dHy9vi19w19W9XEcx6g7c5KP6s47FQgEs1buEN1Kmxs4U7BgWVpVLz8CTZIUw3GcMTTq53ArH6FxOn8wUHcIQGCSC4w2NJI9ZdvW87sg+UfAoRIpnxBpReO981sDdC+6eyyOOP4gU6h7Joi/21OTf+Poen/traMCQje+LOPPW2EkNYc2hurHEQj8bxQhNBo1MAABCEAAApNFYIqGxvWny3v5E1al1ekL53oO0hgLw0Tl7W2VeekZCR+a+ROREBoHUcJLEIAABCarwJiGxt0ifjckx/V8P/VLjxVrtof6m7+7IeU1P42m617kWuPrCI1GCgxAAAIQgMAkEpiioXFpVFG3it/FKy49vsB4oNGsXTy9Zs4Lnhc403tJWFoN/2MAodFMB4MQgAAEJrvAmIbGdYmd2tBIt38IHzbMluQcfiJle0L4auNECI1GCgxAAAIQgMAkEpiioVEwPy67ltRe0UiJa27HbgtdMMfTw32QhlmI0DiICl6CAAQgMMkFxjQ0CkJFhX26q+RV7SXXjm9ZHGTqUG1QKC+/pRkf6/gDjR2FkWu0feFox0NoHJQLL0IAAhCAwAQXmKqhUSBYGHn7S61S2xMBS5Ptlflp106tGNgVKkLjBF9DUTwIQAACIxEY29Ao8Fp+4HlJK8lfAs8xGkVj8fvrMQcW/yI5enh6HU5+0qGgOJYuzr68QH8RJF8NhMaRNCamgQAEIACBfy0wdUOjQOA7e8nhC1n8Zlv7YEhlY/GLnWsMd9zS0SM0/utVEMuHAAQg8BcExjg0CtzdZ85dGZ3+VaHNjXynOGpp2bu05QsMd2I01SHw9IPvYhV/YJLs+H54qb/5WS4IjSYnDEEAAhCAwOQRmMqhUd8KQasuP8pt7JbTLMtxTEfRvRWztX3b6d5GaJw8KytKCgEIQGDYAmMdGg0L9goJv5lT3N6n0l0A0fDmgtmeSHffBRtS3lVx/K03yK6yt4fnGyYz/EVoNEjgLwQgAAEITCaBaRAa+btR+oRuOfToB9/7OUfLPpxYaGoihEaTBYYgAAEITBmBvxUaeSDvWev2nnrdKNduU3qzIvVoXvPCM97XqGiWZTRl7zK36u4JbCmK0GjpgWcQgAAEIDA5BKZHaNS2hd/6R/ydGTmu+fUSU+MgNJosMAQBCEBgygj8zdCoRQra9Zm/XxPHld/XoS0X5bZpGI6j5AV3Dy0I9DM/K9XIitBopMAABCAAAQhMIoEpGhq9/eYGzZ3lN8PD0BQeXj5zLr5V8tt3tvElQqPBBX8hAAEITE2BMQ2NvjODg+YG+HgZc6DHDL8laT/52wFzzM87AoHAa9P1bH4DQyu+ZR4cQhShcQgcvAUBCEAAAhNW4PehMS0tjWGYkJCQoFE8OI5LT08fegb+AbO8vc2uNhy+2eYzFRI1o+y6dHy9fqLNp4sb67+9up944WJs9Okz0XE30v+rFfPbd1bRfHNPkGneONJossAQBCAAgSkjMKah8YCovbvhY1bGtfgLMedOnTsfn/TgTQd/M2COkVbFrxYIvNdkfmrmOI6Stty/lRQfF2/2L+ZYJG65MWXWK1QEAhCAwDQV+H1ovHz5skaj2bZt29CRb4h3Dx48qFQqY2JihhgnKChoTEPjmUqJNiKyLE1qNBTDd4LD95Mue590eo63p6m1ERpNFhiCAAQgMGUExjY0punORGUZlibVJKXvQZWStT08scNbIBCE7HhdK9Gey8KyTL9/6spHhqseccuNKbN+oSIQgAAEppnA70PjgQMHJBJJcnJycHDw0Klv0HeDg4NTU1N7e3v3798/6AjGF8cyNArm7j2f9vl7WVNbV49YLO7p6Wpr+vn15emdZiem6lp6fmjC9waxWNyQ/2Sredvfyuc4rrf82vyBt3Y0Hw3DEIAABCAwEQXGNDQKFp5IfJxfWtXS0S3mtyndnS0Nhe8e7V5vOIS4bOuTEn5TMtij81vGFqMQTk81UmAAAhCAAAQmkcDvQ+Py5cuLioqampq2b99uDHjDH9ixY4dYLP7+/XtYWNjQU406NPbcvLg/JDQkeI7vaBrAe96ikNCQkHvFCI2jYcS0EIAABP6pwKhDo7jy5MHwkNCQwJkjum6iX+Xd3f3nLQwJDVmdWqLmOGX1437v4ykEIAABCEBgIgv8PjQGBQXt2bNHIpFUVlZu3bp16ODX793IyMiSkhKJRLJx48Z+bw18OsrQyDJUd0dTbV3ts+TdoxEPu5dbW1db261AaBwNI6aFAAQg8E8FRhsaWUrZ1tJQW1N54/TGMaiIl8/ejI9VdbX1HXIGoXEMQDELCEAAAhAYV4FhhcagoKADBw709vaKxeL09PTIyMjQIR/Lly/fv39/eno6y7JisfjcuXMDI+LAV0YeGjeeKGoVKwyPr/eOjoZw9ataw5wULYUXgwNHMzNMCwEIQAAC/0RgFKFxb0qnYTMgl0oyLmwbgwp4+x59Vi41zLa79O4YzBOzgAAEIAABCIyXwHBD4/z583fs2PHhw4f29naVSttnHH/J/+APlmVlMlljY+Pr16+Hf1LryEPjeGFhORCAAAQgMEkERhEaJ0kNUUwIQAACEIDAuAkMNzTqDgwuW7Zsx44dR44cOTXk4+TJkwcPHoyIiFi0aNHAI4q/egWhcdxaHQuCAAQgMNUFEBqnegujfhCAAAQgMI4CfxYaf5X3xuR1hMZxbHcsCgIQgMDUFkBonNrti9pBAAIQgMC4CiA0jis3FgYBCEAAAuMigNA4LsxYCAQgAAEITA8BhMbp0c6oJQQgAIHpJYDQOL3aG7WFAAQgAIG/KoDQ+Fd5MXMIQAACEPgnAgiN/4QdC4UABCAAgakpgNA4NdsVtYIABCAwvQUQGqd3+6P2EIAABCAwpgIIjWPKiZlBAAIQgMCEEEBonBDNgEJAAAIQgMDUEEBonBrtiFpAAAIQgIC5AEKjuQaGIQABCEAAAqMSQGgcFR8mhgAEIACBCSmA0DghmwWFggAEIACBySmA0Dg52w2lhgAEIACBoQQQGofSwXsQgAAEIACBPxJAaPwjLowMAQhAAAKTQgChcVI0EwoJAQhAAAKTQwChcXK0E0oJAQhAAAJ/IoDQ+CdaGBcCEIAABCAwpABC45A8eBMCEIAABCalAELjpGw2FBoCEIAABCamAELjxGwXlAoCEIAABEYjgNA4Gj1MCwEIQAACELAQQGi04MATCEAAAhCYEgIIjVOiGVEJCEAAAhCYGAJ8aJwxw8ffPyAwcM6//ecfMMvX13/GDB/8gwAEIAABCIxSwD9glo+P3yhngskhAAEIQAACEJgxw8fHx/d/AQGz8A8CEIAABCAAAQhAAAIQgAAEIDCowP8mxjFPgZvAw8HBkcADAhCAAAQgMGoBVzd3J2eXUc8GM4AABCAAAQhAgBdAaMR6AAEIQAACU00AoXGqtSjqAwEIQAAC/1QAofGf8mPhEIAABCDwFwQQGv8CKmYJAQhAAALTVwChcfq2PWoOAQhAYKoKIDRO1ZZFvSAAAQhA4J8IIDT+E3YsFAIQgAAE/qIAQuNfxMWsIQABCEBg+gkgNE6/NkeNIQABCEx1AYTGqd7CqB8EIAABCIyrAELjuHJjYRCAAAQgMA4CCI3jgIxFQAACEIDA9BFAaJw+bY2aQgACEJguAgiN06WlUU8IQAACEBgXAYTGcWHGQiAAAQhAYBwFEBrHERuLggAEIACBqS+A0Dj12xg1hAAEIDDdBBAap1uLo74QgAAEIPBXBRAa/yovZg4BCEAAAv9AAKHxH6BjkRCAAAQgMHUFEBqnbtuiZhCAAASmqwBC43RtedQbAhCAAAT+igBC419hxUwhAAEIQOAfCiA0/kN8LBoCEIAABKaeAELj1GtT1AgCEIDAdBdAaJzuawDqDwEIQAACYyqA0DimnJgZBCAAAQhMAAGExgnQCCgCBCAAAQhMHQGExqnTlqgJBCAAAQjoBBAasSZAAAIQgAAExlAAoXEMMTErCEAAAhCYEAIIjROiGVAICEAAAhCYKgIIjVOlJVEPCEAAAhAwCCA0GiTwFwIQgAAEIDAGAgiNY4CIWUAAAhCAwIQSQGicUM2BwkAAAhCAwGQXQGic7C2I8kMAAhCAQH8BhMb+IngOAQhAAAIQGIUAQuMo8DApBCAAAQhMSAGExgnZLCgUBCAAAQhMVgGExsnacig3BCAAAQj8SgCh8VcyeB0CEIAABCAwAgGERgfPGX4B/r4ujkPpObl7BwT4e7s5Ww81Ft6bLAJW9k4CP/8AH0+XyVJilHMMBVy9/QMC/Dwc7Iecp6uPf4Cf95DfC0NOjzf/rcC/C422bh6+AQEB7kN+uzi4CAICAnw9BXb/lmmslm7t4Onj7+83w8neZqxmOc7zsbG18/bjt/NOQy3YxtnNOyAgwMN1qJGGes/aXgvl4+wwWaGGqh3egwAEprTA6EOjR+CiNcfPX4jatUIwioebwMPBYQx+nwVvPxEbG3tix8Jht9rmnDIJKW+K3jnUFPsz8zhGnXftmPdQY+G9ySLgsOXgcwnJdhSkBEyWIo+onLZ2m/nPQ//HmZ0zfUc0vykyUVy+lCO7H4evGKI+1tax1UquI2/7EOPgrYksMFah0W/T4djY2FP7V9vaWA2vvsE3HtQzHHf//FCjb4xJV9Nsw6uUBUONNXneC9r9rVNNSuoOR0zWCvkEL/3WruFkhXuHUp9xIuGbhuGeXRpqpKHem7v9a4uCkjad3LF4qNGGfM9J4LU7Ktr8ez0mJubsyai9kWsC3ftP6eLhfei0+bix589EbV+7wMEW+8D7W+E5BCAwtMAoQ+PCE9ceFFd3KCmmLPv0KDKjYIxCY/CzBpLjOKrtzfqh6216F6HRZDFthuw37HvQo2ab3l0Y8mDApPdwcv6vixv4kH7avHLS120UFUBoHAXepJl0jELjzLQSKcdxdM/33U5DH5o2ykzL0Ogf8bFZpe6pPLBxthFicg2MU2j02/SmTqaR1B4LnztiH++5i/PbNP2+2RmKVPR115a8u7ArxPwoZsD8kEqJxbgsTUq7av47s2jEBcCEEIDA9BQYaWicOff4oy89CpKlSLVKw3LcRAiNjrsz+xhKKukjaWnWwWHGAYRGYuHqHZ8qOlvyUqfnZ4Cvta3D+stP6rs6X5+YUga60Nj2ZfPfq9XZ2wXNzZVbVg//2P5YlsXK2ib2UV5Hx4/oP5krQuOfaE3WccckNNqvi2nR0CpJl4JUFMT6DM9iWobGATTBmw9/qeysen1z5AfUBsxz+C8EbTr4uaKj5t2tJcOeZpxC47DLM8SI+tAoL9qvG8l3ydZ9B4WP3lU196hpllO23t4ebNzDoQ+NTc+143qFbTx690N5H8VwZEN8EE6RHYIZb0EAAv0FRhoagxYn/mxvqyp8eO1qxv18JTMRQqNP7ItyWtmR/fZem5xu/ZI8vDMPERqJ9QfP9ai5zoJpHBodXA6/rKM5BUJj/2+I3z1/XM9xssbwNf8mNFrb2j6tUXHKSoTG3zXUtHt/LEKj297rL0mGLnh9qbBDTTdmBQ9LEaGRZ1p/NlVBss3v/01oXHsqWU6yLZ+mR2g0rpbeS+JufharWVpSdipEf22mZWjkR7UXzLn1to3huPfCMOOkGIAABCDwW4GRhkYv76BlK5YunDdDMPvE1dwJERoX7y5olcvq3m8NjnhT16fuqTm2cjgHGxEaERoJAqHxt18VvxgBofEXMHj5HwuMQWj0C0n/3sGqqk8FLkh+18gwypQdA64YG6SWCI08CkLjIKvGGL3U/0ij2WztXBfeeFFHcWz5f2d0XTAMDI0EERCdXElyXP6d3WaTYhACEIDAbwRGGhpN1y9OkNBotyUqXaJmKx4fIAji6ONSlpQ/jN3hYNlzgZ2j66pTop+tCprhWI6TtZdG77v8ttKyIxwbB48l+x/lNyg1NMdyjKLnU+qJi0++D9kRjseRuFI1x+WKXNfvuVjc0sexLMeS0obvNw4vcbbXX24euvtMu5yW1uSc3x5f2qbgGHXutSgvgrCytpu5ZMut1yUKFX9BJsdxyu6GrGv753jYGlsvoUjGadrSV69YeDazskNJsxzL0G3lb46FBRnPQiEIKztHt5Un0up7+ApyHKfoLE84ssHD1nAKysWnHEdV376+77iohb9OR/Ju+fMG3SJN/yu+XD5R3sdwXfkbzWZNEIRz1COSo6ufX5w9SBiPb+C4vtq763fsySpsUdMcx1A9la8PrXB1cnXflPi8tU+tJVH8zEkImWma3srKLmD5tkffmkiaLwGllJY8jlkkcNZ3ObFuX0G3Si0uOh64WvimQk6zPI6kJSt2nYuDXnXR1qNNUlrZ+MriKtadIhnHdhSmLvIzEloMrNlzokvFNb0+RRDELtFbU+11Q20fdWNb27vO3hSXWyemGZZlWXVP3b2zaz2c9J4ublfqVJyi4r7P7O3PSzpJmmNZpi43c3WwwNbDf++t991yvlakqu/b/TOeLoZWsCiI/omdg2vYvvNfq3vV/ErHsZS6tfzjqXVLnA0TOTpf0i3L3X/t3a81SpLhOFbeXiE6FOYw2Ax1r/329FRre5eA9TFfanp0FdSI6x+c3+hhXKqVlef8NcnPvsmV2jWToaTt5fG7F9vzPSjYbT1YoLCAY7t+3AmbRTjE5as4svLBRrNy2WzYk91Lcd2fzuletP+vjuNkX3Zvi7jxrkfJcVx7pvYNa3sXv7XRn2t6KB6c04gbHsVsMpXHbI4EEXTjaY3F8jmuPXcrP4qdw7y1R14UN6o0FL/G0JqG7082h5pWBf3pqbvC/Y+KfrbKtSOxXTVfojeGGjEH6QjHznV55MXiRv7yIJZlVF2Vd08vd3OaIp1fWtBOiSejD43z15xskLKKvBiCIMIv3tMwXNGDaHfDR1KHZGPntGT3+bw6CaXdppDS5lsx0aInDRYd4Vjbus7bkvqmXKai+I83Kf/5PPFS6n3NkB3hLN/wUcpx9U/9lh9KLW+TsRxHK3py0/f7ulp5LliV8aVSRbEc/6VU+zhmjYtpNbRycHHfGP+0WaJktFsBcX3euchlzlaGbWFGEccpC88cmb0xtqBJSvKfEK7155tdKwOMo6QV93KqrhN71pivCGs+tXJc9xNPgfmLZsPrXzUqVd35e9cRBHGyzPKrgeO4/+L1YF5By5Ne/VSQfOFptaLufdIKTzdbfenmXMqooTkuO2nOkeScHgX/laoW12WdCXJzsguMjMqvF1MMxzG0oqXw4q6gX3TUeuLngKU/vahduqvnzui7la29/Lc5y6plHR+Fezxc9XbG01MPzVx8/nFBr4bhzVW9P14nrfBwNTT7gI5wrGyc3RdFPyyUKimekiGbC//bvjzA2toAbmakHVz9rFqqFpcc3qR9NmtBarWE4xqveQWduv2ph992chp596fUvQKnX3ZUM0RoJAhi+bHrEjUrKc/Zoq3ZwNBo4zkv4XMrwygy9/UvHJ5DAAIQGEJgioRGGxefyy8bKKpbtFxb2bDEToppy00N9DJtS20d3Y6lvpaoGVl72bN7t5JThC/yazpbunpUalPvqdb287ZeKGlX0irJ99dZacnC9Ky3De2dda2y4YTGxqJHDS1NH7PvCJNSHj7/0i0nKWX77aiVuh/hutCoEleU1bb++PhMmJJ0YmOYC0Es3nO9pFVGKbuL3z5KSRGmZGYV1faSlKLqRexCQ7/e2tAo/ppX3ytueJOVmZwizHjxrUdJ05Ka65vn6RrYztH17K1PUg3Z1/D9v3ShMDOruFlOytuzTqzVrwF8aKTbahu7WluL3z0SCq8dDtgfJxS++JCnojlF+w8h/0g4tM7j0ssmipO/jDLrY9Pe78a7GkYjyzixwvjD2mzF4kOjsru5ua2+5N0jYcrtV3k1JMf0/Hz14EOhQtby9kmmUPggr7aXZlXVj48aJwzecaWkXUHKWj89FgqT01/l1mhYuv79rSAfZ34cbWik1C2VX6prCt8IU5Izn3xsk6ppTW/m8dW66Dn60Lgw4rDw5q2P9X0MRzZ+0Rpc1JbQ2W/X1ZdiipW2lj26I0pOTcutbCcpecm9w7ozn3WhUd1W/qOtu+DFw5vCO68Km9QM3VmQceFtfU9b9cvMDNHNR8WNvQxLVtzb/auDFNa2nidS3vYoaWV31csH6ckpKTeffW3qVdPK9uyz6zy0WLrQqG75/r5RUpX38laq8Oazrx1yipHWJ20yxSEjrG7gN6HR2Wf75WwxzUrbKh7fvZksFH0tb9OQip8Pj87UTW/ncPBri7qvrSDncYpQeDv7U5eaU/eUnQ6bQxA2wSEnEoTC6j6O00hfZT8WCoWXz2z3dx9+aJRX5DXKZS0fs+8JhZf4XkqdfLZdfCqmOVl75X93byYJRV/KWjWkovzxsVn9KsY/9dq4NyZVJKqVUBwlztO226Xj2vMHQzfnNPcpumpe/3cvOUV4/8NPKcnKap8tM8xEGxqlhYV1Umnrx2x+nNQnuZ08ZmPatvm6sQaExtl7Uj53q+jextJ7QqEo42FRfQ/HqXKS9nmNQa/PhpLh79gJjD407hb9UFGS5xHa0/yCj9fKqL7695vnW9yRYcu5zBYppZHUv3l8Ozkl5fH7H+1dfT29faxZ76neoQdyKntYWlXx5WVGslB4L7u8ubuls5dhuCF6T9WFxu4fH+qaqp/dzxAKH5c2ShhGXnY76kVFZ0tFblpqaubD9y0SNUeL0w8F6eRcvAJvPCumGLqj4sv9NH5ZFR1KUlKfvt1wai0fGjWNBdXt3S25L+8LU9Kzv9WrGUZc8XSDi/6rfdShcfm5BOGL3B8Uw0qbf/6n/Wzu0W6FfNec/NTQRyq7C56nC5NFT9+WyCmm+2fOpvle2vLrQ2N7RW71z7xbItGd+2+bxEqW7v16/0ppa2dVbrYwJe3pux9yipG35O8KG7Q787CzCcLnX0tIhpW1lOmWro2yBJHwmSQV9cWfbt0UCdPvFdb3MCxdkHlkhnbZhtBY8zm/qakyNz1NlGBB/DkAACAASURBVHzzzocfzRTDdhQ9Wxuo+ybuHxrd/bc//t5KU6rKvJdpKcLMp5/bFZS08cveJW6/WJcHDY2dpdnl9ZV5GTdTbmVmV3XIWE7zOWWXrmAD5zN0aCQ2nKyXapRdhQdW8ZNahkZ7n3lLj1282ypVNX28MPwLPgeWAa9AAALTUGCKhEZP/20l3bSq+oFuy0MQng9qKLqv8myQv7FRZ4Rdr5VTVFfB4XkBztpdlC7eQaduvJOTnDE0Onr43i/sYljVh+vrfdz4HX02ToLFu+Iqe5TDCY0qaWtK1AoPZ1uCsHJw8Qo+/UTKsb1lz+b78+FPFxpZjezzzZhgD20o4n/67v7ao6FlTaKdG3wF2m22nZP/glWZ39sZWvnmov5SMT40sgzd8zN6Y6BAe3DDxtXvwMV7vWpWXJml3TQQXtvutKmZ3h9pCwJ9HG0Iws5pzrL9Be0aTeu7DToFPjSytLoj+1yEr7sp+vW/ptHKbuPRW2I115mXbIwjTst3f29XKFvztgoMu1yNsvwAHxpZRlmStls7Z1s371miH30cTVGajifH52rLbD9r8a7SbprtKzmom9Zz67t2DS2pjdu5xoP/5W3j5j3rYm43q2m/s01bcW1o5FhN+fOkFbP4Pdx2Th5bU99wHNuWJ1yg3aKOPjTyZRnk9FTr4A2nK3s0GnHx6bAABztrKytrr7AD7+sklLz93Aa+QXWhkWWU+SkbZrg6WBG2glmL0390c7RGruxOPrzY1c7GysohZH9sXR9F9hbt00cxCzj+EO6uB+1qRtXwenPwTFdtt3dWzl4rD8RUi9VkX91JbUenutDI0mT1yxMzvV1trAkrZ98jF77IaK6v+OYvZkzoQiMpqy81exR+fLw02IcgrOaujSrr0lB9P84tD3C0syasrLyW7n1d3cuoumM3aX/x2NmH3717cEvIDFe+eWxdPJeklalZVXGS6bDuwNNTh32kkaFk9anhcz2cdXt2rOasOvqjU83IyqNXzHTkj89beYbuyqkUM5re+C2D/wIb/JrGpetS715YFDTLzZGfs73nzHPvm2mm76Xhtjp8aGRZurfqYvhcD90xGifvrSeS2xWMpueD7gBAv9A4d1+SnOZ6yrP3hvnZEYS1rYPPshM/FJy8OW9jyK9+2vVvaDwfT4FRh8YlH1opTfP7QO1aRBBuCd/7GFVH2o6Vpm9A3xMlEpKWVMQuDRY48ieGOLr7bz2c2cEfPDfdcuPS2yaK1ZRn7gzw0h6wsneZu2bP25pelvt9aGSprpu7Zmk3WI5Lwg+W9Wg4jaqz+vXeMC9rKytbB58Torckw9W+TNKlxtDT2T0k211wISjAk/8M2Tsv2xZbJSbVDU90O1QJPjSyjKLl7p4QL1d7grBxnhEoKurmWFXuef1+rVGHRr6dBzk91W3lg3Ixo+y+c363r4s1QVg7C/yOPa9haenruK2O/HE1fWiU1H88vMLb2trK1l6w4+o9BcWyGmnFi/gFfi4EYe3kPj+jsJuj+p4fjfzVHpvBr2lMfp59NTLQ19PaysrKxs5n99VmBdlX9y5iDl9gfWikqeZvDzct8LaxtiKsbd39Q+8Ud7G0NOfkdu02u39oPPK4hmTkxdc2zPR25U/AcPbcfC67m6SaXhz5xdo+aGhkOkuf71jIL9TazmXVaaFERcuav/7q3mG/CY3Ou/PbFOren0e38EXQh0ZNn3YjUFbb1C6TS7/dP7/E37RL/RdFxcsQgAAELASmSGhccL1Iycq/xhp2phLEzAu5CpasuK3fUBIEsSirnmMkOUdM4/ASC3fntcmNoXHG7PhGJacsSbFAIlwuPK8YTmhs/5xo2fuO151KmpM3nlsYaAyNmr7aE2b3h5t9LYfjqMqncTMNKVK7aJsV+693KllJ+ZOl2ufa0EiWiUItCjYn8k19HylvPrfFliDsUkoVrLpNFKrf5cyP6eB+7FENyUmf7NFOx4dGTlqdvdjyBNP+oZHH2v65UaqRVZ9crt2uWNlvOf5AomF+3I+0KIDpCR8aqc6i5QuNMZPwis1XcpysVGgay8Xj9PcujmtL0574OusSf+Sz6sWlQMMBVYIg3L0y2miu6ZX2p7vuSKOqJzbCPDNE1zGctP7+0nn8j7e/FRptnPYkFKs4piRV1wL6Shy7+5WjNQ+v7LY2hsbOPNMY1o6744tUHNdXKDSdxTVnc06NhFa3nddnd5OHdsjuRpGc03TdXhti+casy08qOIb879oeG4LQh0Zx4Q6zkQI37q/qpTQdH7S/DczeMAzqQiOt7mk1ezT+eLtykR9hbb/jSqGSY8rSjEfg+MkOp7/nGOrJjX3GX8Y2dg5u7h5e3j6+fn5z5r7s4bj2r6YFjiI0sp1fYg0lJQgr262Xvis5pirdom+GQzffcCyTnXTAWB7TJHx4+2VHOHaOzgIPT+8Zvn5+Mw+fKVZyXNUD/aTa0EhV348wnxXht/JecSfLqG7s4X/9W4RG66Drz2o4ln50UZco9dNte9PJabpvD3m/R4tF4Mk4CowyNLpEvZOx6p93dpvuXnDwuZShG18dd7TTn3noIirhWGVB0k7TOARB+Ibc+t5hOtJoc7BMxqlrn7pYnMlsv//6M3IYRxpVxddMZr5LbmrnnJNk+gASe69INExn3sM1/CfE/lGVilXWxbmZLgEgPBcmf25lOEmyrhNlbWhs+Rjvqk1pupkvXftWwnJNL/R7n/5SaPQ5eEWipjt/Zq222M1yuZ7mOgvOuztbGUPj5wyz8yZXnKyVk5S08dhW/VkAfJmT8lhOVXJ+v+svTgIdPDTyF4NYO7m68V9nPn5+/qeLu9UqcdEB7TezPjSyigzD3iW9fPj9HpZty43x4hdmGRrtT5crOXV9jq+nafstmLvkTZOSkxSEm1rOfGjQ0Eg/OmHY482Pu/1zsy71DZ7rfhMa5x0s7Fape38c0X5d6UMjrdJtBDp7xFKFmqbVrZ9Ey92dfuFnXmAMQwACENALTI3QuOB5k4YjJV9Sk2IMj+uJH8Uaju54Z/xBn1mp4SSVW4MsYx1h0RGO/6Evck7zU9T//kX7M/OGExrz0vrNnFiU08LRPc9C+KSqO9Ioq39lfrFXdFYxRynux+y0vH6QIFbv/96lVLbl7tK2FB8ayY57oZaJlwjJ+NLGqCVXjy4miA25PRwtbb4lvG4wiImJuZz9to3iuC+J2rloT09teHp5rsUJVoN2hON99r8SllI8OB/hSBC2zh7X3rXSitqYX963mQ+N0rp7IXNMv+09vJ92c3T1I7OI7Cg4/qqe5iRPtvHlOf0gj2Oon5+z481LfPWLmOJkpdquXLWhUd1bcsCiwLu/yzhNR9EK7QWLfys0Oroez21jOXmxaZ3iS5lVUMOx1DfRWV9DaFRU3NV/mPg/9uGHXvZRXOUj895EVz340klrei/p2tJsbO3gms/dnKbj+5olZicDa99YcPUpx9LFt877G0KjouK+xdSrdnzqUFLyH4csXjU9Ger0VDvHQ59bWU5RalnB//IqOZYuyojh07+V9fy1u67dfJhbWt7YJlYoSZriL7kZo9Co/H6Ov/5J/7C12/+JL89Py/I8/lrOsUxJZlz/j5Z2skFDo62L94Zdx9IevS6sqG3r7FNraEZ7ja9FaKTEzyJ0R+gNBSDmXcuq4ljmTiy/p8kiNPqvelDKH4r59NBsTY2Jif3Rw7Gyj9tNx12N88LAPxcYXWicnf6zj6OVP57cizO1eXa7imPERZsNN2y8mi/mlB0XdqyyvPjMsiOc9c8kHF3//KBFZiSIjTHp6mFc09j8zPw0gqBr9+oYTpOuP1VDa7w+ukVF9VY/38zvmdxRIuEocdXlS+bfqcLPxT18iD2rHZ8PjarimL3mcWHxqrsdJCf7flXXan8pNO6Iv6WiuLbyT5dMpDExMa86SE5Zm+3p5mAMjc8umoVeYu+3bpW8LXeX+d6t4y8UHFnz31Hd2TkDV7ZBQ6NL4MoTcdeffyioaGjvlShJ/jJ0rn9oVJQc7j+7qJ8KTl6TNYM/H8YyNG593MsxvbWvrppXKUlU0K3imLrz/eejez5oaGy5ar5flFj9tLKPlref2W25m9gww6FDo9uWM40yUt6au1v7Q8by9FTCKzB4/Y7j997+4Fe/z0kLdWfdGuaMvxCAAASGEJgSoXF7hkx7xX+/XjH4p6z66RH9DrwXTRzZnr9oTr+rICxCY0BCkZqTfdnbPxsNMzR+MTuopkMPeNnIseJn2rCn7win6tlqswa59KKU1ciST1scweDfD9n1tU1mERo1benmRxG1I2lDY9/1Y6EEsa9QNgiA7qU8kXaRfGikqm/G97v78iBHGgnCbZOwh2Ma3l+d60G4eR362cu0fTpp2ptqVgXtIB8a+2rTl2jP89G9qQ2NmrIMswNH+tCoeBnFjxKX9e1XJVaU3+HH0IVG8Xez3c4EQYxLaHRyiyrqGrx4LFWcFu0/ZGgsua0z0P3Ph0aGlF4bPNvtLJBxiuYPKxeajk3qJz5/n2Pp0vTzAX8jNNo7Hv7e+YsKMj/uxM0iCPt1V0s7ZDQlryv8cD81/uCWjatWvesds9Ao+xJh1tOGrd2Bb78oD8eU3bvQb6XVEQ0SGq2sV53/r0WqYTW9pR+epN6I3rYs7Pzln6p+RxrJ7sf9jxDqQ+PdOP4DahEa5679r1I8uBUnz90x+BFk8zUAw+MvMKrQuDq6XaXtm2uQVie/X+TzGUEQt38q6L6Gg+Hme4gIgrAMjafeKTj1j+t7zA7s8dMOMzTWPzUPE7rQKBOan2+gDY19Da/D+a3WqfIBfcAYa/BId1yfD43Kwqjd5jvixic07rucoe3nxVgi04Cq4bWnwNEYGrP0vebomPnQKG3+uM38ho98aKQbXkW5m1dDN7r2/0FC46wND4ub1RQlbqp4cz8h5tShdUsvlYkHHGmUFe41m492kA+NitrsQULjsexfezfqOt/pPzNi0NDYeMlivNGERseIcw9lJNuWn7lEe5yyX2jULsfKOfBoaZdK3Vt1bFO/X0QW5cATCEAAAuYCkz80WntdeVXHkvLH0TstNx/O2049lZJsV0GG7ga2T2oZTla3e6H5jlvCZs7OT80y4+mpAbEFSo4szzSd1KrFsj+XVTqsI403zfeP8le4JJYoOGXz1UV8lho0NEY9LuZo1X9XDjpaniZiv+X4z16NrPGtLk3qjjTeXWF26ilBWNlvzvnZSylaYvgDd6s+dbFke0FYsMWpP+aNTfxJaCQIr7QyiuwsXrfAb256FaVuv7nU7Owgi/nqr2n809B49F4eR6vvXtpvOjrZb7bDCI0L+d5TKWXTa/Nf7nZ70+TD7j2VX+bAaxodXY9/bGW59tu/DsqG3lMHOdL4J6Fx+btOluz+GbG0X28vtntFbzmW+iI86fU3QqOd46H3LSzXcffXFbxSKGfV7en7THu7HTyzun4bGmPylBxZ+dB8P4jNxoMvJQN7TzUPjTZ2+982s1zng36foX6rhOXTgaHR2sb2eZ2alf08ajo0aR1+mO/o1fJIY8/T7dqrRQ0ztLILu/OujWU1ydrDOBah0XflvaJOlu27Em55SMkwLf5OQIGRh0Yrl8NJbyiGK7x/3vyUQf5k+NWJLUqWa3sTpv05LiqUcuruq3vXmq8W1l5Lbn5tN52eui9HxtENb4472Zt/xdvsuvxwOKen/mFo3FLYy6rrX3i49D9zxdRAwwiNN4v43lPP6PquMUwZ8aVj2L2n8tMMvKYxPPaWkuIKsy4Mfs4lP5H+msa/ERrXn+bv3Nj4RTjf+A1jt/dbl2rAkcbig5bls3G71c6xXd/OefH53fJI4+b7YpZuenvG7OxUg9cv//7d0Og0a9n94g6G0WTH6PdlDBYaCcJ25+dmOS1vP7un32URvyw33oAABCAw6UOjy4K939rkGkn1ibX9O6f0XnnoZ7dKLamKWu1JEETEwzqSVfxI2m36kWztsCIqrUtJG0Ojt390nYJTNeWsMnWgQ7jOjvxS2zec0NhZkhlsVgqfsPh6JSevfbFwlqkjHKnlkUa/nXd6Waa7NGujn+nCPis754OJOXKSqco6oDt5hA+NnKbhwRFT4a3sFh640SIjZfWvNvD1Iw687mRUHSkHjCfkDli9/yw0Et6H3spI2ftjR1+0UpLKZ4u1tRgwU90LIznS6Hvwtpyl63NS5wl+8RNnGKHRY+2+0i6VRlxxeK6hax87z33387hRhkZrh63xb2UUWX5nw6/O3xmj0EhEPmwiGUXRjaPGHzN87zi+K7K+tzOkOGE/v6fAeMsNC//RnJ5qZbfl/Os+iqy6t0m7+ljMWPfkcT1Hiys2LdcfVyEI78j7NerfhUb75VldNCvON51hZmXjeSGnheIG3HLDPDRa2Ww6m9NHkbUPN/+qPAOLOGhozO/kyPps48hW1oE3vrbT/UIjR7Y8jzF95AirwPDo8h410/ttu3avi0VoJGacvfONY9mXiesFpvvgGJeAgYkoMOLQ6OAb+uB7J8vJ0/b69KuYS2BYdnkvy0lTd/Gnby9MKtKwmrqsC952ptg4e/2ZMrHGrCOcXaV9nKazYNsCwxcUQTh4LrzzoZkZRkc4fxgaifhcMStvPL+2/7nupooMIzQeedPMUfLXl7abrtUM2PCtmx5laPTcFN2ipHp+vtoQYP5VZyraXw2Ney6kqWgu767x5FP7eTsTW5VU/9DISZ8cXWiKjQ5++7MrOVr+6eoe7V2TLEMjseZzJ6Nofrk50HKXtXmd+g//xdDoHrz+6qtqFUN35icZe0YdLDTaztpwobaPVHX/OLRmwBku/QuM5xCAAAT0ApM9NNpvOpbeq2a7CzMXDswd9kFpX1pYSv48ZpcrQXgvjq7uoxll+6ukY0H8z1KP9SfTftT1KmjGGBptBDNv5HcwrKYp9+62xb62BOG6bP/jvCqJVDOc0MiopYXPEld5uxE2dkGRp7/UdjOU6l3CId0NFwc90kjYzbjwtZ2mVU15z46v0x5r8go6nviyoU9DdRXs89FvvLQd4XCsqvfj3dglvvwWN2TvtW8NUppVfbgQoKu6x+K46j5K2VPx6Mr+YO0ecjuHBQfihHev6+/J8asjjUt3nWyTM/K23M1zLbblzh6L3jcrJbX1MlrzKeW451A/l0cSGgmnhXcqlYxaUpSTtmOh7iQZ9xVbom5mJAfN1lZgGKGRcFr+ML+dZciSF9dCvZyt7Rx3XnzU0CX/s9Bo47w3qUTFMbVP9hqOLVjNCNv3vU1OK7pep50P8eZlHD18IqOuZD1M0OXysQqNDgHhX1o1jEqc++jSsgA+yNgt3JH+7oecZLq/JczV7icY+9BIWHmF7sprljHKnrfpsUt9+OU6untHHLv09L9k3SnF14sUHC3PfRgfyL8162jCS7FcQ1uGRn4cqu/ZRe0NErXfKrb2gR9baU7T+zZhz0wBQfgtjb+b36UiWXbI0EgQXkt2fG2Ssirxu4y4Zb78Xn0Hd6/wYxefPRH2O/Rv/P62srG9VNTNMZI3h/QnRlvb2L6sV3OazsfxETMIQjB79Y3sn1IVf3c3iyONLMeq+wqeXF0xi1/QvMi4z9W9FKsuSZyt+2lvGRoJwYa4FpJT9dQ/TTqlX5Lv3J0nk2/HRxk+XcZCYWBCCIw4NAavPF3Xx3AdH9YM7JrTZsaZ9Hya5UofxfD7FT12f++iGXVPwf2LYXyKdFu8+1JueY9Ce4PQ+/pr2uz2ZTdQLNVbnnNs3Rx+lnM233xV3CXlb13721tu/GloXLhV1KKg5B3Ft85GBGjPbHX1Wnbi+p37lw3f7cMIjc47n0g4VtX+/cquRQRh579096PvHSqK3+0zvPs08iuA36GrfXzf2B8igrTl4D/Ps698bWcpZdXXx0dX6k6scF20al9ixp1NK+dqV5oxO9Lod+CyWE331X+ODNYvfeMZ/kijuP7zgdBZNgSxODI2t6JTw7L9QyPDydrKU45vcrS1dhD4nEh9262klZ2FR1a6aY8U9wuNxIakbzJK01n65vyOlbr45b4s/GpGxlVPs/3HFh+IsQ+NXguWRe48LHz4qqyxh2To1u+ZK+cZzI29pzY915XCa/6yI/G3vld30yxXk3PJf+BKblFaPIEABCBgEpjcodHa1TfuXRPN0Z8TjLvVTHUjCMI79hnFsd1Fwnk+1oSty9aYp+1SNcPfZp7mWIZSSfIzXxU3SoyhkSAI/7V7Chp7NNr7yFMUx9Bkd8Wr5M/VwwmNVe8y6yRKmmVJku/VnFTJKt+nLjPsyBs8NBKEs/vih9/q5WqKZTmG4ViWZSh1b2PxxXWmM2n50Khpe//hZ59CwzD8LY85ltEour/fNevX28Zpy5nHzb0qmuHfpWj+7smUWlmeZTi98BdHGok5G7PK2ilGu3hGmm28jaKd28FbP9QsR8rbz202bYQsiPVPRhQaCcLZbev7qh41yXPzdWdYhiZ7az8s1Z1kO5zQSBDzj99sl2przXEkzZLyrjc532R/dKSRsF4Scba6R60rBt3yXletRVGprRKFtnQcR5L8fRpIVeePR7rzGscqNBKETcjGSz+be0ma4Ruf5iFIlbwu756xq5a/EBr5Ki48mqSrIH+Lb30F1T2VT3TXGtqvv1klVvArBsdRNKNWtH9KfN1pGRod9j9p0wZCjtR0ld5ZNpPv0nTDhdcdcu29sRmOpWmVtL30c17v0KenasUXHL7RIpGTNGtent6aZ4Y7jerXNtMfK+t1x591qvjbajM01fplK2FlvS7+Fb90jmNYjqZphaT+26tSeb/QSHbnfS2VyNW0drXjP03K3tIn0cY59wuNfM/1J7IbevUaHEWxLEtrVOUPrg1x0rZxbhgYf4ERh8aIOxUajml4PHj/RoK9V6UkI2/+uDWE34u2cHtqTbdS95XLMTRDqqo+vP/8sZ4xu+WGYG5oVkmLWvtBorVbnr7m4vsfPg+nI5w/DY2Eg+/RpHc9/KeP5bdetG5LJC/OMGyHhhEaCYJI/tCg5HcQcSxNUZRG2vj1YV7rH4VGwn3Ti5oe7WaFJmnmcZxuFViRVdKp1PAbO20B+S2VrL38wGbdx2jMQiMh2JBd2WVc+pN4gpgV+aKiQ9cKJMPRpLzyTX6VfJBrGt98rFdqKI4mtdUn5X0NomPGHxj9Q6OdV+CVnHKZiq8Rx7cuyzK0St5wx9ew+7H/qj92odF0TSjHb5sojbyvp/hFwnLTmfn8svVHGi1G5n+cNObfMvwy6F9EPIcABCAwqMDoQ6PP2shzNzNuXzi6TjCKh5vAw8Hhj3d5Obi6H7uYLBJdiTTFK8tquq2LFYqEl0/6eGr3szp6r9h27HpiikgkEqUkxh2LDHCddzD6ekrihdVmfRl4Ltpw+kKiMJUfK+Hi6VVBPkt3nBClJp/YuMx0dqjFcjyOxJWqOe7LTfugdfsuJQpFIpEw+frZgxvNrzH3W7TycqLwRsz+gV162HvN3n48NkFbLpEw5Wrs8ZVzfc2v9NOFxvTQZct3nriWxM8/NfFq1I6Vbk7mY/FnNS7YsO/yDd2MRKlJiTHHdgW7GUq9fp9IJIyNHHAiL0F4hm6J102VcnWXqRsg+y2HM3s1nLj4tsXFlBZ11z1ZGy8S3Yjb5mt2ZqGT876ropTobWZbMDvHsEPxQlHiQVPnOFaeM0OPn7+UwtdJJEpJuX4xOnx5oIPuqGbg4pNXk5KvnTZusbULW3QqQZRy5fRMH1OOnbX24KUbyampotSUxDN717qv2J4gSr1yOsJsFItCz168/EqS6MJhs55d7T1W7jyVoC1GYtwB49jeS7dFX9avDMLkxIvnDuuOTfE9pTpsiEsSJZ4376DdJij04A2h6Ax/r3rjY9auqCupKQkbh9xEe8xfe/ZSgm6tS026fvbgFm8309FzO/v1cUmipPOWHbDOWnDsSlJK4tlfzdjOfs8Vkejy8aEOhnmGbj1nWK4wOfHSuSMrtbfE5EtvZT1rxU7dipGSdCNqa6itrXaGUabVwcraZuW+s4kpqSJR6qUTEfqTrB091+w+pVufUxIvHw5fsnjR/utC0dXj+hRsszdOJEo4Hjzwo0B4hESaHJITL0UfWTXb8HvXKGo2YCfw23Y8hl95UlPidbc4d/RcveukrimTrl/cu8I3aPHJRJEoxoC39mSCKOXqnqAFS7Yeu6L9tIqSb5zeu8HbzXRWmpXVmtgk0eUTpg8DQVgFLNsWdzVJu6aKhMlJF08dWjRk2cyKicHxFhhxaNx1Pkkkun4g2LQyWBTdecnphJTUG/GhQdqTV21d5q/be/m6dq0QJl2LPhDs4b1pd3yqSLTLrMczt8DQo+ev8Z8SkSjlenxkWOCCNduShanxh8J/dQ16wJxjN0Si+H2mk1oJwmvjzrhUUUKE+Vo5Z9WlZOGN+MNBphm5LdsRdVW/OREJE6+fPRgx09awpdh2RiRKOh22yLx6PrN2XEkRJZwyXRju7DF37+kLQv4rVZh48fSa2fazj10Sia7uc/rVZjrw0IWkpKsnFxtPZicItwVbYq8n8nUWJuwwnC3g7D5n78m4JJ2FUJhwJX7PhkWu+lp6rt8WKxSJ9pp1q0wQi09dTU64eGy++cnCYQcTRcL4Q2H6m2hatJD+idv8zbHX9EvfqfumnxF6LO6GbskXzx6Y57Py5BV++xKiPXnAxdv/1OUUUcLplYLAPafiDXU/tzXMfMEuyzefSk4V7TffpeA2c9uRGN3PCpFIlHjt0qHI5Q52BvD+ZZu9PyYh+frZUN2xVfcZEbHXRaIL5vMjiNn7Ym4IEy/z90Ya7OHs6XvyUrLui0j3f2pK4uWYk5ErB/lGFXj7xdwwH1ckTL5xZv9GX/1WdrAF4DUIQAACgwmMPjSOIimaTTqy0DhYjf7Ja4bQOKD31LEqjSE0mn6sj9Wch5iPtaMg5lklxcrenDQPv0NMBJTOaAAAIABJREFUgbcgAAEITAiBEYfGCVF6FAICEIAABCAwwQQQGsekQaZiaLSxnzn/TJ2UJRte/OpA1pjYYSYQgAAExlwAoXHMSTFDCEAAAhCYzgIIjWPS+lMqNNo6OG09cvb89XtFHWq1pDbpsL7jjzGRwkwgAAEIjIMAQuM4IGMREIAABCAwfQQQGsekradUaHRyn5FTx9+yWNlVfe3YRif7X12bMSZ0mAkEIACBsRdAaBx7U8wRAhCAAASmsQBC4zRufFQdAhCAwBQVQGicog2LakEAAhCAwL8RQGj8N+5YKgQgAAEI/D0BhMa/Z4s5QwACEIDANBRAaJyGjY4qQwACEJjiAgiNU7yBUT0IQAACEBhfAYTG8fXG0iAAAQhA4O8LIDT+fWMsAQIQgAAEppEAQuM0amxUFQIQgMA0EUBonCYNjWpCAAIQgMD4CCA0jo8zlgIBCEAAAuMngNA4ftZYEgQgAAEITAMBhMZp0MioIgQgAIFpJoDQOM0aHNWFAAQgAIG/K4DQ+Hd9MXcIQAACEBh/AYTG8TfHEiEAAQhAYAoLIDRO4cZF1SAAAQhMUwGExmna8Kg2BCAAAQj8HQGExr/jirlCAAIQgMC/E0Bo/Hf2WDIEIAABCExBAYTGKdioqBIEIACBaS6A0DjNVwBUHwIQgAAExlYAoXFsPTE3CEAAAhD49wIIjf++DVACCEAAAhCYQgIIjVOoMVEVCEAAAhDQCiA0YkWAAAQgAAEIjKEAQuMYYmJWEIAABCAwIQQQGidEM6AQEIAABCAwVQQQGqdKS6IeEIAABCBgEEBoNEjgLwQgAAEIQGAMBBAaxwARs4AABCAAgQklgNA4oZoDhYEABCAAgckugNA42VsQ5YcABCAAgf4CCI39RfAcAhCAAAQgMAoBhMZR4GFSCEAAAhCYkAIIjROyWVAoCEAAAhCYrAIIjZO15VBuCEAAAhD4lQBC469k8DoEIAABCEBgBAIIjSNAwyQQgAAEIDChBRAaJ3TzoHAQgAAEIDDZBBAaJ1uLobwQgAAEIPA7AYTG3wnhfQhAAAIQgMAfCPzPP2DWRPjnJvDAPwhAAAIQgAAEIAABCEAAAhCYaAL/mzHDZyL8cxN4OLu4OTg64R8EIAABCEBglAJuAg8XV8EoZ4LJIQABCEAAAhDQCeD01D84LItRIQABCEBgUgjg9NRJ0UwoJAQgAAEITBYBhMbJ0lIoJwQgAAEIDFcAoXG4UhgPAhCAAAQgMAwBhMZhIGEUCEAAAhCYVAIIjZOquVBYCEAAAhCY6AIIjRO9hVA+CEAAAhD4UwGExj8Vw/gQgAAEIACBIQQQGofAwVsQgAAEIDApBRAaJ2WzodAQgAAEIDBRBRAaJ2rLoFwQgAAEIDBSAYTGkcphOghAAAIQgMAgAgiNg6DgJQhAAAIQmNQCCI2TuvlQeAhAAAIQmGgCCI0TrUVQHghAAAIQGK0AQuNoBTE9BCAAAQhAwEwAodEMA4MQgAAEIDAlBBAap0QzohIQgAAEIDBRBBAaJ0pLoBwQgAAEIDBWAgiNYyWJ+UAAAhCAAAQIgkBoxGoAAQhAAAJTTQChcaq1KOoDAQhAAAL/VACh8Z/yY+EQgAAEIPAXBBAa/wIqZgkBCEAAAtNXAKFx+rY9ag4BCEBgqgogNE7VlkW9IAABCEDgnwggNP4TdiwUAhCAAAT+ogBC41/ExawhAAEIQGD6CSA0Tr82R40hAAEITHUBhMap3sKoHwQgAAEIjKsAQuO4cmNhEIAABCAwDgIIjeOAjEVAAAIQgMD0EUBonD5tjZpCAAIQmC4CCI3TpaVRTwhAAAIQGBcBhMZxYcZCIAABCEBgHAUQGscRG4uCAAQgAIGpL4DQOPXbGDWEAAQgMN0EEBqnW4ujvhCAAAQg8FcFEBr/Ki9mDgEIQAAC/0AAofEfoGOREIAABCAwdQUQGqdu26JmEIAABKarAELjdG151BsCEIAABP6KAELjX2HFTCEAAQhA4B8KIDT+Q3wsGgIQgAAEpp4AQuMkaFMnV4GXl6ezo/0Iympr7+jh6eXp7mo3gomn7iR29g48i8B56lZxbGpmZ+/q6eXl4eY4NrPDXCAwXgLjEBod3Ty8vDxdHfDlatGojq46Fnsri5fxBAIQgAAEJrfAiEOjx9xFaw6dPBenfcREn927KdRXMPKHm8DDwWGEP0znrd1++vTp0ycOrXR3Hdgazq6bj54+fTDcc+Bbk+WVi89LOEopits1ggKH7DzZKqNlNdlrRjDx1J1kzZ4TXSqutzht6lZxTGpmu3Hv816K6/xwdkxmh5lAYNwExiY0OgoWrtiy70jUqVP8Rub06dOnoo7t37neX1uNM+/bOUryYv9mpEbzZj35qpGjpa+Obh3hFt18XhiGAAQgAIEJIzDC0Dhv143cyla5hua0D5ahpO1V96N3BXiNMDeOJjQeuPeNLwWjqX14aiCsf+ALMcc1v10y8K3J8gpC45i3FELj8EgRGofnhLEmnsDoQ6OH//IbWZ8aOyQqkmFZ3baOYxlaJf9xXFtfhMZBmx2hcVAWvAgBCEBgsguMMDSGppX0dDe8SDkWIhAIZi44cuuTlGLp3vL9YUEjS42jD40sy7Jc94MIZxvLNkFoxJFGyzWCfzYWoTEivaC8uex2WNDA2U+ZVxAap0xTTruKjDI0Orouelol4xhKIW789EgUtWuFjY3/ut2Hr9/OqWj8jtA4xPqE0DgEDt6CAAQgMHkFRhgaZ20/EblmoYdZQDzyqJ7k1MXJYWav/cHgaEMjQza3tEhVdF/Vmw2zLE5SRWhEaBz4+RyL0Hi+nuOk9XcRGgfy4hUI/HOBUYVG/8WPy8Qspfj5Im39bNtf1QVHGgeVQWgclAUvQgACEJjsAiMMjQPj4OL1H/o4ruXtioFvDeeVUYdGVX5aRvbXZpaWv7uxz8NsK4/QiNA48FOK0DjQZLBXcKRxMBW8NhkERhEaXSLis1UM21GctdnfdYjeXBAaB10REBoHZcGLEIAABCa7wJiFxtB9X+UcVXl3+XAi4sBxRh8acy8f9Qq7UKdi6K7SXYv8jA0zMDRaWdn6Ldx481WJQkXqrlNRdNY+vLgzwK3fma3GeRAEsb9Izmna8sJC1sQ/KexV8RdzUrLOp1d2+zhaG8ezsrabs3bfh4p2UnuxJyVre5l8MMDRzvSzw8bBb+7OnB8dFM2fTktKmp9f2+bqZOpGwcrW3i3syKvSZrVuDvKux9F703J+/qYjHGtbZ7fg2MyvHTI1f+0Ny6rE9Y9O8OdN6jvCqX2xOyT8YUETXzCWUfY2Pji90MFYLlv7eeuickqb1Npys6Sy+mPG0rkexnpdL5Rxmvbbq8PWxjyq7eEXwWoUpc+vLvBzMo5DWFk5Bq5KeV4i16FSyrJnl+Kj4rpVXPd3kXE0W3unpYeTa3vkNMPbKzorrh9aK7AxGRrHNA7YuXpvOn2nuk2qayxKKS17fkV3TqiVlY1P8Jrk7O9yQ1OqehqfXNsf6G6228DKynH2imtPCowFq3iTGns0ul9HOLb2TqGHEmu79QVTdlUmHFnvbjvYKuHkGlXUpb/CSfeHpYrTorV9Y1jZOc3ccy6zxjAfVt1X/i5txYIZ5jW0sXWYu+bIi+JGte6qYJbtritI2BvqbFoRjLXXDzg6X6pTcYqKBx6+W54UdZA0x7JM7dfbK4PcbFy9dqS+6ZTzawyp6iu4e8rNsE7aOzl/6+K49k8Ws1u57WOHglL8PGx41crGzjV4a8anGrlutWNZSWNRdOhcgjCExo/RC9cf/1yjrTVDyhoLYkLd7MyrZJgV/kJgggiMODRa+YVmFHayHPPgXPDQddGHxqM7lh29WdahZFiOo8nm4mcRoZ6m73zCafGu8x8rO9QU/2VBq+U1r68ucTF8RIOX32+Qclx9nHfwubu5EpL/WlTLOt5eD3e2N33ArOwcPdZG59eKSYZjWU7VVSPauereDymn7IzavdpQSGtHN4+Tmfk9CpJjOYZS1XzJXOlr/lVoGNHw18raxmXOhsSXP6RKbeE4TtZeeSM8TPvtaWVr77woIv5TRRtJ8Zd0spSm5efb6LV+jmZfroSNvWDJkWeFTWq+ZBzV15odtz3+XZNlRzhW9i6CXQk5LX0kv9mjqfaS51tnzjCrn6FA+AsBCEAAAhNYYKxC47KE4h5W1SLctGhgIBzOK2MTGglifdxHKUW1frpqvNBsYGhcvPNycYuMUvaUfnyanp6R8ejFj8Y+ipKXPzkT7PKrtuJDIymu+1LX2lWZ99+9jIwnHxr7SEbZ+TjKuM0m1h5Oq+1Va8T1H/7LyLj735fKDppWf8uM9nXRpQGv1cczmxWsorvh9eMH6bfv5ZY1a2j1z2exgW7a5drYLz6UUCNWU4qugtdZGbcy7r8p7Ohqru9WDBUarWxnrz31qaaXoRTV39/cz7x1J/NeXllNgYjv+0cXGlU9VcUl9eW5rzLS7zx7U9SromhVl3B/iIOuumv2fuuSyzqq3z57dCs943l+tZxiJOV3Fxow+NBI9n79WtfbVf2ar3zW9wYJzaiqn5yaYRjHceG2Z+VimpRXF+TcS89If/K+tkPW1d2ipEyh0dbe+UTKW4malDaXvrifkfHoeWmrgpS3PY5aZ5hN/7+Oc1YKv9QrKU179bdnGRkZtx68/FLWUflivXbEoIi4b01SSiUu+/wsPT0j/dHzknoJSSkrX8QuMDSlQ3DEk7IumpTXfHvFFyzrXU1HX3d3s4I09Z5qY+d4POl1r4qUtfzgC/bweQlfsPasUxv6F4ggCDuHFecTMzIKpRynkVa/fMoXK2bHWgFB2HotT8ipUFKkuObb0/vpGenpOQXlEjWtaik4vlq/I8Paxm5b7INmqYbsa/2c8/jWrYzMZ+/qOhWMpvdzcri/vkn6L1YXGtWtZcVt4qK3TzMzHr4vaVEzdEf+reicWnFH/bvHD25nPv3RLGFYsuLuToF2BsMKjdY2y49eL+tSsOre4nfZ925l3L7zorSqLHPdUmNolFa+LKxv+fYuKyP9Ts63agXJ0H1VUSu8+5cSzyEwYQRGHBp9QtZ961BzZNUp077HwWvFh0ZaUVpc29vT8DH7YUbG46+V3RTHdBdnLnIwRithA0l21Ze8zLyTcfvRp7JWhuXqP4gW6XbK6UNje+mL8obK/Mzbt+5nvWvoUbCcOudyuH6/nYNgbezDHg2jEjd/yn50Ky3jyeefPV31Vd20eWj0WxjxokLMaGRVuS/v3Mp4/K6gS06q2/KO6Jc0SBXm74guaO5jSWnZ55cPbmVkZDz7Vl757GC4A0HYu/mevPlOSjHyjppXTx+kpWU8fpPfJlGz6s6HZ1d46DZoNs4L9yXW9VEaeXfBq6d3tOO0d7eVNynMQ6PbnNXpec0Upaovens3Pe1R1qdWiYqS1FwKDxykTHgJAhCAAAQmqsCYhMbgowlfFBTV9Dk1dPYIu08dq9Bo5744Oa+dpuWvY/T3mOgfGr12fu5S07KmtD2bAzy0XYLbO88O3fSwuJOh5S9i5v+ipfjQyDJUZ6FoUeAM/veAo/vK8McdJEc2PNdPsyDqp4xWtuUfiAhxtycIG3uv2ev+q1FSvRVn5wcQBDFjxd6SVoVGWnVlW5Cbva2VtY33gh0vK3soeWvsTj7kOnsufl4lZaiuJ6cW+bg5WBGEjZvv5jOJbTJqiNDo4OZ1O7+dZlVfhZFzfN1srAkra5sZs+bNn8kfBtSFRpZUfs2IW+TtShBWTm5+Z55851iqKitutu5I4bodjx7ELV04R+DI/xZwnh2aWNDOML33t+gx+NDIspquwpOL5rjxlXcIXLbxW4eG0zQm6pOle/zHDpKWF98+MMfHlf+55Og+f8XmN3VyjjOFRvctN5tVjKQ8c2lwgLMtQdg5z11+8Fu7RtPyVhcCB+AHnLlXTLNU9RvR+vk+2sLaunjNWrJoHp+yPba+71DRitY7h7fO8tS+aec8c9Hq29/aaVrx/pKuZO4xHzpIWlGceUhfMAf34OXrX9XKOM4UGl03pTapGEnF3aXzA1y0BZuzbH9+u1rT+m6w1Kgr5iDXNO7KLFcxVOPbK0vm+Oj2x7v4zDly8UWvmumteLhMO53TvPNlfSTVU3oudL6XC3/vTStH98XbzxW3y2llR/x2XWf+/SV0oZFlVIU3w/0EjtaEnUdgaMbPHv7IhUp8M2qZwN7Wyspx6cH4uj6KkhTtm8nPYTih0c5xx+cWFatsSt8Z4u/uZEMQVlYuAXODZrs6G0MjrZE9urbdR+BAEFYuvmvvfmziWPp1wmGLq4f7FxnPIfAvBUYcGoNXbqqTslzHh7DfFZ8PjSxLiisurlrkwZ8wYu8VuDi7TsHRHY9W675bCYK4+eTp1dXzAlysrAhrO8+ZR753k5qe8r3r+I0CoQ+NdMu3/7YtmmFtZWXrINh08Z6aYnqrcjb9n72zYIui+xvw/6vM0t0hoDQWNgYWBnaAhQGICkgpHSosDYJIl3Q3LB1LbO/k+RDvO7NNGIiPqIfruR5nZ2dO3Gd2Zu45v3PGhd7EfveFL1MiCp9NvuVuyYSlGFg6+kfnSXFKJY0mO58XdRMUqPtwZ5e1MQtB9MwcA5MqUILszJYFQaytzKlPYyJKOpMT4ONoRZ/2EMTQbqebi6W5FoJ4+CVNiAh8rv6ul7MJcy7TM7U5/CCJvnhONl06QL/CynzX3tK+JQqIC1+esDUxoDM1tTnyMGleiqukUdf6TmKthKQGymL32ptpsRBdfcvzrzJFGMmpS/RSQlpbOrgGEoAEIAFIYJsR+FlptHJwD0is4KM4b7ot8KTD93QqrrvNVkkjgiB7Lz+Zojufuu8fpF8uvEoaHWM+A4APFITu0Hivu7bPnTiuhFrqzt23fgsx0ijihHvtVH5vZL2jZEwCRD0P6FVadz40AVLaGPVAvf/FPqhRCCQd0bsRlsm14BohQY0UBipTQBDkeGI1IKU1r+9ZIIiNS/YCSc1WymbmU261O61+6ivSaLXr/SxGLTZHKndQX5BJo3S5O2CP2mq/FD6gZtveuNupVuroGRiZmJiZmVtY7goK75EC0Jws/5aRRlHL6/2qrQ3MHxSP4UD86RGzTu/pCAH4IyX7nNU9wsD/QZmAUEqjdlyHkELn0g8puzDpu4yA7CEM8IuvqdJWLmkfvPJlRojy+++t1yoOL/MBIEfKXrvI+mnlu2kd9H81I6REIx/pez69oGECCEbLDriqF0z//N1iHq6URu2YdiGFzr87qsZI1/hW1iAG+CU3lMVZtbBGGrWvtQkBPt/us1dT/Hb6Fg3QPQCR1+gbM+/icUAJakMOayZnGJDeBCiiJfmZreYXsk9yaVxoPqT8lqV/JaxdAoCwM9lcudLldMnQMoHOPfelV32PNFom9RKUuP3tcWUaagvy8FQpp1j9BvpUdDGgyN73L1Q/BrV94CIksB0IbFoaPY6e4QgAGC+gn+h89Y+WRoD2fbimHrF5PKUXBdLWKLULDK2CBsbGpubm5haWluw+IRDPBfofodOWSyOZHqj+JuGbHTxMvNB4xYcOjz94rmyFoiYLFM/w5EU6WTMtUUqjw76TXQsYxW+7rF7gvUEjInxl5NNZRj7Vv0EQRD+iAQdoH/vWulHxd+pnAbVU4CcLWVDuahZRvwQwXv7d83oI4nXk7awUiFsjlF8zC2aJrctKaTRw3V84xgfkZOhu9a0u1M+JxfOt146uF/+vviFchgQgAUgAEtg2BH5GGq29jl9JregTiPn9tZl3jzuua4PfuXILpRExcAjM7SRJrCM7wtZId5U0hhR2AUz4/tml1TcEx+90LEqEk3UaF11VO8nHNO5xUVNCC7uw7kUApt7Sm7km10xQuKS6KCVI7e9VZK8QgPHS/Yih1cOCERyg3UVqXwcFBVX1AoD1JYQ4IMiOjD6c4lVdUXMqpgBff0+jXUYvTglqAzSuycqCy8c0DhfLO17lX7zkALAynLybiQ/SNbU75X83if2ppXd4Zp4nRQmSHp2jKY3obMYB9W5Y01tPOyQANKcwKT74IAXESH64s+brnE/cfKI2pvFEAxcQ/ImkuHA1BCG5JVMYAE0MRGWxZQsH/B/MCEle9ztNCZNvFZTVCAhpfvgNzTwR5JB/3axQutR2E0GQexlSQIwWRrpqbqQ5EY5PHRcQgqnkNxFqBQvOLp7EAGhNWFUo5cc10ugTywXUfGvyXjUVZ7a2jSrupQhpSjAdhftugKD4Y3cPrRkudT8dA+QYO2bNF3QaijGNWcrsEUT3zM2SFRwM5am/g/RIZu0cifFeX6U3/B5pTOiWAtHEU591jx/FmMbqp2r5Isiz9wBQ43lvPDXWwg+QwDYisGlpdDnkO7RCAnHH9W/VRj6m8eYZ9cHIh31r6UGKBYr4eOOdZwODU4sqO3tGuUsrUpSgh3OvlsbJ5+oPtRDfimkpzuPcOUdfC04UjxAUt8hbkaCiVGldqjGNu4/EzkiAdKJK7QwWFBSUNyUhRHONVxg/Vewn//dV3RyQct/eOLGut5VyCHKh/YCpmvrK9ouqx4Gk/dE1IwQ5FNoqBtK2SNXod9km6hPh7Nx7tH+JBCv9LzVKlta3iOI8TuD5dc92q0oKP0ICkAAkAAlsCwKblkbLQxeCm0eXMMlSUezDfbtsvlMON9psK6URQXRtDpeN44RwPPmK0yppjCzrpVB+zMM1UYf7rzXNCn9CGve/+zKrMTmK2oepyv2IsfWTynFmdhu1L+SL+GDicycEcSgZB9jcu33K8ZjyQ+Tr0mhfMg5wbq63utGpjq1vS6Ou0dnwolkBRoi5HVX5SXHP/Y+di0sbRn9IGl8WAAprT3iyahCQpjRea6VjQtf/a01VlVm5dPzGY64EzNW+Uq5RX3ie10ThktTQ8+or6WUvv8pxvlwaw3IBhXcmBzOhYKoNNaXxSsvGBetIV+2lubRGGi8nCAA5VR3nper4k+8Rkl1PS2MIfdTlcwC52HfSe814nkvxgk1JY/c79XIx0oiLYgPold8jjXljgFweOH1ovc4I5UQ4UBrVGcPlP4HApqVRz+NoyZgAUPzYNVeJVfX+Dml0eprXuSLBxdzxL59zIl8GXT5ztHRUvEYax4I1ktaQxlN1MwDlxKzxN3Vp3Hvsw7x8WrfVJ1jxQuNVzUeGsqxSO1Yo4fT9S7KoeY3s/z/2v3oG4JM15iaaD9sQBHlYJlJI4+GMXgzwyk+sPt+pS6PL/mMjvNVFkn0m+JP3LqoFd6wuAvwMCUACkAAksL0IbFIad3lfb5lDcQEn6ZbrRh74Q+u3VhoRBLE7ljolJbGJj76eJYsATFbIe2OCCroBLma/uE4PGVT70z3/oG8F5Y+WM2F9al/IF7/Z0+icWD1OSldi7q/3UJfuKrJ6mD+MAXFxoGpOvFXZ7Mgfo4Cw4YZ6xxGCaDklVo59JTzV/t0ABYSNt7xXpSb7+E1pNLKwqZyQUvyO28ruPJbp7eedq8NTv97TGJpPAWLkfYSzljpWvfP3PqygyvDUY7VcCpttOeK5bgDmOsU/eCVoRkTxerJs1nsYHpj5BZBocWygoXqeCKJz8mYLVyKZr/dDEORZNgnI8Y9x7hob6Z65k7GMKsNTj9YsUNhcm8+eVc67TpHUVq2RxmPRCxS10J2xz1GzibV3J1WMU7g4/iHdskn9JBBO3j++qj+ZpR+WAwDR/z58jU3SeX6lp/E7pLFOOSkHgiDaRy/Vz4uVs6cm9JFANPXo5Lp3b7CnUa3B4eIfRWDT0ogYuIQXDZAA9BfGOOpo/pY1CXxbGk+HzqHE8nDFaTfl6D2djB7BD0njycppCiwW2WtGimp7Fg2JlOGpXkeipsVA2PLya8XVLHx44xKQLsbcPrXeyRUpHCPBcu8Rq1XdmyzDd52AEtY+8DdEkMMJ3SiQtsetiqzQjaybU4anOu492rNEAU7x6tAezcLAT5AAJAAJQALbn8DmpNHuwecZVDSdHHTsh8zwKxtvuTTqGFm+zOuWksREXQMXV0mjw40sHkXOt7F9bFSBNyxd49uxpUKcHMi/szrURt6G35RG5EhcFUlKa9KfWChmU9dsfoPz97NXUGqg9IrtBjNk2pzPXcDBYkes2iSuLJsDd9tnvzZ7qtWxlEkJEAyzD62nPN+URlMr245FgA6q4h51TfYmt8wTP9TTuCd0XApE0w03DqjCd3UMHeKqpnG1iXBulS+Qkrm3t9THx2lC0vxk6n2pkZ7ndjL6nPPaew57/5QViuJ2F55xVA1qZGnrXQkv4KHkeOk9Kzpq+MmIFIhmvtw6pJznFdE2sIuumMLVJsK5XjZPSuYT7qwaZ6hZmtWf1kgjsr9gQkIJJyNuqz+817I9dL9lVoQt9d1mOoP3vWwVUeho4TP15tIxd0msHKYIcU7wiTXP9umMNyeNOgZGhWNSIBx5ouxHZGn7PEjgSuj3lsteubE7rl1MoaNFIcqHBmoVhdKoBgMu/lEENi+NCOLm93xCSKD8ybSX/tYbvxDo29J4N0aIk+PlycpHMuau1zu42A9J46HgKj4B5hsey+cto1tB2/Fs5LRUNXuqhceR6gkxWGo9vWvd88c6LbcrrEpE4VPVbz3UR2QqNryW0S+lxD2JfvRZVPGnZ3/o07AI5429OO+pjSCeh97MSIFohL1HddZHzNzu9C2iSmk0cNjD7uJS0omX+9Q2UiQI/4UEIAFIABL4gwhsThpvtK0A/sh7b89NzpW61h63XBoRRMt8f0DrjIgipDipkkZEb8frpnkCF4/U5Nw5xgQtWroGRheNLEtxbsutHWvdRNaa35ZGxOZy4zyO8ifLM54fd5LtZX/8xuOEt7cdmMul8Z5LteN8QjxfmfHyoCUzhMXM5ti1kHcfYmTRQ4aWewqHeBQh7C6OPuJK2+uuowEf24b4IuIrPY3aRjtffhpBSelEC/sA4980AAAgAElEQVTeGTdDXURbz9DvaeSbe/Q0Jd+URmMLm5opFEinkx+csEAQc+cTb4q7+VKC+iFpRMyf1swRJDrdVnjvOD1xp7nzibii5kWhlCSVPY2I6Z4XQzxcNN/94dV1d+ZmREfP/eqzmNSI1RG58p+QnumlpEqcIheHW94EnGH2MDlwLigzPYLus9O1e9EwSxCSsfqC+ycY4hbOtyPyBpck+GJHgKOsKc2DqmYJEp1pL3rAbGO+yyemsGlRKCUIZU8jYuwZOsjDRQs9meE3PZhstHXdrjyNTo38yqi9mx1iQCx1h5xlJiplSrzL/8OMlBLN9WSGXtzBmKz7hUdlbdMYKWl5e1w2aknXYk/B4AqJ8jry3pxkMtNxPBjBbliU4MKRj8ct1TsF5Rg2LY0sHf0A9gAKCG5ryilPKwQxO3ArqonDJ0iVNOrY7M5nytNZEO/n5UDP+6vtGhQe+9hL7T2NG4ensrR1LkTk1teXBKubsqrgcAkS+D0EfkYaER0zz6dliwSFi7h9NQXhQVf321qykJ2Hz10MepVcWpXrz9Tp29J4LmwBJcSz/dH+ntpaiLX3xazGAQlG/ZA02nj5NU6JAC5oeB/sYU+fRfb6Bdf2TwhFarOn6tsFpTfhJMFpK3hyzpXpHzVw3HM2Iv3jkysb8Dfdlda5SGCC/k8Z1w/KXNPp7vPY5ycO6CKI3X7/phkRKV2sTgnx2kFnarn3fHJ5j4SgRireepjQ3ZP6Toey+5YpStJTGnt8l6UWgtj5BBa2DfP5mFIaEW3TS68/Sghqfqgm/MYxPdrAde13+Tx9m/XqgWzyLatnHyoaP2WcNP5e3d2gPnA1JAAJQAKQwK8lsDlpTJhef5ACAGA6aa0RfseaXyCNNLgDkZ9wekoXNWlEEBMr78LOaQlGUBQg6JekA5LABNPdEbI50NcH/h3SiCBWB8N758U4PYsMRRB0+iSBzXbGuik6caz948dWZBsAgGEAUCSBLQ6X04GU9J/2br+Q4XkhwcxDg5P07jMdOYWdo1+RRgRBjHef/dQzi+J0joCkX9NMEqK2BHrK0W9KI6JrciW+YYWxRJICJEkIuZzOhgF6khv12VO/Hp6KIAamuwu75zGm6LJ0REtjlZ8zuBKwUK+YXk/L4OyT/Fk+yrwrmsQJClAUgUmHSr7SxWf1vHSUL8UYqAAQNLKVwULZyzH1jT1y2ibFTFOSJKBIQBG4YLY/9pyrnCiC6Bt75HfN0++nBkBWMPHyeFVZ6oJEJY2Ilp7vo9wZVcHoV2gTGDpcqnoJpzJB5cL9knGUntQCYCjenvyMbmQd/XPRFfMCpoIkCUiSokhUvNjBDlLuhSAsN5/AtoklGSucbi4awvJwzc1VIy/V9tlcTyPd1epzqXuaTx8ZFIkTJIlJOrs7xhdEyp5GBGG5Hg1snViRlQfIyiOefndin/KVG/MbS6OOnkH1FEEBkrPuBLhqVYCLkMB/SeCnpJEp6J7H2SPzAvp3wVxEmIseRZ+ypf2ySaO/LY2I89vaKQlz9gIYfXZaGq74PIL+kDQiiJ7Pg6RFgZQ5vwOMoEhcOlYXlzMoAsLp+5cVT2ssjuV1zsuua4DAcPp8SGISUYb6uUezAezcz1cNLqLMuREQAFAUKV0sun2WCYXRO3Y3bmJZhDO1Zy5WFI5KuD1FZ1RBG4jrlRDOskh2wcIw+oK11JMf0agKT2UydImpGBPT2dAccZzOB0fFJW8uMt9GclAKkLyqoA2ifDTLDD9BApAAJAAJ/C4Cm5PGa/Hsjf4Srn+HIq7d5Gek0fv6s4z0lCdnDqniTVU4vZ7FZ2RkZEQ/UA8GRPRtXK49iUhKpb/KSE+NexV0zNVu3aEdipS8Q5IyUmOe2qmP8TA0PRn2NiMj+oJiIwTRtvc4FRqVwKSbkZGa+ib88Ul3B/W59QxdfUNfJ6Sny3JOjX3x5OQetYswou92+HL4m8S0dKZgEU/27zQ5HfA8Iy350inNsY6qTJkla8+bT14npaQx6abFvHx0woUeA7Njz9GYxLTE8ABnje19X2dkJIRftpNN825kdzYgLJEpUtLb11cO7vQ+HpqSkfFMMZPsuZDEjNTYKw4a5fT20dgGQVhWjt4PX0Sn0iVPT3obefXQjjN345dRMFJ8Ry1zI6/Tt2MSZOgz0lOSwx/f8DJfNXJGbXME0dLRO+IfJN8lPT0pLvz2qd3KEUJ6lk7+j14mKprybcTTEx4Omr11LEuH/Q/CVAW7dtjWed+RuOSM+FBFDekMDb18b8XEywuWQRfs5m4LWe+gRnmUH3T0dgaGvWFaKi3o/BFFHQw9T6nSSYmPDfTzNl3TgW3sfDgo4q2suTLSkiMe33CzUCSgzEBtQVfvdERyRvJL9Qkdtd29A+PTMsKYiVIV2+68HhSbnpZ0XhUCrOd8+GKkrF7pyTHBN128vR7FJqclh6k2QRAL16NB4W+SmcMnIy0l4slNd7ozXMttX0B8WkbcI82ZNI5fy8hIf33LzxahXwp69G5EamrsNTgPoqIN4L/bgcDPSyOC6Fi7HXv0IjZZ/kPNSE9NToiJCLp6XOY3Pg9jM9LiA73d1a8dTm5BiRkZkXeUv3nbS0FRKcx5Jel1iM8u66thiRnJsYf2MC+ssXG6EUlvrvnGG9cHMSlpCa8PeCiHfxvu8b3z+m0yfeFIS30dcsfZxjVnUIivjN4+q/7Ds734KDwpRXZ1SU95+/rBpaPqr/JY2y6mjnsDw2KSZD/89NTo0MD9DpbKQeJmu8+FRCXQp/SMjLTk+OcBF2x01etKp2d76HJYTJLsivYmPOiAk+Wxe68z0hLuHfJUu/CZ+d4Ofiu74qanp8THPrt9xl4+qsDsalhCWlzofkMlsbXFhGsgAUgAEoAEfj+BzUnjWun72TU/I42/nyIswboEdE1uv+uRUnhDFHyEvC4guBISgAR+FYGtkMZfVbYtSNcjsI+PiWa+XD64wRD5LcgDJgEJQAKQACQACagIQGlUsYBLP0NAy8jUzMRIT5eZvY+lpatv5HgqbJgHCH7X/Z9JF+4LCUACkMCPE/h7pFFbx9DE1NhQXz6Tq5aOgZVzaHYrTlKjn95+ZdT1jzODe0ACkAAkAAlAAhsSgNK4IRr4xQ8RsC4YnB1qy09/+ejRo0chr96VNi9KKenKRE7IoR9KB24MCUACkMDPE/h7pNHtYEbXSG9DaXwUfXJ9FJlc3TUhIYiVkYaAo1+Laf95hjAFSAASgAQgAUhASQBKoxIFXPgpAqY34r8MzYpRemIYAAAhFXLaPz2+eMhcX3OA4U9lAneGBCABSOC7CPw90mi5MyCjaoIrZGbdos+uoqWpqvfhh93t1AYNfhcTuBEkAAlAApAAJLBpAlAaN40O7ggJQAKQACSwTQn8PdK4TQHDYkECkAAkAAn8WwSgNP5b7Q1rCwlAApDAv0AASuO/0MqwjpAAJAAJQAL/GQEojf8ZapgRJAAJQAKQwH9EAErjfwQaZgMJQAKQACTwbxCA0vhvtDOsJSQACUAC/xIBKI3/UmvDukICkAAkAAn8cgJQGn85YpgBJAAJQAKQwH9MAErjfwwcZgcJQAKQACTwdxOA0vh3ty+sHSQACUAC/yIBKI3/YqvDOkMCkAAkAAn8MgJQGn8ZWpgwJAAJQAKQwG8iAKXxN4GH2UICkAAkAAn8nQSgNP6d7QprBQlAApDAv0wASuO/3Pqw7pAAJAAJQAJbTgBK45YjhQlCApAAJAAJ/GYCUBp/cwPA7CEBSAASgAT+LgJQGv+u9oS1gQQgAUgAEkAQKI3wKIAEIAFIABKABLaQAJTGLYQJk4IEIAFIABLYFgSgNG6LZoCFgAQgAUgAEvhbCEBp/FtaEtYDEoAEIAFIQEEASqOCBPwXEoAEIAFIABLYAgJQGrcAIkwCEoAEIAFIYFsRgNK4rZoDFgYSgAQgAUjgTycApfFPb0FYfkgAEoAEIIHVBKA0riYCP0MCkAAkAAlAAj9BAErjT8CDu0ICkAAkAAlsSwJQGrdls8BCQQKQACQACfypBKA0/qktB8sNCUACkAAksBEBKI0bkYHrIQFIABKABCCBTRCA0rgJaHAXSAASgAQggW1NAErjtm4eWDhIABKABCCBP40AlMY/rcVgeSEBSAASgAS+RQBK47cIwe8hAUgAEoAEIIEfIACl8QdgwU0hAUgAEoAE/ggCUBr/iGaChYQEIAFIABL4UwhAafxTWgqWExKABCABSOB7CUBp/F5ScDtIABKABCABSOA7CEBp/A5IcBNIABKABCCBP4oAlMY/qrlgYSEBSAASgAS2O4H/7XBw2g7/mZpZwP8gAUgAEoAEIAFIABKABCABSAASgAS2G4H/2djabYf/TM0sjIxNDQyM4H+QACQACUACkMBPEjA1szA2MfvJRODukAAkAAlAApAAJCAjAMNTt3tfMCwfJAAJQAKQwI8SgOGpP0oMbg8JQAKQACQACXyFAJTGr8CBX0ECkAAkAAn8kQSgNP6RzQYLDQlAApAAJLBdCUBp3K4tA8sFCUACkAAksFkCUBo3Sw7uBwlAApAAJAAJrEMASuM6UOAqSAASgAQggT+aAJTGP7r5YOEhAUgAEoAEthsBKI3brUVgeSABSAASgAR+lgCUxp8lCPeHBCABSAASgATUCEBpVIMBFyEBSAASgAT+CgJQGv+KZoSVgAQgAUgAEtguBKA0bpeWgOWABCABSAAS2CoCUBq3iiRMBxKABCABSAASQBAESiM8DCABSAASgAT+NgJQGv+2FoX1gQQgAUgAEvitBKA0/lb8MHNIABKABCCBX0AASuMvgAqThAQgAUgAEvh3CUBp/HfbHtYcEoAEIIG/lQCUxr+1ZWG9IAFIABKABH4LASiNvwU7zBQSgAQgAUjgFxKA0vgL4cKkIQFIABKABP49AlAa/702hzWGBCABSOBvJwCl8W9vYVg/SAASgAQggf+UAJTG/xQ3zAwSgAQgAUjgPyAApfE/gAyzgAQgAUgAEvh3CEBp/HfaGtYUEoAEIIF/hQCUxn+lpWE9IQFIABKABP4TAlAa/xPMMBNIABKABCCB/5AAlMb/EDbMChKABCABSODvJwCl8e9vY1hDSAASgAT+NQJQGv+1Fof1hQQgAUgAEvilBKA0/lK8MHFIABKABCCB30AASuNvgA6zhAQgAUgAEvh7CUBp/HvbFtYMEoAEIIF/lQCUxn+15WG9IQFIABKABH4JASiNvwQrTBQSgAQgAUjgNxKA0vgb4cOsIQFIABKABP4+AlAa/742hTWCBCABSOBfJwCl8V8/AmD9IQFIABKABLaUAJTGLcUJE4MEIAFIABLYBgSgNG6DRoBFgAQgAUgAEvh7CEBp/HvaEtYEEoAEIAFIQEYASiM8EiABSAASgAQggS0kAKVx8zBZeobGJiaG+lqbT2Ib7snS1jc0NjYxMTExNtDdhuX77iKxWAZGxibGRopKaBsYmRgbGWprsb47ifU3ZLH0mIT11/9avpalY2BkYmL09Y2+msKf9qUWg8VQb1uUW0fP2MTEyEDv7/pxbgu0f0ohtqE0srS0mZOSoc5mILL06J3pPwO9TSWwmUzhPpCAioC2rp6xsYmxob62ah1c+jYBbfpe0dhAF16Ovs0KbrHNCWxSGi2td/mcv3b/0ZOnT58+ffLk0f07Zw55Wptt/s/UzEJf32BzsHYdORcYeOfsHpf/+AZ9R0y7FKDdyXs2V+ztuJeuxcEb0U3jPIwCAPALA7djGb+zTAYmFmVjEiDqDZLvcKFugcCWBm/v2/WdKWy0mbFp5KgEiPo/bLQBvV7P6E7JKA5m0r620V/1nd6ZjBkpxevaHjX2i+YDaqIo4S/6cf5VR8t/UJlNS+ORS3cCA2+e2rH2xniP/53AgCu+Otqrbv5MfS7dCbxzw9vJ9utPpOz3+rTMSoCw76HjjwLQczsVVN49gxIAAPDp7cUf3R9uDwn8PIEj9yKXpeR8y4cDP5/Wv5TCrfxRlBA1x7j9S5WGdf07CWxSGj32pvdz+RhBuwUAFIGJZwdbn106aLlZbfwZabyV2QJISWNEoNV/20Z/nzQ6HLnaMS3CRdPpL2/4+p7wsvtvgW5pbmuk8XTlLI5y+/z3Ov1kPlAa1wWo55M4JSaX2hLW/fa/Xgml8b8mvu3y27Q03v48RQKsN3HNicKvYJkEFK/npqHm80nTi01LGM4bfXDW4+vSaLv72JdpMeB3/vC1ys2/flaECxdyIh6d8fXd42K97XDDAv0DBKA0bq6R/bOGpISg4ZXr5naHe0EC24fAJqXRc29+deWHmz6OZmZmDp4nM+rHSYpa6v2wz22T3Y1QGrfBMWFw4X4BDwcT5cFbUhgjs2dl/ZNjFYe3JLUfTWSNNP5oAhtuD6VxQzSaX5yNKBicGMs8dVBz9X/y6QelkcXSepZZPzPbHfKflA5m8h8Q2LQ0HjiVv4gDMJSuGQOqFVA+yTwkFTY8MlEvv/b110KMXB4uOf3jHQnOe6O/jC2MFGgkqJ64bPnA40QxTk2Up+xd+x1cAwkgCGJifTW+dHpp4f2NX4gDSuNWwX3+oWWa0+Hh/Cc/mN8qFjCdP4rAJqVxTYfi6eo5HAjGbnl7rvnqu1ZAadwGh43R5YflAgK0pZhtSWEsrAu5AExXH9mS1H40ESiNP0psy7d/2cwHGDf79J8gjVraBcNiIB6E0rjlh8HvSnDT0mjnfbJtAQOS/ns2amU3PdewgGGYCJWClaYnal2NBlcjCzCS6iuMdFDb/DsXD52q5QMwVmj69e1PhaRIcao5J2x7jBj+emHht7+DgJVz1JcZEgihNP4O+j+cZ+kkAMt9ni5QGn8YHdzh9xLYKmk0S+0RAelMysE93+WIazaC0vh7jwMmd7k0NiVvTVmgNP5TYxrXHjRQGtcygWv+MwKblkYt2/3pLfMUwN4/UkWomlyOWMbI2dn+sTkpELZeUFbD2D360ygJQH64p3Ld9y/8kDTWZ8NnGt+P9h/bEkrjH9XgUBr/qOaChVUR2BppNLe0+TgO8LnWQ3uc1/jgd634hdLIYunauN5PKJngYwRJhxcRQm7t+5BdNoZKDCyW0YEzoY1DcxgzzQDARJ3FUQdtdNQGqGhb2B19X9UnkBKAolDhQm28n2vc1yfC2f/uyywp5cU9vnHrTeWykM5atDz+/p6Lrq6OwamH9RyhrDzc0aaAE45qk3qyDMztHn9oXBbTpSFQCacmydtQX1teGvM7IZ1SAL4kGxy89LpvWkKni0rGa5P268sLbGRhWzEuBaKeB8oaIgiy93LdlAAVDD86pr5WsfyqkIm8UvvfdCX9nbaO05G7JR3jUgYNhYkHqlP3OCmfi7MMLeye57bKigoIjDdZR088c/Jm6yJTMGV66GzGQeamiqWlZ7A7smxYJKVrR2GizqIID3tjRTmQqDYBQOfeH/d7mt3OQwEQ9AYov9t4gaVn4nM/dWCaT2dIYPyxhtDD9p81JsJBCjgAm28/stueSYalo2fgG1E8ypWS9MhcSro0mH7AXZaDtq7+qeC07il5A2G8qZLoi/qKaViV4amG5tZvSrtFKA4AwHgzNSl3DPUUk2esNxGOrpXnk4w6AcZAwcUzbblnXPXU2l2zekcv182LMUHXM/djabUjNH4Sm+35dMFQX0fb/EpozqwsIVw8WJlwzF79WNXSN7V4ntu2IqELRqKC7rJYN8U8ojr6hh9HJUDc/8zA9G5K9YKQKTx/uizWX1l2XX3DlgUAZus0CnT4YtWsiJD03tVYq/qgq/9yRAJmG84hiPapa8XLdMKqP8FEns9uemOWto7j6UcN4wKc+TFKefNZT89b6ShmFnmaAQA1Xpjo5/uwgcNsg4uHq5MP6Onq6jk8z+5eZipFSXmf4+86GSv2UpVCsbQ6PFVLz/FARF7LnBBnmhssjTQFHXFnWss1qmBIVVBmae7LJVlC2rr6XoHpffMS2V7Lo82Pj3ko58DTyhkBQNh49fyRsJJ5EQBgLkuRP/z3txPYtDQiiPWT5C8EBVqyghVho1rXonMxEpQXJiY1zVAAS70j/6VreRzJ5QgANfXSi6mxnsH5xxkD08sUBQBFSnjTZeEn9ZVHjMdhNocPBM3+CILcjRFgzG9AefBJRiNMVFclBcC0GeUG8oUxxh3pM9i5IEVeABDild6a1HO7lFcKBLkdxUPJ+S95Aacf9sxhAIjbHlxdmwGCaDt4XChoGpHg9KmQQKWzLe/2KbJnaek4n3nYPrEk+8FivPF3wectFD/Yk0+ZuNnqD0HXo0eWcYALxsbmMRxM1aTu1fh1sk4UjJIUv+aRBZ0wPUf3gZS6cQlDgBAt1mc8tDJRdaO+6xUByVj0joNRpf30KYrXKv9BKkpF/+u8N22EBwAnznF3Rh2HIAG3teAks4G2yY5rkUULQuZyTkiXBytu7DFQzputravn/Sitd0Yku/7igumPt84Y0TvufJE8hANQHGF08ubr3jnmmk1Klwfrnvo56aidqVnaervOPPjcPSVmiAFCOtdT99Rvp47iIo0gVxpnxNKlznt+O++/a+LRJwcAhMsVcTftFOgQLR0D92s5TRwJM7sRhYo49YlWZoo+bC1dR8+blX0LJEkBipIujmQHH9XXVVxf1DkgyL3C/tXHyMRH2SYsbT0n33ufuqbEzOx2gJDO99YHX9ylVlTNtJhTtOGBe+U907JZl0hU2FVy35q55svDU1uz/LwvFXbOMlclQrg4mnhrlxoflraewfGApO7xRZL+GQBCwh+of3/ZRV82gZRrYAWPApOffZUZ69m5vOtZBGA+9YjinotlExTbiVJk8TPlVqqFw3dfLUlIbkf2NZ+b9UPzdN1R8Vhl3C59XV09z6fvW0Wyi6xopTbp7g4lcARBtHTsXK587pknGKro0lhe2AklVQfXxEkpEHYlWjqeyG4eQwkKUOQKpyXslIOSu5PrpyUAJj97qEqDIOcfRfJQMFIdo75Sfdn5bYcULJd5uiCI9cOIHlSjtcip+nAn5mehraO3NyBpdFF+48Gf6nh+6YCh4sC7ncVM3hH1wPdu4uii7IZypS410FpXV9/gVFrjJHNLBbD50fhbx4wUe6kXAy5DAj9P4Gel0dLK6eBxv+C0Rh4urP1wb5f9dyni2o1+nTQae/nltU5guGSy90tRVhabXfSlf0qC49yunGMu8guotcPLUR62ONFT+ZHNzsr/MjhPkthgToSDkWxUi+7Ow886FqS4eKm34SM7K+tjRfMcXzDeO4F/bfZUWhopTDrB6ef0tRRn5XysaFkQYrh4Lj//3dDCMqetsiArv6JtREpSK4OfTjjJg0ItvC7m9y7iKH/gSwn7Q1ZZTRdPigvG6q/ukwVLyaVxovnd4OREw8fCzOz81sE5jKTm2zK8belDYjPSeO4+m53X2D6DUWBhiE3/xT+h0/K53rwgFC6M1pYVZ2axy9tHRTi53JMht6tdZz+PCXHhQlttMftDdnFZ/chcLz0RitvBF8nvC4smpACIZqvo1D4k3txpR9+d7AusGl4mMUFPYzk7i13W0MeTYvMd7AOKmR0YaVxs7JoSLI7WlBawMyKPf/MwN3C6kt7KQ4mVqf4yNpudW/ylb0bCH5viYmqzp2pKo4VreEkPRaKcrpqCbHZO7qeO4b7So/tlWZ2N+UiR0qmBtqI8dmZ2XvfECkGK21MOy+4g5dI4Xv9pZGVmoKk4NzM7N69rfImgiPG6SDfZdExrpFHX6VTml0kUE4+1lWVlZX6s7VhGqeXhymvu6jFwalVlpJHAZ4eaRvqaPrHZOZUdY2KMEk81ZcaXL3Knmj+z2fmlnRNLgCK6cp87Kbzbcd+1So6QkKz0N3xiZ+aUNfXypIRguOzCLvqyr5DGyeLS0ZmxrpK87JzcylGumCR4DZFHZA8Dfloatdy976dmsru5GCAlnLpKNpud/ibQxR5hsbRPP303yUPRlfGa4ix21se2kSVMyquPvyWvOSONS1NTU0MjLeVsdn5J29gioKj+8k+fqgfRxeHqj2x2SS2Hh1HSxfyHGw+XXS2N+xJLJwjJcm/D5/xMdnZp86yQIFaGQmmPtblwLzo7O2eCTwCc18kc+4mh9NgxfYudTzMbcQC4nI6S3Mzs7PKROQEumMy+Jb9jYKRR1NswKhTPt9IlS7yt1oBw8fcS+AlpRJzvxglwcr4156g5Uwkjj9iSMRII3pyxeJBQg1OgKumabLJv9yMPxvgkxsmTz3GR0IJhoone5pyc7OzC0oEZHgXwqrdXZMkg6tJ4+EJ6ZlZlLS1zgol8+rh7H3teXyVOCnrXE9js2q5hggLzHNnhGeeLIGa7jqbUcKQEOj/SnpuTnZldUNs+KiIo3ljdAx97+R0jI40r82Oc/umx9io2+91Ln/1rM7A+/GpwGRctcKrycjMz88pqOxcm62itZf78Hn+Y5KNS7khNEX3CaR/n4dKV8sgbBsy9uEwaF2cHhjnTvfVl7My0oKD00WVUutB54xhzIyxLxci3aRGIOWWHzAwQxNDN90XXAoqJFlurSjOz2DVtI0IMnW5I8FTswUjjzOeWuaWZ/vLifHb6C29ZOur/l0vjZNtnzuxYR35uTvKLe/SoUmvv2LJhMSad7qlhZ2UWljfOCQnxfHfISVf6cm5odTupQoIT80NNxblsNru4qbev9uF15tQnl8bRttzxqYnG8jx2Jru8oVuAktKlgchLHroyozF1uhH/mSslhQtj1fn0NqXVbQtCHBNMJj05pXhyS0sjKljoH2ydGe0sYbPzSuomeFJSulIQfo5544rOztNhgyuodGWy5lP+hyx2UV3raHuxnZXsPG7tE5QzJaKzKC/IY+cWdYzME5S0IeO+HWO36hgQBDl6/zW7sLRvQUQBfLSJOYW9YZ4Ymzpef/OJLiqXU1NAF7WkunVegGPC6dRnpw3k9VmVmP6+qzwXI0wAACAASURBVG8nhZhoYbiCAVT+paevIdjekt5MJo282YHuXk7fl3J2Vm55Q78QI9GV0Zfn3WR3SyYO3nGf+qUkvsjpKszP/cDOq2od5KOkaKY95OxOXS3E1tmvk4uD2XLlEOAdrtcGebRINabJB7Po2uxK7uBSwq7r8l+ORiFl0ihaHBkcHGmqLMjJKWwfmsNJMNGWxy7t480OVBSz8z/WcJYkFMoveOFnLHc+qyP3MydFlIg7XlmUn5VT0DY0i5PSlqygHQx1mTSKRysrxxaHWiuzs9hF9T0rEoJY7n3izdQfQX5aGk18zkd+YLOnhACgK59Li9nsrPiQc5ZGiK6heVBSlQDFeZPdn/PY7OKKgXkxxp94d11+7DPSiE2Mj8+N91V+ZOcXV44siChMWJ6X3zjMXRprLclnF5e3L0hJfGUg5NgODWTwAySwRQQ2LY07LtxNqq5vbGruHJta5HGH82NuebnYrbXB71zzy6TR/GXNLEYI29/d3r3Tmrle6lm7Ho7K75aQxGDBU9kNu7Xdy5z3MSf37TSlH/PpWrucbloAxHz7HhdGwhx9crrnKExY+vaeq5U+grD0TWz3XYwbofvSvvLKDVoaAaAW+0ouHXLUo/eyO51aCygKw0SjZS887E11EG0Te7c3XQKALxbfZO5EDd1flw+RuKQi9Zm7tQGCsIzMHe9lt1CktD4x0Jru7JJLo4Q/mfDgqJW+LktL2+7I/YYpPildjg6gtWcz0kgfT+uFp564nJsTcXS/u4URDc/Y+WB8yxxJLmUyTwl9Yj6TFN6fG7PHXA9BWHpGlm779jgrDs214ak6hmYx5eM4xat9ftTJykQLQYxs3EOz2sS4tCle7oa0NJIEyu0JPuBubqA5FYUi5VX/ej98x8Op5eGqm6fc6Uuqtp71rj0PCobo53mqV25oSKOT762BJVQ633TL0VxHC2FpGTq4eniYyMXrYvS76uire5zt9XS0WFra7rdeDq2g0rl6PyZjmTQSOD5RH+XjbKOnjbC0tBwP3q0YWKRwftIj5rK3WhrNHhZPozi/6c19d3u6jAYWO05EtwgJtCt1nWfodD6MNAIK68qN9bY1RFgs0x2nsxumAAXQlSn2g4u2xgiiY+hwPGpSCqQzzcf3Mseq5e6EulGKwIoTb+yyMqSPHxuPsPwOikQrom9aKKWRJPhjFVc9HPXpCpqefRQ1IyTwlfbrzKisn5ZGefusDU/VcQxs5aL4bMv1Q57m9G/NYIfn0ZJhASHoeSD7KdLSCCjxQt7jq3Z0BQ3s3R/28AGBExi3O+yAK/0g3sB897WSRYwSdKWsOhJUH1dL4/7o5OwHPod2WjL3D4Z2Aa8aBAQ1XXROtgtrnTGNrAM306ZFBDpc6OuxgzkSjQ/ffD60hGLcKl/mCQ8jjQQmmPhwfb+dsotAVQi49DsJ/Iw0IhY3O1dwlNt79QT9kzD3PFY1LgSLjcf1EKuAN2KcnKhN28tY49GwRiFFDH9Q9DykVBXHXvPaactisbT0DJ0DkxcxkttTeEJ2C6cujQybTYan6tneT61HSWqs5t1Ztx1aLBaipWO+w90/vV1K4ZyKcGPZi/QYaSSxlaaM0L0OsidC67TIy/o5gC7HP79hRvcEaRtZOOz33i2finxvyICAEI5X+Pl40ud4XcMdnhcrJyTofPMVM/o8JpNGUrz4KSrI1VImNBbPayYAtpJ956xSUC2DKyWkpO31HWNtltGO3blt8xRYyn94wM7UkIUg5juPJlYM4aQ4N0R+f0xLI4lL51oD9zgbK0MgVpVdLo3S6c7S6947FB2JxlfSuqSEpDf39WFnWjj0TKz3PfvMI/CRj8/NDbTMXfZXjouAZPC5q40+fXnRt9np6mlrxWiFXBqF3KGYe8es6FOFlrGV05GoeiEg5r6kMH2hOgdux82JCf5k41M/d3MdehsDc3tv/2SOmJKM15yylF1EaGmkKGK2jX3ae6chfSaz8HpQyCWBeLjIztIQQeyexHVgFKhP9zJn3iWsZ2Hn5emmy/Ql2p94OLKEiubawi54mOhos7R1dxwMaJgWSbj9d09t8LaWdcJTdbxvRs8IccF0c8hFD6aoLAMzu/2XE8fElGSi7qztepMXmDq+KB0lgKQ0zM2EOYpMrJ08Pe31mEAbmTSSUl5VwjNPa2ME0TKx2vWqahhQ0s6UQEs9BNExvxb9WYhTs225Fz0cdbW1EC1tUzuXiwl1EoqYakiwN9fTsdz5pnGWJOfiFU8C3F+1CHkCAY7PNr2TddjbOvv3LBLLLc+Vh5B648ukkRQv57++aW+qw9LWtfd+1DwrIklMNNP19Ow+E31ER9/c48FHIaAW2tOcrOhkbI/e7ZuXSJZ6Ii55mupqs7R07Pffqubw0ZXRR+d2Iggik0YKl7blP3KxM9ViIXqWuyPedaMkGPn0QvZY+6elUV6PteGp9pdTpiTkSm/6YS8nurdC32TvmSfdXFTC+SgzaVoaAcC4vaEXDpjSFTRxO/tuhqTokdajpefd7Qx0ED2THX4J3VKAjxZcUScGlyGBrSKwaWl0CnxVtSgQiURiiQTFSUoy3R1x84SNufl3WuKqzX6VNDpGTQLAHypwd5Bdz+TcTI7fHVyUSJa67qqicFjaOrr6+voGhoZGRkZJXUKATqfspg3Iw//JlABfGShZFdd55CPn29KIi4tf3FLlbRc1QwFqZcDPU3Xqt3/VKgFoTypdFLMzAQPLUjG35arG2wQfDxFgqTfZ04G+wsrCU+drItVP+S8KOgAuTn1xlbW10sgA09LW1dPXNzAwNDKyuxfWJQWgmRn3eDzuM0Xh/TnhrqbKACzVkblWGs1sYjhSgPa9U22EILvOBYysYIKhItkVhJZGQAx+kD9xVN9y/WWWS/znUQoXpzyThSbJtzIy29PG3VAad56+PbiESudaru/Q12YpQmI0MtDSYSpNHw4Hr1RN8HHJVDCTg0wagXjoscb2yKmYjxRF9Ke/3Mla857GHaEcAIScisPuqkbTNzKtmwVg8pMy9EUjPVlPI8p9Ifca+ssLb0sBoObb0/apPUbMHaaAgHP2CH3b6nn29hgPR+fqTqundSyKC6i5lpR9doqeRmql5JraFi6+H4eWSWw+jNnt10mjR8EYoIQNr9Q7j7XP3qgWUKArkXlAwEjjUn/2EeWzBwQJ/sIDAOvPPKMssbaO7pdZCsw1rI8OQZDV0sjsyhzHBsxx7OMfMCMCxFCmLM11pJGl9axlHlBctnphkd0JJRxAkW9v07F3jDQCbnOEsmBwYfsQ+ClpRJCoViHAltk3fXUQZO/x8BkRWKhiOpItb3WJcOF03cWD9DEQ2DALiOkkY1XUJ4vFok8dBrIryYNeIS6er7t8lAGzRdJo4H7oI4cPqKnnTMi3GnP70nEKCIcemTLXHEYapdye68c3CGdg9oxoXALYcua9C8a6qvBK5hutJ+WTgBCUBV5UBE3Sqw/HdEiAsPExrWQyaRRM1l5SfyOqf+4yRU3XPjaTUdFyy+zmk/yJBxfpjbyOfpjDgKQtWq3YyJ77sQKUHCtPcGHW0tII8K6Yr75FSy6N1McINQrW11uWJNLFgTunNKYYKeRQYL5ph6Wxhev+qgkxEI+EOBvoaGlE0CrDUweLwzV2RuyKxyjAG7xhbY7o73yRO4wDqjRCvcJ0oS8UjFJA1BTCPLxjwlOBeCHmpo/6Oap8ggJLXTttzBHE/unbTowCdckn9HXVBxcgCMvmQWyzlKRa3t9UR3SO3QVwQXGQv+pQU/96rTTqO4ayB3FAfY5aPefuubwRCoiaw9abucnM6WU5hwBYSdguvTUxrDJpFEzX+SsektBFuJ4rBORkbYidGaK3w/XD4AqgZqLlUTvKItrmj1BAzAlzskMQizuv6iQkqE06xFx6dd71Y/MtlY2Ti+KF9pvMz8rlYvkKJWwMpl1u7Z9MGgWTNf6q2yjTtzXjzP3YQ2vVo+YrHTyATtW5OJgzmTaISaonR2OAxemMZkCIykJvmCilcalJNWIZQfbeDJsXkYudObKwll8mjVqJ9D3nbLKHWpWNbJ9+HMPBShbzYJmRRny0IETtZtamfIoC1PKnc6qXedg6hU+Igah74yeqa4HCNZDAdxPYtDQqpc/KZfepoNeZvbNidHHg6UUP5Rc/tPCrpDG4kKCwgQ/Pdqhf9Gg6Jwo6FzHhRPBl+oOugZ3vracJ+VXd3cNzy3wUo+ghTHJp1L/4KJOPgYGie6uofus9jfIxjdEP1GXzZpsACMcKdu9SnfltHYoXATlaSEuTz63gBTHF5zQ8CVT/yxqXAslU/T5XS6U0tiar9ANBkBsZ9YBEW2If2mypNOqY2Pj4XY97X9zUPTQ9x6OfDzCju2TSiHheqRhZxnHxWFt5xO3rJ/a7GqjJ41pptLxfLwDEdNMb9boFJmZxBJhk4YssIIqWRoKbd2T1JXkVfNVHuzOl/cu4eFLTGZG1s6dqjGm09nxd2iUlyeXxrowXTy74HrRVG1FjvHPfjYDw3JK63uFJ7oqExEhAgVXSiA7lqsogW/JPEABqpiGefkq/qqfxwTscUItd1ZEPVVV/8OhxDxcDgp71YxoZacSFfQHy7k8mj5AsAIi+96/UHymEtwiAZDbOZy8zmPD9Egp4A0WqbOilYi4AvJHsw+4KaRT3P9Uo/eEP1bMUIY5jxo/+OmlM7cOBdDk3MVqtePeSPnSJCDBbwVzLmfDUydLEPYoRpHRfQd4oIJY/npfdd9Pl1tLRKRyWgJVu5uerURP5h1XSqGPkcuhsYExqeWMXZ2JGIMEJZmzjV6SRpaVVNUUCASdMrayBgeEV7XOAojJf0CrJSKOk46XKZtcrClz3ewj8pDSah9VLATaSF2CggxyP6pCQy6UXZCdtmzety5R4NuLyYS1kT+MCwKZrHA3lPSKGjt63Hj3P/VzfMzK9tCzCmKHgWy6Nzt4nBpdJcqxA7dmRHPKJUg4JFvLNmFB6RhqXeopOfVW+zC9GDSxICNFyx+e0x1cvHHCxVIyH2ls4JCQlS7npUeo/gtiEQQkAw9l0wJ5MGqfr3ik6jWTFcM4YFJFLnb7m9MnL6njwuAifbcs6xKjrwah2McA4lc/U0wzMKhPi5HxTjuxHTksjPpVstV5sovJokkvjXIy6wFwInRHjoume5McayX+ZRoF4NNTaHDG2uZNaxcNI8cJIftyra+d8dlrIAo1VYxpLolbb1JmaOUDMZdpZIQ6eCT2LAOe8UumKvEAe3kWLJBgvlo2ZZ8JTl3sCTmvceaTR8wWOx9pZIYi21/mQvnkJjvI7Pmc+vO1/0E1xk2LmHFExQQDplyyNKgTWjgAgaXt+d30oa6XR3u1NN5cixiNV0znJi+q6p4BLgvESNT9RUkUMD99IHFvBcPFic1H8/evn9+2yUJ6M5WMaWz4cUG2PIEjcJABLva8crBBbF68uLkmOl67Bg3jmj5BgqdSZZrvrSuiMEJ9sSKEvZA4vRsSiitc3/DPbSDE3+vZhbQS5VjVHLPdccVSMWtHIDpFJ40I7W31i7ru5nQAXZD71Vyf+aRKQC+1uTlaIyY7QUg4OpK05mlSrBgBAOyMfWiukUdiVqJHbhUfDfJQ/UimLM/pl0kjHb+MrI5Ev1H8XwXll0zgAlZF0ieRjGiMC5JGyTCnfdgiBYPSWu4q3lcOuniVAjBZo1AJ+gAS2iMDPS6PMDW1OXa9cIYjZysc/5IrKjX+VNEZ9AhTaHkWrlOaf94fmOVoaaVMxv/+uZVmMS7hjXyry4yOCLl04XTQiUUijybWn1UICtKbKx/Ep09m0NK4MJXiqnccZaQRTlfR52Pdu6JJUY5S08gM627zfzUYpjV+SlAWhF36JNOoYnn6RN81HCclid21xWmL4rdOXE96NoIqeRnpAmKfP47TyyWUpRaLcycGypAfKM9paabSKbNWcHkdZOSBdbJW9X4oZ0zj37rAsSkWjjut/2H2hcoKP8vsCNW+gviGNCGJi73Ym5F3b2BJOEMKl6ZaS5MMO9JAaA6cDKbUDUoJcmR6oyH8XG/7w9MPXHXOiVdIo6v+wujyXaWmcbU7aY7tGGkPZqqquWhL1MYNHVycmC0/FBF131L8JyaJHMKaFqt/U0NKIzWed2I8gumdulqxozkCjzI3PyT7i+ZulMWdMWZzVC9xaZsYDRhrH89+q9R0w0ohxc84eUpKQS6N4YMM3impII8vl0KMvY8uAwia7GzLfJ74IOP004g1X8rWeRpaW1hdmhoXVBaU/U9kRdP8vI43CxsunlAWDC9uHwE9KI2J+vY8PUE6hkYFOUo8QcFt2K8zQOuKLlJJ0JPjrn8jhksRk1RNDPabLxOlUZuu4BMOXJgeq8xIjQ4Mu+iZwJMSWS6PbwZOjfIB2a97dMuiPve/DNKVxvjFH/bHleg2k73X8anppGx8jCalwerAxI0jmbifLJsTrHf/0Ok6RShonKpPUf7B0cH1oo4BCW8LcEcTsZmSZlKBKIuXDKQ9n9GpOBKLKgduSf4IpHzOmcSzKSuPB6OqSy6WR80L9i+sv5yWy6exUycqXpJxoa1q4DC0djtyLq+2fQ3FSwl/oqc2/vN+J6XOUh6cWvlJPkV4+WDUFqHm2nRWyc3fy8AoQ92pMMsds7rY/bQYF4yUqaZQuddzRCPlA1KQRQXRM3Q9cSShtWxLiJCqaGWxPfXScjlS1do2mX56x7p+0Kyzge6XR0T1+cAWI+x6trg3ivDtlGgXjpetKI4IYWuw+HJBT3ceXkISEP97bEH3tsCHTYfpNabR33d2/AjDNYCJZ/h6JXahCGhFzv+pRgXCm+ZonciC2ViyYDPF3ZB1MnCUkTS8CLBDfhkVivuWtg4Wq01C9EhtKI8qLfHRefctP9Jstet122iDmji/rpjagiva+DrL9zdJ4u4OZ2mbdVq95Q9dpQ2lc6d/tKjvq6M1k0gimPqtzgMuQwFYR2CppNPPcnzaNAmFvmtIDf2jhV0njs0IK4CNZLxz1NUIQWdrnyvpWUP744zMI4vh6AgB+f7GHbDQ0jZZFP7+R9zQaX338SYiDgaIHq2JZnDP6iW+NaSSlvLU9jV+RxqO3QhbEYLYhUT2mRbOxFbOn/qA0svb5109vPHsqncfqMY2G5tYV41JK0BWgchTTW8GdEjVpVJTN+tzL7NFFKQXwxhj5pWitNFo+rBcArC994/lLEPnsqT8gje5+FRweLp545qvRPoamtnXTxEZjGhXFpmvtdSmsZVxIUuRE2S0E0fK5FrkgAfzOVOUwfZbX+Ypx3ippFA9kaeSHsHRCcwAgRz68piNFVvU03ntHAXKMHe2ucRiqlWLtItPT+IPSqH3qOt3TOFf5cKN8FBPhfKOnsZmZPVX9INQ6crFmTvx9s6fKK7N2TGNiPwX44xdl86iurTKCIL9CGrW0/QuHcUpU/UT1XOHAuVvTXw1PZWlpVUxRYLZR+ZR9bXmhNK5lsn3W/Kw0IkhcxwpAJ5PMwwfEYL45VG6GdA1f0P3cPckXPo0Bgl9+65zsIDn9PB0lqJGqOHdldIDWne5fEJ66y/tk/zIFpsrsNc9BCMI6Uz8LiJlUM6YETE/jd0ijstHcX2XWL4pJAJbiz2kjCN3TSPA49/w2fJuIrKdxrTQ67D7StUCAkdwdO7yS2ucpYacynuJgdLsYSNsivtb7uXlp9AudE+GLbYUnV5NR1lG5oLfz2N3PvQskRc23xFiaaCvDU4siVrmKTkqPCIjGwmwskB2eSd2LAMzFyDRTmRiC7DlaxQPU4Ifvlkblvrb7nr7/Qs9OKxp75WiFmDtHVE4QQPju2kZnceWeagtrexrt3N52cQGYj1tTVI+DFSuAGsraQBoVqZo6Hoot7hGRFMFtO2lPP1H9pjTauOzu4FJgpsphNX/W/sopQM5n7pKfhEPKRknxQtjtIHY7lzde5UffY9iWTJBzzeEO99krpLgx7M76eoxs3NP4FWk02RH6iUMAUc6tDakqZ09VAGD+Xd3TWErPnlqu/lCb5RcU/d2zp8rTXjOm0ffLEh1J6ymbR1WjBPIPUBrXowLX/dcEtkwaT9+v5xPYSO71H3JF5ca/ShqdbnbzgWSu+fZRtTgHlq7HrehpAbY0WHjECkFufBACfPjDc0fFmGuDXWfpm2bFmEbPK0+mBYRgrOa8o2ICdnqKtv1lU8Q3xzT+qDSaH77RMS8WTzdfcVLLS+Oo+LY06ppZp3QvU9hcyl5FECxLZ+/tqCkhvuErN+gsVkujqaVtxyJAB1XvEdA19kpomiPWkUY6yPfU7ZRFKbXQLNfZtdJoahnQx6NWemNdVaM8NeqGbEIaEbeE8jGKkBbF+atFmCIeFz/Sb33YYCKcVbkamZ7rXKLAdDWC6J+/+4lHgJ5MhSiztJwvhQ0vo6ukEQjGnngp8CKIjplzfMUwRUjzXzJBbKuk0eFuj5Dij37yc/vqs3P1Ym1GGhGH49d6uKh0svKgneJoVk9TORHOV8NTdfQNisZQIBh+pLypYGkduxc3L6Z+Uhp3v+lGCUH9c+XUjJqF+2XSeL15HqAjqv4DltaN8BoB/rWeRoSl9bRsnEDnso5qjm9SKzKURjUY227x56XR52WziJR2FnZISGHdywt6avfByf1isDxYN0ngK0O3zsgH4N6JZeMkqEiWxUzQj452XY1fwMgt72k0dNiXQ9+br3y46aE6B9HTkl7pXqLEYyUHjJmf/w9LI4Lo7gh534FToDKRHkd1LnuIxHi5r67orRrtqGjtjaQRMXeJ/jxKknMfQ+8P8dCZIiUTxO1A+LiI4rYGOSnDQhWpKf/dvDRan6uaFEm43U9O2Kk1lzLhtQsHaudIwO2wtTJVSuNARRQzW5l8Yxvv1xwxJejPtjHXRwxsHr9vRknQlnvHVv0qZuQS1calJBPRPrJQGzo89Rs9jZplOZHWhwFpW5Q93Tf76rOYAE0fzqgCQzU3XufTWmnUt3qY/kVKgo6CAHpSMeWfkUtEK5eSTMadkg2/VH6x/kJA1SwFlkoY2fumNOpZ7kppnCUBr/D+HvU8DZwvtHGBZLLa104+IZPZtRwRKW783Dq+JOkrfCybN9cvb1Sy0Pa4eowQzoReVz62XV2wzfQ0IsZXgouFOOjIPU9P2LPe3/dIo4PLm2kU8HveKu4PEB0D2/DMQYz6zlduyDNeI41IUO0iJZp6dUE92FqjlFAaNXDAD7+JwOak8WJSXt6r+347bK3NzMyc3A89icsZXELxpd5nJ9yUHvhDC79KGhG9k3EtfAJbHCx/ef0I8+DK/OidyC+DSwTOzQlwop8oesXNAEo03fzynAeC6DjuuZTVOCbFVdKobX68uHORIiRd5UmnPExl26RVDQtFEnKrexoRfYeQ4j6KwAYac+6dkAXEGjjvPhv6JtX/tOxx77elEdE2vR3dIiHBfE/WBS9bHQTxuvi8qncOJ6kfkkYjC5vaKQxIJt8G+ljQk7z7ROW2r0gISiGNh28FJz6/5krP44no6Dk+y6iiu2Tz5QPNzK0SJzEgHXl/WCHs2gZmoSUjKC7oK0u9csCVHnugreN49HJ0Rvx9xQ9gnfBUXcNTIR8qawqD13/ere3wMEcMKPFcX+rTs/QV28T+wtOkLq4QlW7Y0+iw90h0+OPj7rILvNnh23ETIorX8QZBtE/ciOdKAZ9TffWAnS6CuJ0PLu+axUlqtTSS1OJw2dMLe4z0EB09t+CMqgUxjs61XrNn7uJWSSNifDFzECUkI3VFj/w8ZFdTu73Hgl/H3ndTmpkCgezfTUkjYuwe82mQIqU91em3j8ruCYydD/hFpGRfY2bx+Z6eRpa2XmD2AAbw+S/xJ2hEpvuuvaof4eHkj0njsZIpQIk74lXTOejYnKufQbGV0fy3j/fvoB+LsFg2vteeJcY+lFf+1/Q0XikdIyhJf9oTL2sEMXP0D8saWhaTlIY0RrYvAmLp0zVl4Dhrr3/0hICQzLXHB12SDXk1tfS88Sz2Q7R8wlsojZqH7Pb69PPS6HE0kCMAUomUEEw+Ob9PvYfidGKvlMSkOFgeLDm9S94l7/fyHUpQM72f/NxpY9lzLriuZxajwFek0ftEPhcH4t5Ir416VRiop0JSpDhVn828oJEOjDY8EfpBgJP8ye6UR+f0dLQQPaM954M+9i3g6EpxqMJvv08aAyKTgm8et2SeUprbnsxpGCMpPDuIGdLheK9zCRcvDuTG3Nsvf3ji6Hvn2ZuIk4bM0LENpRHROx3yXoxT/HGOmD8S7Kmau1XfzjO1aZrEeS15cWdcd9Bqp2/k4Xs7KSdJ+TBp89KIGB6LaZSS2FRH1cubh2SP6Czd9j94GRd84qA+gpjZOT0PD7twQHbPb+R+NniQTwmHC6zNDZTSiAvmKtKCvQz1EF1Dr4tP6seWSJT/8cVFJkRTy/pYUO8SiglnytOe0tsgOrZep98W9ggwbPRzuL38NV3flEars/6vQm4fU0A99rZ6jsAX2My4T/MjgV2LUunKeNGbx15GDGgL+xPXQxNjgpUz963+sRk6vSgcwQFRH++rYM2yOvKgiyvBhLMVGc92G+sjiI6Np++bgi4Bho1VvHY0WdWhyiRpYu0XHHH/0iHZ8Wjh6vuul0cJR0Mc6ePhm9KIaOkdvp9Aj5CdG3z/7LKpgQ6io+/uG5jXPoXjwsrom6bK93zo+zUvkXy+CMf52bflj8h3HWfPS/nTi7hgsu6yapje6rpuShoRswM3W2dFGH+qJOHZHlPmMm1u63P1WVJ8mGyI5vdIo4n9/vJxMcB4lRHXd5kjiKXLvTfFE3yU+kFpTO+TAHQh+Y5qcKidTwxHgAumWpKeXqRTRhA9Q4+rT6MSnsv7ZqE0rj4O4OffQWBz0vigg0fIXtsqi8Cm6ND3+cyHFzf7mkazn5XGtZHgpORLZCA93tzEOrS0X4gR9GtmCQJQFEWRH6tL8QAAIABJREFUuJhb/Vo2eoKmHlXPxWUv+sUwiiREMw2fVeGpTLMcChvgo/QLYek5j+lt0IWWyDft0i2XRjq3A7l9fJzJjKLkRcaE3Nf3ZBOKfoc0Iojd8RsdMwJZG9HTuBDocHff1OKPhaciuibXk5r4GF1tggIkSUpWpnsaB5ThqVeTq+SHAY7Tr7ImcMFwqXL8jL6pZV7vMvMSXUCIZzMO0s5ntPt82SBXTpLeC9DNgY4xQftMW7QJAKoxplHb2Dyqc5Ga/6Ia08a0ifr//HP6xDjdxBQFcJwicWy8+mXZmGSjnkav83fHVpgXAJMkIEmKIiUL/cH7mB4DjzMfZSWkSLoVSIzT3z+5sDo8VdTfUDvNHBLMGEL6kFgejFFO4LpaGhFtfaP4xkn5McRkCiiKEE2lH9tgyp/NSSPz3sGaSYn8eCZQnKQJY+Ll18yrEL9HGukXbR6/3D8nohteBoFAe/u6xxdEP9TTqOcWz2EeMQACXR7LY4JStbzPxnKWpbLDhml/+rhZ6VYMEP0V0oiw9vlGjC3T13VAAkA3qXSgp3peLTwVQbROPSpbZl41ThL4dINMC63vva2V0qcO+oePoszBSuDz1fJRqFAa1X+D223556VR3/XQx6FlAACPU35OPR4NQfb6xM0w47P7C6NUN7euN5rnRbKTG0YAkpByqluHsa/NnmrjdaRhXEDRZ1dACEfCTdQ7DlVEV0sj/Y35/ZwOAcZM6ASA/ASMoV15L12VXTzfJ43JbYuyIxzD6COcwNHpmpfK4FHPS6n/x955cEXNdHH8/Sqhd1B6EZCmWFCkK70sq6CiD6BYEAWxgKggHValg2ADKwgioPTe6/bdJPMh3pNspygCKujd45GUycyd353N5p+ZuTO0KKK+sCSB0z/7JIGPfTgvic+6tmjEMIeY9kUBomKDpRnrqXT7GXv/92WaI/89pX4FCEIk7JYv5L4J0UihuVjXx6d/DqjfA/pHHxfM1ZyjxoBYOB/6MCagvs/0KZIkhEvjOdHedOeTdE5jz9vaaQH1bpSmSgH51pCxX2noj+XZomG24nmAusPioqmvdYGucvQ/FI22V+9/FdG/WDhO3WEIMa+79ppkSSAMwyzPsCZ4NHb6kYNGhE9+KpP/wigah3RL63hizjx9v6VqPFQtOWxxpmBohanT3fXBbkr1Uc5rt31a04jkp1RiGC5itxSe3k13C/9YNFJZGcU+alqiYupTmKWNSiTsacjcL5OzkgLPvp6gfmFm39ELeFHHdtu5vKMiv6C++rQ17KOSbUw0UuNfYwrGucupznbWBtIGrUc0Yphx1MXnC3TzoJoWQYg4U+0dH9nCn+tptLvauCh95hSMvkmlBqVqGjHS6ikPUlBwEU49zRDUUjHSl+UgGiXNBv7/swQ2JhptfWOuPMwvKSsvr6ioKHv6JD8zNdx7g32Mkg7JzYjGI7EprJWf0qLkkGPSW7iuhX9s8qP8Ykmq/Ae3T/o6SyZ2S+hr69ueunKnqITFYpXmZlwL2GsccSOfVXw/2kr+04npOwemZOSUUlmU5mamHN9rbBJ2o4hVnBatmCil6kvbU8kPSovywrwlUcQlJz2u57Nyb0dZylYxpm6xJv/lsFhZSfIuDkxL1+bkpVv5RZLSSgty7l1geJlKB8PoHQ1ILWKxkhkqpR0+dZVVWpwS7i2/LZsdDL2dnV9SymKVFj9MO7/vmNeVrPzi/Ds+yuao5KHt7n0xv4R1TXkxBgOrkP/S8mlDCh5lnvK09/BLLWRJ09gcDr95P7+E4sYqLS68e+38fsn7amm26rZugXeyC6mz+fdC6VeV1Bkz94TUBzRt6sLcrDunAxXCKfR6Pqv4QYy9YmK3vsnRT9Oi0bqVoQcU1qtravvEJucU0C4syrtxPshMVz8xo4hVkC5fMeFcJqv44Q0Ha+rts5G1y/nrWcWSFlFa8igrPfSgvXzQiuFe7yuZEnQlOekJB44dvZiZV1KY5U+Pl9HRDckoZBXcitWyOpZ0K5sizGJl37kW5Crpt6St0tQ+Gp9RwrrPVNiIae+2YySlS5thaUlR7oMLDF8TeqVnpVSyTYcDVx4WFuenqUwADTjNYpWknTyu1Hyw4JR8VnH2aSfFs6uG5p6Y5MyiYmn7Kcy+81+o9M2xhqZW/N1CVuEt1YcP+9hLD0pLCsMl7yUoE7T3ekVl5NKASgsfXD/j5LH/0oOCksJ0RRKZpZK/GpqBdwtZD64qHq7V1DWOMC7l0Z5+dDvGXhqNStvxWOTdh3kSbqyiontpF73l6PxOsVise+ciFe7HMI24u6zi7LOuipCxauoa56la3F4zBM2+sDwW6975KNmXU9fV70xOHuUpVmHezbM+B90O3y9gldyRz7TCtE1smJdv0ymKMy7I43oYeERfepBbSKNkleTn3rx4cq/srqB29i6LlX/1wPIQWapgYO/PENi8aMS0LMMTMkupm/NJxbeLrs0uW6e0bOrbkRCp2vdj7XUlI09yX8m8fm6vRUBafknhwyuS91GYpf3pzDxW/jWla3TcfE7lFFDtqyQn/ZjO6lNonQOYRSWsq2fkT9dSpC5B5zJyiuhGW1r4KPNipKfKo/aR0Nzi0odXz6x5y6ez8Yi4kPWItoDFKsl/dD0u0IJaflD+0XY8GnmXvo1TBRUXZ6UmHrMzl6hAJ39GYQnrXhJD9kWTX0Xd6GNS81isgqs+h+S3VsVpK8/Lt7Jlt6iSnIw0ho9imZ1T6QWsooxQpYVMFBfKt0xtmHdzWaxMyRO//DA17EV/1/Gz13Ik39rSkuL8nGtxoTb0Sqq6RuaMi7cLZKfyszNj/PfJpJ4sEM5tQ4/Ii9n0729JYc71cydkY2UUhZg4n0i+m1NK3xdKCnNvXop2UZl5cDD5QWHRo9SjqoMNmTcLWEWZ4dSMU31377isHOrHkYJamJ/6X6QtvXatvIzd7mHp9yW/vayS4qIHqZe89600RJ4cw/StQy/clTgyP10RQM147/HkO3JT89IvMV1VTFXKger1NfCISMjOlRmW/+jamUArWatyOBaSW1T6MCVW8bBCXR2exWI9uhlEx8qV5ubgf+ZOtvS2WZSbdTnaR/5kIi/PIiilkMV6pLyolIFpaMpDFot1OUq1BPk19Ia9Z9CjwtLsG6eVR+l4nk1lFeeF+Mhv3VTSRMqydIvdisKN3ULSsvKk9/Piogdpl/3cpb9Mu8yjsopYBamqKxzu97mTV5x3N0nxjKJnefxMSoHkS16QeynysJdPSF4x6+6lMFUzFXumEalFrEeJVgr3aeoZhSbdptt/SUZiANXPTX0MD4UnPJTeP1ilhfm3kmJcZC+SjpxOYZUWXg32lDVX6oLI1HxW7i0rc4VHDUxMbz5isbKWrQgmyR/+BwKbJbAx0fhTI0/XlXgzonGzDOD67U3AxJU1zZ8uCVX5MdjeJoN1QAAI/GECWyAa/3ANoPjfTEAmGhWzn3+zAVAcEAACQGBbEwDRuK3dA8ZRQ0qKe3hjbz1cFG/pAAsQAAJA4PsEQDR+nw+cXUEAROMKJHAACAABIKBEAESjEgzY3JYEAlPyH95gWCnGX2xLK8EoIAAEthMBEI3byRs7whYQjTvCTWAkEAACf4wAiMY/hh4KBgJAAAgAgV9EAETjLwL792YLovHv9S3UDAgAga0gAKJxKyhCHkAACAABILCdCIBo3E7eAFuAABAAAkBgxxMA0bjjXQgVAAJAAAgAgWUEQDQuAwK7QAAIAAEgAAQ2QwBE42bowbVAAAgAASCwHQmAaNyOXgGbgAAQAAJAYMcSANG4Y10HhgMBIAAEgMAaBEA0rgEGDgMBIAAEgAAQ2AgBEI0boQbXAAEgAASAwHYmAKJxO3sHbAMCQAAIAIEdRwBE445zGRgMBIAAEAACPyAAovEHgOA0EAACQAAIAIGfIQCi8WdoQVogAASAABDYCQRANO4EL4GNQAAIAAEgsGMIgGjcMa4CQ4EAEAACQGCdBEA0rhMUJAMCQAAIAAEgsB4CIBrXQwnSAAEgAASAwE4iAKJxJ3kLbAUCQAAIAIFtTwBE47Z3ERgIBIAAEAACP0kARONPAoPkQAAIAAEgAAS+RwBE4/fowDkgAASAABDYiQRANO5Er4HNQAAIAAEgsG0JgGjctq4Bw4AAEAACQGCDBEA0bhAcXAYEgAAQAAJAYDUCIBpXowLHgAAQAAJAYCcTANG4k70HtgMBIAAEgMC2IwCicdu5BAwCAkAACACBTRIA0bhJgHA5EAACQAAIAAFlAiAalWnANhAAAkAACPwNBEA0/g1ehDoAASAABIDAtiEAonHbuAIMAQJAAAgAgS0iAKJxi0BCNkAACAABIAAEKAIgGqEdAAEgAASAwN9GAETj3+ZRqA8QAAJAAAj8UQIgGv8ofigcCAABIAAEfgEBEI2/ACpkCQSAABAAAv8uARCN/67voeZAAAgAgb+VAIjGv9WzUC8gAASAABD4IwRANP4R7FAoEAACQAAI/EICIBp/IVzIGggAASAABP49AiAa/z2fQ42BABAAAn87ARCNf7uHoX5AAAgAASDwWwn8z9rGbjv8MzLeBf+AABAAAkAACAABIAAEgAAQAAJAYLsR+J+5heV2+GdkvMvAwEhXTx/+AQEgAASAABDYJAEj412GhsabzAQuBwJAAAgAASAABCQEYHjqb+3YhcKAABAAAkDgNxCA4am/ATIUAQSAABAAAv8OARCN/46voaZAAAgAgX+FAIjGf8XTUE8gAASAABD4LQRANP4WzFAIEAACQAAI/EYCIBp/I2woCggAASAABP5+AiAa/34fQw2BABAAAv8aARCN/5rHob5AAAgAASDwSwmAaPyleCFzIAAEgAAQ+AMEQDT+AehQJBAAAkAACPy9BEA0/r2+hZoBASAABP5VAiAa/1XPQ72BABAAAkDglxAA0fhLsEKmQAAIAAEg8AcJgGj8g/ChaCAABIAAEPj7CIBo/Pt8CjUCAkAACPzrBEA0/ustAOoPBIAAEAACW0oAROOW4oTMgAAQAAJAYBsQANG4DZwAJgABIAAEgMDfQwBE49/jS6gJEAACQAAISAiAaISWAASAABAAAkBgCwmAaNxCmJAVEAACQAAIbAsCIBq3hRvACCAABIAAEPhbCIBo/Fs8CfUAAkAACAABGQEQjTIS8BcIAAEgAASAwBYQANG4BRAhCyAABIAAENhWBEA0bit3gDFAAAgAASCw0wmAaNzpHgT7gQAQAAJAYDkBEI3LicA+EAACQAAIAIFNEADRuAl4cCkQAAJAAAhsSwIgGrelW8AoIAAEgAAQ2KkEQDTuVM+B3UAACAABILAWARCNa5GB40AACAABIAAENkAAROMGoMElQAAIAAEgsK0JgGjc1u4B44AAEAACQGCnEQDRuNM8BvYCASAABIDAjwiAaPwRITgPBIAAEAACQOAnCIBo/AlYkBQIAAEgAAR2BAEQjTvCTWAkEAACQAAI7BQCIBp3iqfATiAABIAAEFgvARCN6yUF6YAAEAACQAAIrIMAiMZ1QIIkQAAIAAEgsKMIgGjcUe4CY4EAEAACQGC7EwDRuN09BPYBASAABIDAzxIA0fizxCA9EAACQAAIAIHvEADR+B04cAoIAAEgAAR2JAEQjTvSbWA0EAACQAAIbFcCIBq3q2fALiAABIAAENgoARCNGyUH1wEBIAAEgAAQWIUAiMZVoMAhIAAEgAAQ2NEEfo9ovFlaX52frKOtQbPaf6OkpoqV7uG0o8n9hPHW3lFPa54VpsTY/sRFf2dSPTPb5Nyy+qd3jv2d9du6Wmka+sbern5Wm8Jw2LpMf09OztcKaqsKb1nuNvhOeeYxWTX1NVmnrb6T5kenDqTklNVWFgR7UAk19Eyi04rqaotO7f3Rdes7b3ryXk192XW7zVi4vpIg1V9HAETjX+dSqBAQAAJA4J8nsEWiUc3ncQ9CaL79gb6ORBmqkG2cQPz+Gn1dLfpowIsJIW+qKeKf0Q0nbxYIcLQ49CLETQXLP7hj53a4ewEhxM5l/IO1/5kq77K70TRKIPS1/ubPXLY8rdP9z0Kk8iH5vMneltwrxzU11NXUVNLXjaikRCJOf1OR/z4TlUSr7aipOd59OSRcHEwIscewW0MkQoKRrL3fe0nicK9NgISf72/m1VFQ/bcFEXswKZyyychyz6thAULkq4zVTPz5Y7Z3WwVovt59MxYqlXqykEPRFX7JOaBKnUpjYmHTPofQWIPSBbC5gwmAaNzBzgPTgQAQAAJAYFUCWyMad/s2jgkJsQjnDWe66q4s6B8SjVq6tu7HwiLC3a0VGCw9wwqflGVfirZRHPtHt3RNrS/eKyovvHFEBkDXwNk7KCz46CrNRpbkz/zV0Xf2DgwN9tT/M8VrGHhFX39c9uRS+J7NGECLRmK+93kF9alpet/c3jOywBGSJFoaak6N9dDTUkgYSjQKF18+f1ZRUfX8VUv/xKIYEXNfq4IdDL9ng6ZuyI3iJf7Si2vHaS86Jj18wnqYYr7re+i2XDSq6xlHJGc/fZITtUVds79GNCLEHUw7aLqMJ4jGZUB2+i6Ixp3uQbAfCAABIAAElhPYEtHodDpjSUzMDbVOcMVT1THLy8Cwf0g0mjulvejmixYeRq7EAEdWIeDk/mSYIxisVhLZq6T6A4cc3B4PcfiDtXZ/oOytK5IWjYK2exIhpWlsam7r5O7ld/Lhyz4xIvnTX9JDzOWlUaJxvtNpjzmGqesZWrgc8s77soBIYXu2XOPL0yo2jKw86vt48x337X9G+G+5aFQYtEVbv0A0knyeQCwmJzuKPVUHvYJo3CKnbZdsQDRuF0+AHUAACAABILBVBLZANKrtSS3sJEhBwd2j1b0LiPfltPpy6/4h0Wi178GnSRKxQTQubwRr7Lsdfr6A0FDNthONzu4NlGG1m+roW6PSv++wqmhUKfd83aAYIdHAEytZX6OSaJSmtHeum0OI8/m+ypWqO3vTmrnEdPnxn1PX/6RoJMZb27pG50gRt/JqlPKMTxCNqm1qx++BaNzxLoQKAAEgAASAwDICmxeNhq4B9YMcYrLhmJbl5ZIWnETl1w8um9f4U6JRz8QsICyaGelnpa3ncMg3gsFkMpnRUWF+HnuVhrsZuh4KYjKZh1119xzwiWYyo8J8rHdLKqe528olICQimrqOyWREBnofNDXUVqq4w4koJiPIU0tT3eGgb0QUVUB0VLjvIQcNddnjsyS1tomr5/EoSUaMyIAjzkrZmB0LiYqODLbbs8fVKzCayWQEHXXxDWNeuP5ycJFE/FeP6NKD6S4aW5dwRnSIl7uxkhG6Vq7+odK8I0IC9poZKZetrWd22CdQcjqawQj1PaB8rVI2mL1nMDM68tgeS5M9B4PDo6hSI8OPOFtpUonMDvqGMGj7o0KOO5mrFIGpa1s6eYRF0qejGeEnPK0Uj7E6Dvv8GEym9wE7Y8u9AaGRVLbRjGDfg+by3iQdQze/UCYz8oCK3DM9GhgZHRnqYL2GvfpG+wMjmJH+1Ehda6fQqOiUm51chGY+X6SdFeymK/eUoZtXUBRtfXRUuM+BPVoaCkIHjkcxGcFuujpW+7zCaQ9GhRx3tDBWwzAdfXufoAja4Ogw/yNm2jQJZWRK2xraei5HAiLpNsaMZkQEHaPm4VnvDYmKTr7RwUVotv2SxLB9ejqy6wydD/mEya6JCgs86mImO4VhmK7jvhPRTKbnfm3rfceiopmMiBN7LCTnNXZZuwWF0T5iRkeG+O41l+eplIF0U9vO2YfBZB5zle4bHQthMsM9DfR0LV2PSzKJZgQcddHRWvGSRimz74hGI+sj9YN8hBYL6TmBGIatIhoDXi4icvpVnFKWyzbtnvQLuH1VjkqtxzOEyQjxMdCTuxLT1DY54HVcwowRGerlYroB0Whg4+ofImmvzIgQP1tzpvKcRkxLd693SDRTaeKwuqaF0+EQyR2E+oqH7JcKW1v/SCYj1NdIX9t2v7fUlfQXXFcarIuq48qeRk0TKw+/IEktohlRQV5u0mG7lgcimMzIoKOGeiqNbZfN3rAoZrivO3XjouY0EuPvb534784Yj2QPPY9wU0wWXSka1dQ1bZw9QsLprx5lfJC7nWKQsIm1Q2hkdGTgEWtjC8/jIXQTjQr2cqO/nXp2+7ylzTMqwsfdVv6VlXhOQ8vMwz80mv7eMyKCPZyWj5Vd5mDY3QABEI0bgAaXAAEgAASAwLYmsHnReCiqaEqEDxS5YxhmSY9THXyT46YqGX5KNNoc9G2fFiH2x/RLRe0jcyIC4QQiceH8eHd+fMguKU6n2yUDBEIfyq+87Z8jSMSbehPlRZ2z87v07GPPIk9EEiQiCESIObMjTawbNgrxkNjFRfyBupN3S76NzovEYoSo/OdGO4uuesq9pWVkdfpuZd/UEk6QOJ3P4vjX0mtBOpoS6eL3bJiHL40+ranunuKQJJXhzfdTqoFEEBoqpzKMuTknxIdfPNwnzV3T3ju2pqV3gY+TOIEQEvEWv74qjdgjf7pzu1P2cWyOgxMIxxFJEPzxl0Fyy1Q34usGEL7UVF7+8vMQV4gjEiGxcOzLc0ZA6JWcV6PzfIIqAeG8pc7aTAd9xXP8AWbG2+5xgZgkCZwgCBF76u2TGwdsJDZYJGQ2C0n0peF2/suuRb4YxxEiCd7cSMWNCOkzprlzxscJArFzo5UN8q7qZePsscTIA8pHFdt73B72LCD2p5MYhjGujfMo+IqPYOiuJZ29iduVnOcDM1ycIMW092dHPude8JHn86iDiwRDeWmFnwZnhGKqhjh/qePZfSeH0OzaL7McEUkgRJKChYk32adVG6M8Dyr+yPmc2r6JRTFBIrqCIm7nFQzDIq+McJcZNpxpSw/jNHFNfFDbOzonEBOIajkkLuBM9n28e9Zb5jzry5nfRAi1lsW/7J7GCVK40HWedp750fia5gGOACcRIghSzJv/8rrQx1VZcCrbtvtM6ls+gepvSw+6NYwgNFcbkfq0pX+JLyKpD7E4+S0n7nvhlb4jGjEty6S8ryKEPuRLwa4QjSbJL2dw4czTwLV7ER1vD4lFX/OSLCRRrmhj60aQYPSNk63sy4o5XSt+PTK9RHEmxIRYMN3flFv+U4FwNByORlc29y7wxCRBUK2CN/++4lX71JI8EA5mZHnl1TCORuRxcJxOP3zfPc4XUTcBRJK4kFeTKoEZ08ZBwrF3Fx8UdAzNCkSUH0lCvDjR8zQ9WO6DFaIxOPdN+/g8l2puYkQSOHd6oDLtFOU/s/CWOSSebovaK309QGeiH3Ghmi1GnY+j9JREo4OpSdD9Li4h6C+/JAe0UjSaJj763DvOE4olrQUXcgc+VYUekY4lPhh1YZyDs0cbS4tfTy7xEYEQgXNnBkqTQ/0ibjf3zVBGkgjhotn+5gvHXRRa1tLnfuWniQU+SSIxgQgRb7znzfVI2ZsJeeVhY3MEQDRujh9cDQSAABAAAtuPwKZFo9qNj7NIMJSuL3lmDnw7JRTMfGH4KD88/dycRplonJ1nzzfmntfRVMcMrM7mNgpxUjTfGxMgCagvFY0zE2O9jQUeOtInVjX7pK9sROLc3oob+2gTXKOvt44LSCQerIyWdVTRopHDEeC85sJER/rB7eTDpgUBidBc5glpv82R5NdLOEks9KaEUgMUXaIzuxdJxBu4tVvyvp8WjQIBb2m6tzJ1v7y6qw5PVRWNxo6Hn/UtkiTxpfqGC9U76nKnpltAInbzbUnZx4q+ICQefl96TF8Hw/Sc/C40vq0OXaPxUKKRIMUiwcjzm+6WmIm9N6t9jkSiyakFsYj3+j7D0hCzOpL8aUaI0GI9U6r41L2zx0SI5E3VpnhTav9Q+MtBLhKzn8dHUA+4mFQ0CpeWJj5Xhe3Xw/RMo7IauCJCON8bF0j3LW5eNNI1WmV4qpp5/J2PQoJcGmk977VXA8OOnckeWBAj0XCah9SHlGgU4SKC/yabaW2EWXrEvR0TIsTt7VsSLgzeO3tQWxM7dqZ4iIMjNHlXdtUyhOoXn4kQudBdH3XIEMO09hyMLP34PFmWaJXhqdqm53M+CAjEn+nJiD2ko4npmJgnP37PFZHChb7/guzpS6WicWpsbPDDE79d0t5bNfVzX5YQKWK3lFywwDAju6MFzRMkKewojTeTyU1ZyZK/q4pGAWcRn/z8JMDNDMMsY/M/cMQI8b+eX7uv8XuiETOJTWniEajnhVSY0qKxy83RWlNT1+FQ1OOWUZIQfq25aKHo4lK1EcPUrtUhMefpJQbdbKRnVUSjmvHZxx0IkZzhT9cDzTFM09bjdGPfAkm9Klhv9FQ98z1PuuZIkhxsyj5qa4RhmN/lJ4MLIuqFiyx66nLRqHbuKx/hC333Y6jefkNrt6SCd4+lkWhp0cjj8UWcb1VpB+gvb0Ba/TSPRGiBFSWluUI03hwU8zsbHgaYGWKa+t5Jj6e5uHCxP8GXapPHqgcRYn+4oFBfmrsss1qnEd6fLol/JetpdDDF9E2tano4CHErz0nHNqwUjTY1A5zJrpxzxynj93o9+TKFSNGnjIuSO41ENJI84fxA01lvMw1tg9i7zxYEhEg8OzXFmXiXfcQGM7A6kvt+GCG8vy7VXuJBtYP5TeOIxEdbK3xtdmlo68fcqZsXELypDwxH2d1xuYdhfyMEQDRuhBpcAwSAABAAAtuZwGZFo+35HjYx2/JQTzasK4jVj4vZL5KDlQfNbaSnERFvc8JNFcP39CMf94hIfms6Q5d6qJOKxvHWp0es5YnMbryZIEXsZ/dPaUv7Ayn2Fm6x70a5pHDkkuSpHqNEIyK4H28cVzwMa5mdy2kUEeTnsmvUoDG9gKZJXDjTfMZB8TDsfvbRtBBN1EtC3FCiEZHi/oo0Q+VVRtYhGr2uN7Fx0UhZHPXwS3/0LPY9/jBFEhPph6n9rOZZJJiP1x87AAAgAElEQVRNjfFbWwtIL8QwjBKNiJhtznM0kPUi7j7bxUMICfryTsqLcD9Tv4SjmaZz1JXazo9aZwnBTEmij468DJfTX9losavQ1FhbLhoX+hqDXKWjfjHMOad1BokWn5wLpYj/MtFo7hT+YZJPLHyKdpRVU9Mo8nY1V0x+Yp2TuIwSjUg08vS0vIKOfvcnqMUluLUXZJFYdW2SWV1iEr164CvLSOVvTFkXwrlN106qDtuVplkpGs0dQ1unhMRC11lP5c5Lc0bBZxEpbM/5bzflAalonOtu8FdEhtl9tpIq62UW00jmJWyX97NxoWDinZe1Ypiikn2rikbE7ik6JkuubbLn0atxAuFVVPfo6p/vikaN8IsP2CJV0ajo9qW2FnpepzA9LWQvZVaW4Z/3nhTM3zyvQlhZNBoeO9sxyxdMdyd5OShGrZscKxrkrl802p17vkSIxl+mKy3BqH0gOmuMI15TNDIKlxAx8eGOvam8icvNp0QjIvif78coHKmhH3qtYklETry7L+n8XSEaQxIS/OXtDcP2ZDcNkcLF2/FUP63ZgeQ+LrnYcc9SVojZgfP9HHz6pcw3SqIRw3QORWePcsScwTchdpQ7V4pGw9OJvi4K67AjD2YROdWa4USrRoloFHPH0sOcpL2IuvsLm8cQIufbK49Zycx0TB4RIe7wC3dHEwzTPMBIH+OIF3orveRW6tql1H8jRZy8pAB5w5TVAP5unACIxo2zgyuBABAAAkBgexLYpGgMKu4Wi5fqk4IUcfvtrvfzyKUveXpKUmojolEwkKQaYBCzujUgIGc+pRtQqlEqGl8+iJBLRswqpnVBxJtojvJUiEEKu7b99cdfcRJV3TxEe4ESjfh08yFDhSCkntvCU6YE+HTrYx8TDIup5SBRb0GigaJimI27V/u0GE3U070JtGjkT6czfVSeSdchGh90cBC79+ReZSOtLz38LCZR9U1qqKFnfjtOiIY+1l9hHJI9/a3ZfOieRs6b5Eh9hR06T3sFiD90k34elVzpeCBqgI347Q+oXY/43iXhUl9jqJ0CHoZhxd8EaLEr3NRYLhpbSuMV8xwxzLqgDZG8j0knKdN/mWh0PdkwT4h6S+jRxrJ6G55MmeSJJ5tL6YXcMbqncbxgvyLyp6XT0bZpMeK0RSvqpM1MKeaJUXMpLZVlWcn/mifWckl8vvv93f9C5F3F8rMrRaMTo36eIIYr/ORppBsWyb0CxOl5bEt1GsqGp5acUvQgmoe/GmEL5jrj/GSCj77y+KsJJB7PsV/W0CW5rioaee/jXJRKNz2X1iwg0fs8xcBdpbPU5ndFo3HMtRc8HH2tviq5iupp5IxcjD8bFhZ2NvFSXmXT6IJYxJ56l3tOxW6lMs48biN4s9dPq4RXVRKNGv7nM+YF5MCLW/KhmJKr3fK6ROvuaUx4O4t4ozePqo6SNQ571b/28FSz850cJFzoL89KOKIy7ZYaL97GQcR8V+heFfKGPqc7Zvmc0aZIulmtEI0Ypqltdyw4PiktJ6+gvLKud3IJiTn3rkRgGKZpZHH37QQuGrsrI3G8uEcsnMw7IdO5KqIRw4wcbtR3k4TgXX6cud4qopHqYDSzC4mNv3E3p7i0vLq2l0dp+AeuNAPp8NTB+hOKe5jmf6XNiBB+yEowU9wKLBrGkXiq9ZCzJaZpfPr+Zz4paLypgtH0Vi0iRa33LsqFpJJ7YXODBEA0bhAcXAYEgAAQAALblsCmRKNa8PsZaoTYKh9iPFdJkm1ENLI/rli04gI1F7G/1pAKsCEVjaXSx10asN/lUb54trPMf8XjT8ytIhGB6h9E0emkcxqN5F1zEvf4XhrhixcHG4JdMSyvdZVKSQ6xm+lcJHMah8+GyCYqSjJZh2h8Nb5m3i9zJGveWz14N0lNAEOIN/E1N+Go8mJ6knLk/0vmNNafD1M8PWJYficXzbaZS0fSUmnt3T17FxEaqqR2mNen+PjqRggGb5uZyEVjYy5TXhC1kf0BIf7ny7GUlP1lovFAzpdl69HLTZ1rr6aG62G0aBQMZVgrJgSaOe7/MC5Ew9XKBkdezeKK0Zda6VQ25VOS7fjHXzk4Sa1FvzRadjPGRE8xM2+laHR72C5Ei02xyyUIhmH1o0gw8srOwkguGutuKZV2NK5jni+vherGXK3Dqut3rioa52odqUg9ss/uMzeoeY+fSmNlR5b//Z5o1Le+XN4vRqjxgeRlyiqBcExsfJtGBAjNF4avPnzxR6LRJOYaNQK2uWD5nNyfCoRTO4LQTJurg+IdAV3PIJVAOCvmNFqeLR5lEySJCBH/c83do+aGsjpI5zS62qvGgDnEbJ7k8uc7445S2S8Tjeo2QRXdHGr2I0kQBIGLhdRkWploxDD9iMRathi1P2ZQpaiFfZhHS72Vrrayty7LRCOGYVb/dXBJtNR3ed+e5T2NauoeF8uneFRhVGk4jvOF1NhZVdG41F2p/GblZMFbJOY9vCa5y0lbQtUwQovdh93sMP3dic+H1vjai3uyr+3sMMHLG/4f3gfR+IcdAMUDASAABIDAlhPYhGjUsDnzgCMmF0a66ytVPo3vBvg4Gq+PlveSbZFovNErRIsd9wx0NVYXjd6Xhvni+e7KFcH/deMyqkUEepYVQgNcQzQGJU/wxXMdlQHmGPawBSF8/sunWpWa0Tusm3Rn18ZFY8MoQoL5Z3Wr5J0cI+lIwzR1TfyYlwqfvOwenRPhgpE39/cte2CWNYWNiEZGyhRfLJgbe7+ydk+zI430/6xodL/fLkD4fHfDSuuK71yURH2RBMLZvGjEtPTdgs9nF9W19U8KxPhCV3Wgo7SnchXReO+zALHfXVyp8eyaphF/6LktNflP2tOoIhoPn/kyxxfz51qbVtap6JL5sk44iWt/uWg0cT7xeoyHeP3JVBAr6rMiEA6GaVhefEDF9Xmf5y9NpPqHWfKJ4M/dOHNM+bBST6NxTPJrHoE+PFoeGMnhwZf19zTWDiPx1KeD9op3BFRxeiHPexfXHJ5KpdC0cQq4nlXU+ImKoCNe6MkMd6LfCqwhGj1jWmd4vMnmk7SHVUSjycH8j2O4aKm5Lu/q+WiPw26m+lhaXYeSaMR2eZxqm+SxB18E7cbs4ss4OP9lZuwueQialaIRw1z/K5kR4HPtOcccbNrnEBprkGC0OZU7IyZm+1sK7iSfCvJwsjbTxFKHNi0aE54N4kg8/nllIyzPOhWiKqCV/QnbP00ARONPI4MLgAAQAAJAYJsT2Lho1LZLefyFIFFdxvFlk2HsDjO/zIoQr+u0bBjURkSjuO+y7HIJw90xL/hI1Pf4FN0btFpPo3FUy6xQONt5yk/1SmPn2w2DBBIXx0um50mGp7Z4KvWFYpiW5+Vinpjsq8uiZtJF1SwhUXdBrIGi52mZJzcuGu98XkLs7thdysNTl2Uu3zXY6xHFejdGIGFVCj3fUX5GtrER0Xgw/tuScLHvebAqJ1mWikA43+tpNHW682aMQILC08rXRb2b5K03eip93cpAOK7BtXM40VO6Xynf5ZtbJhqlGetYufjff9opIoiPRTGSYytF497j5XM4Mfs6cbk1HvfHcXKmJcNql8bqotEw+EX/En+u66yfYsjq8kyW7/9q0eh8q76PT4gGyyPkM+dWEY3alhcLeyjRmLtiUC5tsFnmayRaKrgQpnwTUBKNmsGJOYsiNNKYuaytJb1dINc9PDWDinY6nuWt0hlm6nPu26zgu6JRytTIwun07aJ5Pj7bWUarW8nw1K+Re5U7jdX3nbw5wSVmPz+RiGgV0eh3pn2OvzTwPFChAm3uvxpUFo2Y5u5bL/tw3uSNk5EPXg2J2ANJgfL5wIolNxyUxJmmge2thkERwe0sSWqbUYjGy+WtpIhdkBykLR9oejBrapOiUcMoNv0Tn8Bfp6/6kmJ5+4P9zRAA0bgZev/6tWrqGhoaGupqspERq/KQJlq2TNiqSZcfVKOvVZffXJaf38r99ZSlpqZGVXj5kmfKZkiJKB/ahttq6pSd6t/3ySYctw2rDCb9awQ2LBpN9nk3jXAROZq68tnexDWrcZhEqOqWNDzGRkQj9Zx61lB221Q3O/58VID40w+ivOlwGquJRgw7Vd1HIvHAs2RDXemifmpq6i5Hbwws4eRMo2RkIyYJhIPEHQ/cZd9uNV3bA6Wfp0hEll+XDDf1fDNBorkvJ3cZym/dampq6uryG+2PRGOU0g1fNXrq4Stv2AhN1J5SurlQWWvI8qZKUdx2jM/fbhAS6JV05OryFroR0Yg55LbMI8FcyZlAXXlBktpJgUujp35PNGJWSZmfRSTqfJpsJLlKTcc3MZ8tJDciGmtt5bwsnA42T+CI0xpjo64mawAqgLZoeCrtTlkBmNrxCxlLQrJDNpbV2b1+HqHhOge5YSZ7XF8NcxHiFJ+xUrQKdad7b8aQmF17IZIeibhaTyOG/VfRjXBuY+YpE21ZfirAl7sVw36JaFSjG7GG1ZG8j9Qgaf7wa2+lMDzLRKOaurqFfVTbFI7Iufy1ovcGF8yTwrb0eOVOQCXRiBkFnBtYEIjYw0kRe6XNRE1Nw+fRJDVIVxE99fuPSXtSPlDcv2Rby74YatqmZ+9/5BPfiZ5Kf4vksL1Ot8/w2YOvwyjSlGhECO8uCZblh2mZWN1tHMYR+f6htLdfRTQGxnUuCJYGXwRJvi9qavbB5/sWBCqiEcOws4+FhLDl05epWf7c59KDyl5draeRWiIo8PzAvFAsXpqdE8h7Gm/UtCMR58GVYIn5aur2abU9dFwilTmNPzc8FcMOMZLGOcTSQLWvqfxrj0m+WTJOO+PZTJnr9tzeGtHo4ht67lwcM8TDysx4Yx8j4106Out/U6UC0/agL7UAqOonOircZY/SuxCVK2BnSwi4ZD7rJ8W84qthivn5KzNm5LAROdGS5bpyPv7KxCpHDE5eaOUj1PJI5eiv2dEJPlO3iKPWvO9l7xZ8emgR54/Wrz6cBcMMjMqmERpvXP3N5fey/r3nIu7VIhL/kp+87BWpihVhmUuIHHySoYi0rXIadoDAtiawYdF4+GT+jADxvtxbOVYPw/RP3KgQEuRIU94BeojqRkSjcG5qevZTdU7MyeizCVdfdk4SpLjrxd390tAVq4tGzDSgpG1ShIum22quJ0Qzo6Ov5VUPL4p401/vRMktpXsa2QtzfO6XZ48SzjCZ0dca2idFYv5I0115d57X5eIxjki8NFKTe/0sg8GMjr6Z+6SjuyXNWDJJaQ3RqGWVVNAiJlFvY/45BjM6iH4AVRWNJjbHnnwYJUjxSEvt9UQq77jzaZWNHcNvpQsCZL362vys4OJ/TAaDGX/pUdf4kmCuK1FlAKCiUW1INGImfkltUzycP/ep7mFCNAXqQnrW69bOirOSuZHrEY2Ya+T1MY5YzJ15XnQjhslMyq4bGB6f4ot/SjTa7bvcs4SjuS+ZiczoyCBXXW1Mb3dExrN5IcGb7mXduhbDYDBPx6UX1fXPdsjnJm5JT+Pp4vff3j5NuXCWyWCcjb/1pntazBnPYki7s2ycL35bxNF8xz3KsGA3PR1M09AnsXCULRZzpp4XpsUyGafPJVQ29wvFwr63hUeksVJXF42YM6O6dwEXcbrfVFyhgTOTb9e++/Lu6lmlnieFW7dUNIqHnl+mHv3OJWXk5FY1dcxwhCTOH2ytjjqiFNFUMjyVM3r1UgKTyYxLulpY/XZ8EScEC615F+S9kcom0tu+b2bwmdacPWaKTnll0YhhDucLPnEJkjPeWZB+nsk4df1e5fjs1LeOCbFCNO66/XIQ505cYyqH+VEUZWjqV9E6iZP4RFvtDep7nZDb8GW8Z2KKs3ZP48lHPT0fc1IvxUQzmLFxxS86+SJuy6NTNG26p5HLnuex+xuLL8UxmdFXKpvHBLhgvPmRPKaQimjc41f9dYbEBe0N2edjmHGpuW39I+MrRSN2oHSAx+cLxWJ2bbyDogIq6zSqHMYw06jM99IJr7LhqUeTK7kEyR7/kn3xPDPmbEF921T/+OImexoxDDN1vVbdISTwmb6W+xfo+8t/STkVbwf6XknmUpt5Vc3hvOYby8cSL7MYdn9IYCtEo6Nvcfs4QsT4+zv77TemGY03IxpjiptVp19Te4Rg/uY5xXLGPwQBCX6egEtGHSUai67QYcrXuh5E41pk/txxEI1/jj2U/JsIbFg0pr+dJhDnTaJciakYrOUW38MTi2Y6mb5U3I6NiEb2x8xTN1sGZkmCQCTBnxlsyEvYZyd/dl1DNGKYsaNPSm7D5JIQkSQiSTGf/bWJde6Ei9LQB8mcxlcnErJbBufEdGgI7uxI/cOLh6zlM5AwLX3jgIS7rUNzAmrZd2pRct78xNvHN92kyw+sIRoxdYtDjNqOGQFBXcT/WkxxURWNGKZl5eh/r/rTLFtArXZOIELAG/v67nasNKZOYvEHpVOc/g8VCf6uysP/lFlvTDRScTWPxz5538MWUpQQgYv57J735ScP2tMduesSjZi+pWd8TucEvdw5gdiTXx8lZb4Y4vyUaNTWN0u492yeR7kBX+xNtqDeYmvtsvVNzOkcWaTWKCcIkiDYU8MvSi/L1+DYEtF4/EbN2IKAoIsgRPzRrqa0CC95mFAtvd3/ZdTOcSWG9aVIgu7om3v4J9S0j9FLxhMkgS9O9FTcOnlgj/y6NUQjhpkeDMmq+rQgCUFEkmIhf6T91YWA/Wt4dgt7GlUe/QScxd5PL9JjIt3tlw9TpHoalT8EPj/SnnuFYU+FnlrzE1gxImb3XXJQRCJVFY0Ytssp+nZl/zSbCu1E4JzJnsfXwvzvtQnkotE0qL5vkT3cFLZWF4aaptWh6MJXXzl8MdVcxfyJjvr4gKTG3oU1h6f6XW4fmheJqbsHQRBLE73ld5jO0vwlcxo/xV59+KZnRkTfAQSL003FN3wc9eX1VBGNmO7eQ7GVbRMCEUIEEi9M1mTEFzb1Le9pxLD9Nz5yEcLHGpyW9e+s0dNIFWfiUkyF2FEMT8WMHSPTKwbmqfsDjuMjn2tj/As3O6eRrpiO1b7o9PKBaS7tCyqez8JI9+M7JyWxw/zKBoilXuZ+lWHAciCwsX4CmxeNpqEX8+b51DfmT4pGgv8uLW6N11rrpwEpfwEBEI2/AKpyloGpT78N9Rf6qAwYUU6wchtE40omcOQvI7Bh0fjrONgc9G2fFqFVoqduVZlrBMLZquwhHyDwLxGw2HPm2wIaaYiTDXH86cqrBcV3Lwr765N/+soNXiARje+WR0/dYG4ql9mcb1pE+LcCWXAhlZPbfEetagDNdWa7rv4mcJsbv73M26xotHD0L22fWRoYXQDRuL08u22sAdH4i12R2sxGoqkSXxCNvxg0ZL+jCIBo3FHuAmOBwPYjoG96pugDnzeWE2SnGKL6E2Zq+sXdm+cvsU7KxxH8xMUbSvrLRONun4ZRXDz35Zyzot91Qxb+iYvML3zjCd9nx5spxlv8CTP+ijI3KxpPPfrIXhjLYdaMgWj8KxrE1lcCROPWM1XJEUSjCg7YAQI0ARCN0BCAABDYHAE1E+fwV/1LM99qAvYqLxe6zlx3x11vFky/ObpsPOc6r95Isl8iGnUtXS49+SIgRF3FN6z16FHeG7Htz10T/5gvmL9zxvG3BFX8c9X8LSVvSjSaxLAWSHFv7Q0X6/vbVjQaWdi9GhEgTnu8we74grf0BANSODfw5KqXPLgYhqmZHwwqaxmVDAFHIu5AY45kcr6VXfUsQqMvVKbPnoi7Ni9Ao2/vSXxkaStJc8gs8ObXGQFCSHZGzdA0oKJ1XIyTCJHC+cGnyb7y0GQr/WthU0WV9fKwyeHEpt5ZnESEkN1SfN7GGNM02HXxyftFas4AlU/ZNV8l4zFMTc3yeNL7YTZOUKPHuTODWaeO6ctHVKRWIiTuyUlxcIp89m1OQKeZ6X8f46V4Y8TMa0KksDkzQTlajVl6iwAJO3LlARSWm5xS0UKKOPcuyOdXY2pqFv89fDW2KKAm3Yh4XxsynC4VfT8QjpqaYUDcw+5pNjXHAyH+4jTrQhgdY0IaCOfTI003/+R2KrYbQrhorK3CXxEfizJJTd3xYs7LsUU+NZadJPmzQw1ZDHnoMAzTj06gAuq05qrYf/XJe4QLC9NP0UdXCYSjZuQYd//5HJtejVnMHf1QcinuzDoD4ejouxY29fKoKpH82b4n108sN9nKL+/tAF9M1Ynkzzc+Om8jX55XxUzJjpquW1zd51FqGgNCBH+xszoJw7ROnKpZoHOgcqE/S4OlnvR8ewMLtxulb9g82nhCPD/6+T9/G3mLkA1PvbbHg/m8c5YvIT/TnXXWT2HFKoFw1LR0jpR8GKVW/kVItDhWkx7ynfa8Sj3gEBD4XQRANP4u0lAOEAAC24TAlovGmFZ6TiJCJHu0MWLvNqkmmPHHCGxYNJrsOXr6zeASe7Q1zm+vsfG2F43c/pq6vrGBL/VVlXX1H8YWBCQ+V3Vhv2Rq8G6fpM4ZvmB24O3zqqqKujctXYPfnofTTlm/aBxveda3wOlueVNbVZV6kpoCfOBk9gCH5C+Mv3/+rKK6rr1vUkQI2liJVooJySqOl4jGmY5XvVPTLU0NVVWvvo4u4gS3oyj+wfvx2YneF3W1tc8+jNLGV8oCWKlr6QVfLZnkiHhzg2/rK6oqX3aNLIp5M89SgqS5U6IRH/v8dWBgtLf1dVVlTVP7oJAgF/oawmTzxbdCNKoZW3oVvhkkCdFk76eGmvKa2te947NDX4f4a0dPVdfUi739Ykkonulto2yvfNnaPdh4O4GeuywVjcPvHn4dHf/0sqG6pvZz37SIIJf6av0ls5vVNCwPx9R2TZO4YLjzw7Oq8uqa2i+DUyJcPPmx4LCNZLmwjYhGzd3ut5/3CcSiqb6255VVVfVN3WNLk1PjbB7xw+ipU1/Kmie4I12UPTW1rwdnOATBay9iWEmm3KtpOBy/+GFkiRAstr9vKK+ofNsxzBMJBp6nq4Ykk7cNnb0nc6bEJHu6/1V9dVlldWNb90hzHoZp7PO8VFJR1T0nRoRg5MObqqoqVs5/jlYYpq17+u2okDv79WNjZWXVs3ftCyLEn2o9fVA6op8WjcRgd1ff8MRAG5Wm8mXzOFtM8KbLL8oCkC8XjYauYXd62UiwNNXyuqG8svpTNxWTracm2W49q7LJawMbQOC3ENiGonG3ncvdwvIq1s0138NtlkzAvSdVT7Mv6+nAMKzNooTrgcAOJHDs9uOqsrxUa7Ot+lX2uFlcVVVZ8TgnNWD1+K87EBKYvAkCGxSN5nZ7M+u7BMK5ystHrKiAqX9aNJL4XG/nyzrFpzw/TfLDLO1pxPGpjuooN1ttDXUNLdOTNwsXBMTSQEOgOQXv/MtpUjxbG3vchBpFoGlsYX/46EH6DLZ+0SjgL354xNxrbizpvDc9yPg0whGy+7JiDu3W1VJT17Q5HPO8d17EHr4Uar+qyySikRAvPE8+amGsg2H6rj6RLZMCJOAuzn9Ni3TW1dLQ0DKLvfl0QUjOtZdIVhEzdktsmxWKx9+f8tpnQq19oe/sFdE0zMUXWpiSgFqUaCQJweyL27HOlgYYpmlkuy+zZRoR/I9p0olwWyAatfQj7jeyxeT0pzx/Z0ttDUxdw9DJJ66hexatLRr1jHe/GhWh+c+ezlb0uh36lk4HDjjY0ttS0SjgTORfCrDQ01ZT07A+dO5V3wIhWroXT/X9auoZZb0aFpOCtqLY/Xt2a6pjauoadvtCS94Nkzi/4WYMDWAjojH0YRsXF4823TviYk0Zo2Pk5BnKapsiEPqhaBSJ+D3VCe72ploamLq6wb6oay3jHJw/eZ32u6auXUHLLC6crDjrY7ubanAm9h53ng+KxEuVEnuXN479OQ1UdViprgY6GpiamqG145FDzvJUqwxP1dYNe1x2OTbAgf7l0N5le4LVKyR5H9O8JVdRohEhgjtdl3Xe1Zr+ddEzPxqU0DWPi+c/UW88MAxTFY0mzgEvv80T4on8uCPmBjpU5/b+8IrPE4Ro/vYphTGSS+F/IPDHCWxD0fjHmYABQAAIAAEgAAQ2TGBDotHEJCy/Q4gEX/LDZCts/GnRSA1LpKIPyz9LA68kXYVS0YjmSyT7ElQHmB8nOIKFLsmqHJfezSHRbHmos3y9XTnQ9YtGNPH6iPwyzJCR9JKDo4GaRMUxDAt4+BoRgpc3z8qDWCuflYhGUTdLcdDANPHFEI5Qd9U5xUH/022zAt7E+yj60NGaIYTYjReVF6I2PHXpA49Ejen0gERKNKK5LpabrSK6tKlF5QxCY6+OSrLdvGjUMTYt6+Egfs9FhaHUlvn1su+IRn0T03eTCM03+6uvHOcoFY3z7zKVcSU//oBwYVn6aR0MM9x1a4CPRN9KVMvEsOOZswjNfys4SMnzDYhGv7dzCJ9u93ZXDral7sW4McX7sWhEk29VFx7TTyxsQYT4ZWa8MYYZHKDWcpx5rxJO7XD4uTEOYn+6u7wi1P6h/FejpJifnei2sn1iGLaKaJTmIl2yW11dXd/wKbWA5JsTkjMS0TjXWeyhHIBaQzu69JsQid+n0c1GRTRqBpysXhCjxTcqZnvdLEck0ZJ7RdLvu5rxcAwI/BkCIBr/DHcoFQgAASAABP5SAj8vGs32+F2vnROJB5uK3Owtt4toXHvJDfmcxjgVFwbWdS6IOMOXI6mjZpGZ3XN8UjD3oTznbLC/m41ikZ/1i8aZd0ol6JomlPeJkOBTSbTKp6YNIVFn1mVrFWOkOxLROPnquNJJk9NXPguQuEH5Wd098s0YW7Dw5awblbC4W4x4Uw9TLikVdDqH1cEn0LeyaCoFPTy1r/iGvdKQpV3mdwYFiNspXcx+86LRyDTs2xLidxUqGU9vfjcQjrqO/pmCd2whwZ/sLr1zMcznkA09nZG+UioaP+cp3HPrU1kAACAASURBVIFhGCP7BSJFrQ8uWmGYydmmJSTqypVKX6WiPRpnkWiyxXOf5UZEo1v6NCKn23LcVf3kFnx6PXMap94rtQTaJsPkJwjh3/JvOGCYYd5XAgl6C9OV/BV9LatgmkcIhutWW1pUxzexYIpLCNgTjSV3I4P9na12K3lyNdGopm7n7pNw437D+9aeoSk2RyimZyGqiEaS6Cq4rtrlrXmcVoZD1fQIVWXRqKEdlf9ViIRdT5Wtjo5++hYhou/xHehqVGp7sLktCIBo3BZuACOAABAAAkDgbyHw86LxxPnWKR4ixJM9X16/kH8G+Yjkz/W/a3xRfPecTEn+xF8j4106OhuMMBVT3Iw2Jxo1tHT2hcQXNX7lCEkRb3Gg/W1GnJckVNb6RePoC6U1DwzMkugeQlmAEuW/4u77V6lloVd8JKJx9IXyhBeJaORWKssQWjQKl3rivagsqoaVM1fZ7q3+j0pBiUZxT3aKcq/SlotGE7Pbg3w0q6ycJRX8rmjEMDVDM/uoiw+a+6dFOM6dG217kRdySBKhRyoaWx6pkFIWjbvSmvmI03xVmZg0cfkQEk22eu6z2ohojHjARsTwswwXA5Wi1ykaxxv9VC7DMOxqKUJET9FNRwwzqhhQcZLSjmD8ecDyK+l9HXPPoMQnb7u5QhznLfZ+fH49TDH/cWVPo/bRpLcDc2Ixb7jjQ3VJ1tW408zod4vLehpJ/Et+sp1KcVLROFYfSx1WFo2a2szKPtWYO3K7yaGnmfTrC5W8YAcI/FkCIBr/LH8oHQgAASAABP4yAj8vGk9e7V0UyEeByjZI+hGSJElioOnBT4hFWdI/KxrlTtUx3J9e1coVkSL2UFIwtbSOTDQqCUIMO3EuZbXoqUpp9EwTq/rFiFtxWp73jzc2JhqLehGa7/FwU33+Vy5to6LR/Nan9UdPNTG9PshD3M4CeYhOiQlqcUWitec0Kpmp4eRxrql3DiFi7F2mixmGYT8WjSYJbzhI1Fm0sn+O0cJG/LE3R11NNyIaw+6zETnVlr1ftafxYNi5UfaPA+GMNy0XjSH36hGJf3p42QrDjPK/IbTUGLCyd1QJxlqb9sezGvp4CKHFL7Ey0CtFI31kuiT2kDwbXf0Vw1NXEY1a4WeauQh1SLqflUWjhjaj+JsQ8V4lyLOEDSCwrQmAaNzW7gHjgAAQAAJAYKcR+HnRKJN5qn//9JzGzfU0qnrN+m5DPxJxsi5HYBhmYZsxKkSLHffky1NoaO++8qhLSK5cckNJNGJ6ofHliyLUUR60e92Lwm5MNPoWfBOJ5+vPKNa9UK3Ounoa3dJqCBLvfZpurydbyUbXOvXzAlr3khu6xmbVA3zEHUjbb6owQM88pabzO3MaFSklWyanPnORcKL5qJvFekSjgXHslwUxPv7mqL1yN7Wu4/nHbJIYfHHXiYqEoxN2ro6No8GGM/JxrrqmvtWtM2svuRH8YRGJ5r+eP6EYv6mmofdfxic+8eM5jfjk28OU6JV+dHcfLn0/Roq59+OpFqJ/5NGYEB97kaiURJZ0HX/VtHQv1A3hiPsiXpp6pWh8Oojw2U7/w/KuZeNj2V38ZT2NiJxrL/OxVUTy1TDZV9A1jwSDdyRB0pRFI6bhE1kwIyCHX4SbKybGrsNcSAIE/hABEI1/CDwUCwSAABAAAn8nARCNlF/Dr9xNiDhChabE1Hfb+5a3TxD8ubQzVHxOAzP3ukEuEi08v86wN8GwXfan0lj9C9Q6hCvWaVQWjZjJwah3o2wRe7Tq3kV3E3qYo5GpR+h/mVnXPNZoSxsTjcYusa3TIsFMZ96N085mlAbQ1LI6zky6lxYjLWcdPY2Y7ZUhIRIu9uUmHd+FYYZWLgnZrxaoZQTXu06jmqbBmTsfeTgx21t//oSLnhampeOUcL92eJotXrunUUdP/9K1a/4HJGrOwD3w5ggfLXx7csBeZz2iUV1LP7HgEw/HJz5X/BfoqqeFqWtqB8TdbR1axAUz907uo6OwqjkFXxxYFImXRrJjjhrrYFo2B2+wGud4+NqiUdurqE9Eimc6auJPOFFMzfcn3ivrneUROPnD6KmIEI6+KWQe3auDYZrWB1KfvF0Q4Jy+Zz60TNTUscv+MEkI5t4U3Dqxz1KLWmdSw80vMj0zNXD1huF4Kj7lfPA+CSNNp6DSlllCNJYlk4QBz8YQwW25w5BfndnOR6KFupxEGyrsq3XUlZKxRSG+XDQiUsBuqXkYSAtrM7fj92t7ODg++uKCVFqriEbM0Nm/rnueFEzXZ189YkEn0Tc5EHj2fsFtX7pgzcMXSqorHyaoxgCS2wQbQOD3EtiEaDTwiU6tqa27FL3KuPffW4mdVprWrsDzGdW1VRdD1x75stPqBPb+bQQcvTNZFRWlmd6KSR4/qqKGrltQQkFZdV1dTV5q6G7Fu9YfXbjDzkfm19U9yT5lJQm8v8OMB3N/B4G/RTTKJ1gpNkTfMql4M+sJhJPZxpZeJxJRGyQ5+irTUcrfMCLx5RJ9GOE4FaRVuPT168clwQ9EIyU0TuXPiiUDdxGS5IwQd+wNHXxnFe9uTDRimI5/TOEsj16gXVEOyemQLWa/HtGIYVHlAxJjSYRwApHC+RdVLesfnkrVx9b3aee0tMJ0fUn+eP6jd+y1RaOBiWnrjAQ5EtNz5gghJy/Rl+7N+vHwVKpQm2PFrZOkpFQZZBJfeHVTeYzovszaIWXDhLNd73vG1xaN1GIeOZ+oBTYQotxOEIgQ8969q1hPIJzxllf9Aqo0SY0QIkVzny8oPURZHYtom+RK7ZEn4nZdWKVRYBjmWdI4STMixDhlEUnwu4oVElFv36Mxiedw4Xx/qacLphfyZEoky55AJMntLHi+PHoqiY8MdUzOCamcCcl0RXK+t/4orSEpQ1RFI4ZhpuF3p+XtWUhfiJCY13GGNju+kXbk2MvVKwFHgcDvJbAJ0ehy9/EggVB/TebvXJks4MojAU4i8WJtTNBq3fm54whNt543UB5U8XuR/rg0S7f7LZMkQh/LlEO3/fi6zaR4MUbfplf/j9+WFKOIrbaZYuDaHUDA4sLtLhFCz+9811aP059neLyZtti13t+vuNom4MEIXxKjXzzcmGKrHM99ReJteSCwrmtBxBmix899x8C0IYQWuu85K4eNX5HcMq56VrjQcOl33h1XGAEH/hCBrRKNZ4rr60runnKwVh21uu69zcxpPHY+vXqVT0UWM3AXhukZm6bkllU/yVAdvrn/8r3Siie5QfSr5MOM67klZVVV1dXVVeWPi9MTw1SWENCzPHEu7XE5XcaT0tSYYz4+ISXl1XmpTInXjHdfKq6uzrsm6/pR8qWBa9idR6xKKufqyorywnupwR7yga5K6ehN411JdD6KIZEYpu8VdLes+slFZevtDqfmPy5//MDfSZ6DrtuJszlFjyUFVZU9zbl16ZgTNSeT+oRfrK6ufBAbqjweUt8oKqes+kmm5IGfSqWhrReSeJtVVklBKH2UGOJiFHmrrLo884yyPZIcpf+HXrhdVfHk5HGle4fFoQu3c6g8qqsrnxQlhB408Ip9XF1VcOuktcwc5Sy0dPTOptx/LL2g8knh/XMBe2Vv8XSOHr9TVl19S3Ve6JHYa9VVFbdPnVC6b5sFJ2WUPqVLraoqeXQ32sNCuRRq29jlTKrMsOLcGC+nyIS06sryuEjJfEhNd+/LrMrqOwoemL6V07nUnHI614rH+ZcZh13cvR6xKsvyrrouz126r6OXWFRdnX/DVXtv0K082h1VlfmZlz0slYyl0xo6+954WCypd3VlWcmjjFgfJYwq+ZsHnEwplra/6rLHJSmng3brKwY9q2loesdef1xeUV1dVZJ1xt4cw9Q0nI6fz2FRTbbiaemN2GNa2gmUYan7JBkfYl6urq7MOBvl7Xsqu5Ru2RVPC+4kHbJXivxzMPpxdVVOQrTyvE4NhxPp2SUV0vZcUXQ/PfKY9OdF81BCYUVZ1n8r55eqVAZ2gMDvIbAJ0WjgzUipqKq+GKWYFfwbbJaKRoT4428CHOhBEiql7gTRqGVyIu52RVV5YvCqsd5U6rNVO9fy5T//r7oH2SRCY93yI2V3Thzbzip7qyDsPeATfMJHT0fxu7BVOW/bfLT19noeDzpxRPa8QBn6i0SjeX4Xh+RN5F3Yul83DS0Ll8OBISGHftMXZStFo5bB7rTKTuF8zwV36JHctt+PX2XYVolG401+NiMafxUbyBcIAAEgAAR2JoFNiMY/U2GJaBTxlwS4aPp5yop3dTtBNP4ZcvJS7a8/6sURKr8uP/KvbLA+z/Mn22wtpXML/oVq2+4tGWDzh+pkY8KoOv8i0chsXULc/qeO1pKY+ltB19D8v4ovHMHiE9V34luR9ap5bKVoxDB1M6+E9mne+Kdsd2XNvmrJcPDvIgCi8e/yJ9QGCAABIAAEMGyHisbRgZb2/iWEhKWX96u6EUSjKo9V9v5d0dgwitBc+z8lGh1cn80jNPxsr1JD+EWi8cxnDpr/esteZQSaUrEb2DS2Sn49QiDOzhSNGIYZXqvoxvnzaadVYnlsgARcsrMIgGjcWf4Ca4EAEAACQODHBDYjGm1dD0VFMY64qT4kGtl5+gdFRkUxGIyoyIhAb3cNddm6Nxhm5XzoREgEg/pERYQF+xxyUHoFr+e43y+KwTjqZmNi5RQgSRYVccJrv6nSKFRJT+NgfcGFcwXzQmLua32wvbGiAGwV0Whqty8gKFRWaNCRvYqOJl2j3X4hkYxwHztdw32eAZTVUZHBPocMNdQxTMt8z8GQcKoijIjw4x6OSqbSYPWsPPyCI+nzkWGBhxxNlSr6ffK6Dvt8IxmMw8pP8hhmaLfPPyiCJkfR8XG30pRF6cb0du076h8aQRcWFRUW6LfPzlCpDH0n9xNRDMZhJ41dNm6BoTKbj8hnMSilxZaLRgNjt6AIBiPo6PK5EQ6ekYxI/wO2WuqYu38EIyLQRUfLYI/78RDKjqioiBPeB3draShnTT0m27qfCJXWIvSEl91uAyXvLEursqtjYOwTHMkI93XQNT3sGxzFYAR5uUtmWqpr6ti5HgkJk7QcRmRY8NH9eww0FZe7eQcxIkMd7ZQnl2DGnkEMRugRPR0M03N0Ox7JYHyZQ4g9fCE+jsGICvR00JHmoGOzzyssPJJulZGB3gdMlbNWFLLKlr7R/qBIRrifm6aO3n7PAEmzjwwN9HBWsQTDdKwcD54IDZc4NzIsyN3eVFPBxZUy1N9Jz9TmWGA4g8EIVIwmNXDxPBFBN7KoiDDvA3u0FZfZ+oUzIoO89HUNHQ75SNpGZFjQAXtTabOxdDgRHnkpuZ2D0Gz7Zap2kUFu+rpr9DRqmtsfkFoYFRkc4GkZdG69cxp19JwDQhmMgiEB4ozVJsUzGJHhLvbSyS86JpaeAfKvSdDBvRZKfqOiKDq6ewVL4DOiQk94O+yWftttD/oyziaUf50lkOBjAf31DaKW4DLf4xQWyQg8pjr9xeUogxEZ4OpAj7LWsnY8FhHF8PdwMHU4GBweGRUR6iybYaltbOHpL7MnPOiQk4XSYOXVexpNnTxOhEqbxwlvd32d28vnNOqa7z92PFx6L4gI8jmgryurpc+DOZHwU06CcjGrtCQ49HcRANH4d/kTagMEgAAQAAKb62k8k/FYTKDae9SqS/RHy+FYbOmrL9NLfIIkxWJEEgR34IW+riRgza6Qq/ktvWMcARUvCydIXMSfG/tWnBxtLZ1OZ3Mltx0nUXPdneLXX5cEOI4jROLc2aHSy8FynScTjfddDW2vvhklxZzG7FgdxZP0CtHISHvXMbjEo0JS0YXyJrvfJMgmE1rv92qbEiF286OMioFpNknQEbTmRxsyGfuOJNa3jlBBdwiEcDF7ojsr9ohcverv8cmsbh5f4BMEISYQIeKNdb1KDf1uZAwZJgyzuvigVUSipymyQ1qGR5jXXrYPLvJwks6QxEWDjXHGtE7V33PkVlnT4NSikIoAJEYkKeIuDnY0xAfK41o6pOZRI07floSXve/nCUkqFhguZk92Pzx7VG6zrLDlotHMOfT9BB/xvp1XDTgQ+bSHEC1VXQ7TVcfyOrnUOkOnM+o6htkCXExFDsM5c6PvCq8qDXzUdg0419A2yBHiJOU7JOTMttZmexuua76k+d4DHyeEiP0p+1bt6AKfpAJZ51PB2TGTyOvFbf2TAhFOknS4NRF/aqAtN9FLPmn93rsxJJhPPntcVkfq78EXowjNVttaYpjt1axvkjhmskhA+PCLJDNDDNM28ou7/6l/VoQTBEmF8OPODdXlJBjLs1bOccW2vVvOmBBx2u6dy64ZmmYTOFUIIeRO9L6/GiV/JaDnGZL+oWuUIxRTjiFJQsQbbq06bSYX6RkjCM11lj+oezvDo3IYrqM9a+x8Iauub4qDEyQFHBfNjnzOvSiPXXf2MwcJRhrPZ5V9G5sXiEgKjog39PHJCTNaa4dd7GdLghPKKi0Yue9gvZpo1HEPSGpqH6IsJAgqiNzSZEPDy+HF9QXCsdiT3jUnK4P+K1q6dSGEUoS7DmZWvaduCARCdJy8kc7GS36SgO0YhlmfTq3oHp7hiwkkplqMiDv37cV9SWyK2NJPKnkihEafYRgWFJ+6IESDjRkq3rhdj5Do690kOhiG8ckrr7k4Gm7KevxxSCAmCP58WhwlOPVM3O9WvptSsme0683lgP2yBrpSNOp6nbn9vneCKyQQgYtxgjs3+PRWnYpoNNt/pfj10AwHx3Gc+D97Z+EXxfPG8d+/MjTSoIBgoCJgK4otiqCigGI3KhYGimKj0h13INLdnQcc17U9f8TvtXtNGIjxhbmXL9nbmHjP3O5+5nnmGQbSlLy3ZP1Kwx1rRf4oI25NWec97YdoVgH0ZUERQKJxQTUnqgwigAggAogAaxdydl3iYBLY6WegTBGN7uuDSwflEMLB6pRQv2UWAHjtPltYkrOEFY12++PScIohVRMZd8JtrCyAo1fYo0IFSdPq8ZcROzhzlU404gr5WEPmIX8b4OgV/foLQTPYZOuJEJ3hwiga2aJGNckgVPXdczJYAaeJxreNhEKQ/SDG1trKbumqR8WdFAOHeK+1Xq060ajGFeKehFMB1pZg78V3wwoKQtHgkFLSnns4wM7OecXt9CaCZiY7svZoA7S5rLlf1EcxcLItf/d69u3w+KOiSQxCaa0xXvO3SE4VjX6b4nrlFIR4Y+rttV5sc+yISSjJjXJxBMB19d3iXoqB8pGay8FrrQBw9gp+XdZD0lA+XBm2Qdt2OtGokkn7Kz8FO9rZOvnEfW7AaUYpqJoWqGiqaAR2K++kdVMQ5j/iNJq25O7h5RNqtbD15C42C040KsUYLWj4FLKODeyx+nhin4SV4rznodorPNdurhXgbC0+Xl7jDIDv9lfVExSkBrNPfAuG/pheNI6NSST5j0452upsmCFJlQSEpHQg7RqnJtxWnU2qlFAQqgefBOsMet8Tjbo8prun+gW+GtVAiIs/Xd/vBIDX1thKAQEpUV7UrKH49OVl/+pEo0SiVo6nx+1ztAV27j6JJd0EDZWCiuMB2nM9ztyr1MjGUu+F+bA6ce2TynEKwnFetD4pVjTKpXL213ErTG+jdD8TX6GhoWq87fIef2sAtkUl9ckoSAw91IUzZUUjpcFwSv41KdrXBYB14YV9SgjhON8Yqu5H3FPdfPd+HcFY0ZUVH7QMAOB18hlfjLGS7Weip87gnvq8QQkhJWn6fGg5AC6+MW/rCMhI2lNXe2nnPW79VC9UjbbcO7VhiQ1w9jxU1CNjIKxI0gdsnck99cdFo2JUMNnFi95hjEOTWM+Vpzkt1AcAF5+oNzU4ZCQd6WuXa28gU0XjykPneqUYTahKX57zcLCxcXC78bFOibNB1/XRU+1Cz3+U4VDRzzuykb1HOYec/Jz+ac0KY6YnS8egqHnj2h/qUfougf7+twkg0fjfbj9UekQAEUAEEIHpBOZRNB5JqFHRmv60q+b2KjbPJau2ZrSLGUr27uQW0/H2gNhsMcGIau4vsbMEQCcaRR3Fe9YaAikHfOiQQ1z8/uQ+rb+XuWgEG698FGK0ouO9v+5de5pojLp2aof+PRwAsP5ir4pUDPOPbGALphONUJN9dauuYDbeNz7UkwxUCxrPbPXRuRAuj2wW47ikO+oAuyjQ2pDb/QpaM5QRYrAVOXjdSKsjGZh9z0R3Tcet2zNFNLrFVwlpbDIjbuf0K9bsjOtX0prRgsMmFj3g6H+3chQS8ty4I/asC6tONI41Z25foQfsub1oUMGoxi+dmBLNcppoBNZbziXLcHqo4m2AbgDBet3Z51KM7sx/oG1NVjRCRlafEGBoGWC9MSZRiFHitrx93M6jrzs1tKb+4V5DLVxWhuR3yxlla6xJCxiOTtnQiUZI17855qE/ZrPuZMOEGpf2PjgUYOJGCIKvpYtxKK2/q014rqJxxcs2GaMeenKIlUraj8/Oq50yStme/ANF1olGSMk/RQXqrVUAOAS9bhBAXPrqwiGuzI47dp3c42dc08TTb1eziIYCvt4wzYpGSIgzz3GdkiuH28qDXwUaWtYYbQj/bu0Ydi9LQTDNmRc412RWNEJKUfFAJ9oBAN5rLnfKaSiqNpgjf0Q07n7TgdOazjfnDd0ZWDnsvZUmwelfEY2+MRlShhope+Xrqu+TwOVCoYDCx9/t0XarlTHnzm8w2OSA1d6zTyQYM/z1hW7fr4lGjbDzzBaTlo1KlTL0aPmbVXoPWABczuaz5Xm/X2u0NxeN9h4XP7UTDFafHGkSaN7jxJt60iga3WJvN2EQVr00qkR9V9L99X3bQauGbgVMC9o15Tz0dQERQKJxATUmqgoigAggAogAR2D+RKNbzgAOJQ3bTScg6iGv236uX06TfWnTBtt98gZwKGs76mBnEI1f38Qa7IYAgBWfOyGjrDgTpn3xnCIa7T3WvSztpxm87HEE96I5TTQCYOfoGnI0+sb9xDdvP2dmN0oJWi2sOLaLLZxONGpaY42v9JaHb73DKGaw9OV6/bwkANw/tslpxcjZMFYT7njegkNVVZSpjAMHbiRrSKY9+57xLVVf/Wl/zUWjx51BDEpbEr0dp84PBABse9aMQ1X9TYN00CVm7/9JDGnB14uuLCydaOQ/3WwsMgBxJUOQkKXEhpovaDldNAKw9FDZoEoz2Ra9m2sie58bn1tJRvkhWlcbVjSSoqydBjXHFcMltHRYhYnaove6AeBXMkwRE7U7PUwmW9qsiv/UR0H845lpDKbt0IlGevSeyfoKm88lSDF6uPLteqMmY6+0X7U1fVAF8c6LXDpzFI1rng6RtLAu0cvViM3G1/99rxxibbHTSjh9h9bSSA7mmhSZPcv7dhHG4G3J5zwMStd9dcix8/H3H7/+mFHIKxdpaKhs1JsaWdGIjZRt9jaqNr/wAjFN9KWZOdw6Hbs+rCQnmzNYV0vAikZioi7ExyhXbJavedsjh2SPYQHQHxCNrmm9BC1uPbTSrOda74ptF2t+QTR6PCzqY3DZq4sHTLvfyt08GaQ63hqXzrLz3XQ0+srDxOfvU7O/NnZiFCNuTuUqCMCvicbRikQjGuB+v6CbweVvLput7+qzs0QKqc732nW2zESj/VKf9B4FlLUcM8pargssfzJmFI12hy6kSAlG3Me7eTLEyW6Gn/DyRw0YPvoqyOBMPr0foT0LjQASjQutRVF9EAFEABFABOZPNF7pUENFR8oSfXQRU7abdn+cIOBokdEkYji6r1wANX132fgcOktjwTPDJEnurHfNEKrrzkZoVcMU0QgAcDt8W4xRmLA9MmQ5mBYIxyfi+aBCOzeKYT/cnMCpolFRe8xQIAD2Xn+pIZmqtJsm+8CrRinUCC+cYLVmyJfRqbOt9N+HeC90y7yaXjx121w0ni9QQaIn/YyT6cu1/pLgslGIjyS7G+WE/siFNhWcbLrsxmo0nWjMMF9F40J+H6TkxefDzNdAmEk0AhCZ2QFJWc65I/YAeKzdXDGqgSOFBrOpbk7jsimvz7tyehSUYvRixEYAzreq9BSm/c25qy/17H/17qn1J03OOXYrSUXCuk/nTfZxm0vXJFQJaDioTXiOovFM1uxFHrw3NcsZvhvmNE49djpDCamh0hue7GCEfUjMC6FSO6eS7YM0w006NReN4rZ4HxPjpn9SM+v7O9NH1ll0iM1PN6dxlYnUBN5+jzrYaKkP9QX6AdHIupWq+gtWe5uofQDA1pgfDYSjy2uKe+q2Tw2TMxWf3TdcpA1js+zc+xqCYvdwP06GpNmZmfMlGlszTIX/lpTaiVnLU6J1VzcTje7eK9nISf0ZepaGv/fM5jS6bHheOsh6rEJIiPo/xx03MUuylyDRaAC3eDaQaFw8bY1qigggAojAYiEwf6LxXLsSytvfLplprH3T7rcTOBSWRk3HGlszCdU9N39BNALgcPRpk4rCe/Nue9i+FUAobDjnyEnMpXuv9ilJlbA7O/nB2fCdG9b62oGoRhn+q6KRPwIhNlpclDft8/pWlN7ncHpdDXvMRePpPCUkuj+fnlk0lgxDcjxFH/vRkAQAcd0YFNZfdmMdSudBNIK1l7tV9HjVQ3dHq4Dj6SKN+ut1ozloFtG4v3hASUi7Yw95AhDTrICUapxXXDiNSt7VoyYFn2VzRtF49CYrGhvTrxlNgdrLvdY+bphgmP5b3Nc5isaoDAVkVBPtJTO1pPnQxcyFnlU0XsnDINGTcmmpHfDecKlVQmomWt8/vXXq6IFNq+3cV66v5OLnmFoap4jGdU8aMUhLe0unw/ycFMe5sc6XaIxuUkBlz+fVXubG3O2nW0S/Ymnc9LFeyFB4V3PF9Cq8iVsOLJccuJoqxenJ7i/P7l46sjdkrTfYGhUnVNO/RzRufF8zzlB4d0vlTOXRmopnEI1Y1ydz6b56nwAAIABJREFULgC4JgwbLY3ajuGy5fjV15m8tiExSZNDFa92ehq9JXwSm3Bs5FkgsjTO/CNakHuRaFyQzYoqhQggAojAoiYwf6LRmzdCUdLWk+wKB1M/a7ad6pbS5FixzuvMeHzn13GKGvu6dontnC2NbGJL/N+1SijNxPvTH4dpo2g8du8dTsGqj+edDJrD73yXkvhF0bjjaQsGFV8ip1v/jBX75pa5aPRKHCYYeVuK20yqcevjBgwSHU+nTnd0O1GggWR3Rqwzy3s+RCOwP10upOQdsR4u8dVSfKJmp7vR9MSKRkqYtcfMPdVh88UBGa4YKg1fxy4ZXzBE0ePVAabuqd+kMOXgjKIx6MwDCUaPNadtMXE0BAC4r9nzZYyAokqt++aDL6MQl704G2poZwDA3SaFPnqqLqupgXA8EwYJZqLuoZerYW2TKYX6zlede+pArvk83iXHMrsgpSy4GukIgP/tGjVUVIZvNqS1bPWuRuFU99QpotFvX46IontStxiumrYxX6JxecEopKXtp1eaWcjWHo8TKKlfcE91ulvYw+DSZxf2zeCyyUZW9bqe109C0bv1hqa12n3miVjzHffUfefuSjA4WpFs2hf3v6+ZHj3V3NLoeCevk8HlLy4dmLk8LF8z0ejk6csfwqC6LdpQQK4NVl7K0kwVjdwBW6eVQTvja8YgJeddNg647M8dYmQ9h/zZ6dDos0gIING4SBoaVRMRQAQQgUVEYP5EI9iT0kFAqKjVxSYxg+i14WXtGANhaWK4cQQegH3vWkhIdKWe5FY1m6N7qjYj/+13WTdURb9AZRSN0QkpBA0rPpzTF8Yt6mEJTsNfFI3rtt4cUEA4XPCNN3p9jjP+NReNALxrV0GoqXtojINiuGzVhuNdEgjxgVvbDPsAcN+d36+k1eP3Tmzn5M68iEawfkuKkKRan70foMne7LOuJhYWVjRCSLS9Ms57s/O8+KYWp2FP7gPtVNUtKd0UxOofz5HKjKIRuIWVClQMJk45vc90NCL0dQsOqZ5PulGIbW/rICT7ci96GLrX7lcTNPyOaATgXQcBsaGnO43VMqH8/U2taISQSLtgVFwuwbFdUg0hG7zILcGy/gU7K7UmzqgZ9idzrqffdE/1WLm+eoxi5z0un60Y8yUawb6sPgipoSITH2AH72vZfeQvRk89n0VAeqTima+bqZbXV8fF+9aXYRpKPrBrc7Afa1fvJ+XDNPyOe6rv0ctDckI92RBl+LmsOsLFbZ665Ia5aATgbDoB6dGqF6uMM011Wev/mIlG4LjsSn4/CWFXZqxxfMglOLVZaBI9VX+p/q93dLkM4i0vtf6u7N6PvVA9xAtYZQwhpT8X/V2wBJBoXLBNiyqGCCACiMCiJTCPotFj1Z6segHNwJGmwpsXTh89GnHp0cf2Bj635IZN4OE73ZMYhclqs19EHgsPjzr/vKAZoxlhG+9Y0HIuSOkviUbguPzCp2qSZucWGdxTA04+EGpoTDaUdv9aRHhEwsey4cEJKT0tEM5Pzmm0dvO9lVmL04xkoO5F3Pnj4eEnY868zCwdGfqqW3JjRfIYTXR+jJnJdsjGSZmyTqPPzmvVwwqG1rQVvbl4Jjw8POLBO35D6RlXRwAclkUmlUhxWi3u/Xz/+onw8JjzD8raxyhK05gV56+zgcyPaHRaEZTdLlVLJLhyNOHYJtM3fVY0kqoJsUbQWnT7fFRERERSXpMcpxUj1af1atZjZURxu4hmNF1lKTdi2VrEnE3Ir+lqzfTifl82sbm9tFr49FSwacqGn97MohEA/6invRKMUk3WpD2MiIgIP33lA69bSRKC+vQ9XBQgNoU1p5ulBMQlNekJEeHHL9//2DchHp6Yamm8xhujGHVL6t2I8KMHtq+ytQY+Rx+1TmoYzeSXT89iw8MjIiJiE95Ud7Zk+WjL7Pa0UkDKhy4fnRqISFtsnaVRPCGSjhe/vXPyWMTp888aBmU0qax5c04bLnPlrsdDapqU93y6fS4i/OyL3AaxXCxXfcfSCOxcjyTkizFKM9n7+WFcZHh4xMno+De5PROt+vmKPyQavfwudcgoKGl9eiEiPOzAetYP3PNyQjsBYckjHXt3n3NfBuQ0xLp4by/FhEdEXMuu6RseGpdpSIOl0XPVoTYpI6k0m+hraDtuY8qcRjbM8L28HjVFirrKX1yPYDtExLVXOV9aKuNXegFg5Rz5oFhFMbKhqoSL0RER17KqeyckCoI0sTRauZxKKFPRUFD38Wx4RMQBrqt5bPrQMAJpYqgh93xMZGTM7eLG/j6B9HuWRraX3M3tZsvT/fXFDW15riZnl7VU3ffTKXNz0Qhsgg7c7pjQ0ISyIffZmZPhJ2NuFTX1j9YNiI2WRrdTl3hVJe+uR3AJXnteO6LRTDReX6OP+eV7o1dD9ebdWWE025tjQ98WIgEkGhdiq6I6IQKIACKwuAnMo2gEwHb5uv33UqvG5Di7xjUNSZWks/iJvW7BPaeAnaGveZ0yDQUZmmYX3B6tTo/fGbBCb9D6NdEIgNOKiNpxNnqIQTQCR5/dV991TKhJBtIMnOyvvX3qZaviV91T2fUtfdaeeZbXJ1KR7KrlNEPiUkFXToJudb81z2spbPLRyZBZHOGmikZg4+C3LyalvEvOwmFoBqqlY7ykIw5caBwbj5V7zj6r6RMRJM3mRZGTA40fbob7expsb/MjGoH10vNJlTgNRc15e9zNlJ12TuOrsMuZtf0qLnQJpRK3lLw6st0kbqil3crAo6/57VwTs7WgMdVQc+mN3Vo7zZbMDplSUHNik77BzX96s4lGAOw3HT6dVtktx1nTIcP2nGH++we713ha61ZEYRPacexOVa+QYhjIUBrxQPaDiMjSkSmWRo/tJwo7xtlzaLw3jzVLWto6BIRd57WMYOza8uyIA6aQNPPf7uGmioJlR8uGldLu4oNTAgDpS66f0/juWHx6j1DJ0JChKclw66e48DX6S2yXuEbf/dQnUrORUih8sqfiRVxU/ffmNLKWNzff3Rdftg7LdH2MoZXC4bK0W6wvMPv5IdFoY+969lGeSMWG4aHk/XdXeU8XjcDKbuX+C3n1/ToIpKa3MvXU5fvtIrVBNK4MyxdRsqLD31g3YrpoBPYeGy8/zR4Ss3VnQ9yQlGy0PeVGqHYNDtflG+6nVkyq2T4PSU1vVdqz5Dci0zmNwMJj/aHU2mGMZk/R9GRpa+4TFPa5skeJs7hJTNqY+3R3SsUPiEZg577h0uOsQa4tdOURdHyMO+Km65JTRCMANi4bIu6VtY9hBJsXjcma8p8d8H9uEgjH6UhsnkCm0VaQxLHR1rKbx7Y52OocnkOelVNsyFYzO7m2Fuj/BUwAicYF3LioaogAIoAILFICvyIaFymyH6h2cq1YNVZ1bNoMzh+49O+e4nLmXjFGwep3+hAt+uJoReOjqdFT9Yd/5O+OC91yfLD0xZofOfkfOefo9SEl0Zp9bbbi6EVj4mwnLJj96/KH4GTDupUmAV4XTN1+X0V8Q0sGpOrJ2hPf0Nq/L3eU8t8jgETj32OPckYEEAFEABH4PQSQaJx/ri5hX8c0g2VJU5YWnP+M5jtF11V7i3vlUN171TBbTJ/Fr4vG1WcSxJgm545hFQ990v/uX5sDl5PlmOLdCeOMtimFXTSicdnnHtVw2SMf11ls51O4oK8AWNgsOf4gU66SFtzejXgsNgJINC62Fkf1RQQQAURg4RNAonH+2/jwrTENWfDIbE7g/Ocy7ym6b76b2qQiib60g9NF0i+LRqeY+4UaVeelOUacmffa/kiCnpcfNeLCL9tmdqdlU1g0ovFat1qZefu4wxyjzP4I7YV2jtv+O43jopaPpw3+9wuthqg+sxNAonF2NugIIoAIIAKIwH+TABKNv6PdLCxMJtv9jgzmNU1P/y21Yxg7xQsyk83vPZy5mZTmWfyyaAQAWPy3sHAAvlPmRSMa2cYz7xHo23cJsJ0HUfsupgV5AhKNC7JZUaUQAUQAEVjUBJBoXNTNz1Xe2Wvlg3eZ+fn5KUl3NqwyX5NOT+fMs4z8rNfHnR31O9BflsAyn5h3WfnpT04iHIgAIoAIGAgg0WhAgTYQAUQAEUAEFggBJBoXSEOiaiACiAAigAj8GwSQaPw32gGVAhFABBABRGD+CCDROH8sUUqIACKACCACiABAohF1AkQAEUAEEIGFRgCJxoXWoqg+iAAigAggAn+VABKNfxU/yhwRQAQQAUTgNxBAovE3QEVJIgKIACKACCxeAkg0Lt62RzVHBBABRGChEkCicaG2LKoXIoAIIAKIwF8hgETjX8GOMkUEEAFEABH4jQSQaPyNcFHSiAAigAggAouPABKNi6/NUY0RAUQAEVjoBJBoXOgtjOqHCCACiAAi8EcJINH4R3GjzBABRAARQAT+AAEkGv8AZJQFIoAIIAKIwOIhgETj4mlrVFNEABFABBYLASQaF0tLo3oiAogAIoAI/BECSDT+EcwoE0QAEUAEEIE/SACJxj8IG2WFCCACiAAisPAJING48NsY1RARQAQQgcVGAInGxdbiqL6IACKACCACv5UAEo2/FS9KHBFABBABROAvEECi8S9AR1kiAogAIoAILFwCSDQu3LZFNUMEEAFEYLESQKJxsbY8qjcigAggAojAbyGARONvwYoSRQQQAUQAEfiLBJBo/IvwUdaIACKACCACC48AEo0Lr01RjRABRAARWOwEkGhc7D0A1R8RQAQQAURgXgkg0TivOFFiiAAigAggAv8AASQa/4FGQEVABBABRAARWDgEkGhcOG2JaoIIIAKIACKgJYBEI+oJiAAigAggAojAPBJAonEeYaKkEAFEABFABP4JAkg0/hPNgAqBCCACiAAisFAIING4UFoS1QMRQAQQAURATwCJRj0J9BcRQAQQAUQAEZgHAkg0zgNElAQigAggAojAP0UAicZ/qjlQYRABRAARQAT+6wSQaPyvtyAqPyKACCACiMBUAkg0TiWCviMCiAAigAggAr9AAInGX4CHLkUEEAFEABH4Jwkg0fhPNgsqFCKACCACiMB/lcD/lvus+Bf+Obu4oX+IACKACCACiAAigAggAogAIoAIIAL/GoH/eXp5/wv/nF3cHJ1cljg4on+IACKACCACiMAvEnB2cdMaG38xHXQ5IoAIIAKIACKACCxxcETuqf9VGzEqNyKACCACiMBsBJB76mxk0H5EABFABBABRGAOBJBonAM0dAkigAggAojAP00AicZ/unlQ4RABRAARQAT+awSQaPyvtRgqLyKACCACiMD3CCDR+D1C6DgigAggAogAIvATBJBo/AlY6FREABFABBCB/wQBJBr/E82ECokIIAKIACLwXyGARON/paVQOREBRAARQAR+lAASjT9KCp2HCCACiAAigAj8AAEkGn8AEjoFEUAEEAFE4D9FAInG/1RzocIiAogAIoAI/OsEkGj811sIlQ8RQAQQAUTgZwkg0fizxND5iAAigAggAojANwgg0fgNOOgQIoAIIAKIwH+SABKN/8lmQ4VGBBABRAAR+FcJINH4r7YMKhcigAggAojAXAkg0ThXcug6RAARQAQQAURgBgJINM4ABe1CBBABRAAR+E8TQKLxP918qPCIACKACCAC/xoBJBr/tRZB5UEEEAFEABH4VQJINP4qQXQ9IoAIIAKIACJgQgCJRhMYaBMRQAQQAURgQRBAonFBNCOqBCKACCACiMC/QgCJxn+lJVA5EAFEABFABOaLABKN80USpYMIIAKIACKACAAAkGhE3QARQAQQAURgoRFAonGhtSiqDyKACCACiMBfJYBE41/FjzJHBBABRAAR+A0EkGj8DVBRkogAIoAIIAKLlwASjYu37VHNEQFEABFYqASQaFyoLYvqhQggAogAIvBXCCDR+Fewo0wRAUQAEUAEfiMBJBp/I1yUNCKACCACiMDiI4BE4+Jrc1RjRAARQAQWOgEkGhd6C6P6IQKIACKACPxRAkg0/lHcKDNEABFABBCBP0AAicY/ABllgQggAogAIrB4CCDRuHjaGtUUEUAEEIHFQgCJxsXS0qieiAAigAggAn+EABKNfwQzygQRQAQQAUTgDxJAovEPwkZZIQKIACKACCx8Akg0Lvw2RjVEBBABRGCxEUCicbG1OKovIoAIIAKIwG8lgETjb8WLEkcEEAFEABH4CwSQaPwL0FGWiAAigAggAguXwFxFo4fnxn1hkSfNPyfCtnp7uszp4+ziZmdnP2fOFlY23ms37t534LD+c+jA/o2+y6xnSdEr5HSrUKOeqDu1kTvD3ft2qwgqm8/qz88dgrigKnC1h37Hv/LX0cOLN4hBVcv5P1AiZ/drzZNQ1Xrh9+flfr9OA/G2N9tmy8rTf4u+bU3+hh5ct8INAHDgbYeGUtU+3Trb5d/av8Rj7Ybte/cfDOUSDj14YNe2QC+nb10xL8esV28/yOYYunXl7OlZWnlv3h16+PChvZvdZz/rzxxZe+aVnGYENS82eP2ZDFEuiMDcCfyKaHRftf6Q9nagv9mEHtwfvHmtm+3cy/MvXxkU/GGcgAPZ7L30d3/4AggnGzxcHWfJyGv7vkN66sa/+7YHcYWLrJmkNKOVW2a9fJZU2d3Wrj5rt+/ceyiUa9rQ0IN7d23wW7pAm/QbHL59yPXULZ6aYhrTrzp/+8QFcTT8TSVJa+qfxXrYLIj6oEogAr+ZwFxFo1/g45ZJBpp/cMGbrUFz0owuvyYanU/c/1DXI1BqSEOBKFxZdjtqtmfg8j1n2iY1amFD9GYOMBKNM/azf0k0Hk/mGxrXsMGQ6qSrewAAhz90Y5S6/vnPikYLr3V7HqWV9YyINASl7c8MRcgnB2sLX0cGr5lt0GFGWj+70ym+RsPWhB7JiXSY5WIb+82pXSoGQnyMt2+Wc/7Ybv9zrxU0M1aXvHH5H8sTZYQIzJHAr4jG/bfe6u8HupsNQ+KSsZ6cx9GrXOdYnn/5sn9JNEbWTnL3RcNdntuYrMvYzRKMrhdTmKA62G02zTkL5iVue84+5Td2i2Qamubu9AxDauQjndXv70T5/fUBuVlK/Td2u0XdLlVTTHPmjdlen/5GqX5XnsffVVM01vji7FIkGn8XY5TugiIwV9G4NuhppxSOVwQtNf14uLu6/nnRePhFGUUzlFpU9Snh+OHdmwNCTt568aW+u+RWLGcodNwR8bJxcJL32KTlLCytbWxsbKwtLbidC0s0OofdLW/vq3m2waTCc9r810QjQzS+vL7S1uRjY2PFNaGFFdue+ub80craOQbm9SgZBtKYuCztedT+5Y47wu8kZgxI1RAyGkFdRKD3j6b18+fpRCMNSVXHmTUzX+94vkxOQ8j8E6IRWFrZ2NjaWFtpfzQAgD1R9+r6J94nxMxcerQXEfh7BH5dNPYXPt/A3Wy2HLvwjtdG0QyjFr4I32X19yr1m3L+10SjRlQXc8DkPm9ra2Ntzd12LLQP7p/lEHi9SEywWlHUU/nkZsx653VhZ69nVfaTNMNQqvq3J52RwVHP1JJ9ObK1trLU7XBwD0vI6BOMvI3Un7GA/urfHPSVXUBVQ1VBBH4HgTmKxhXrN30dxeEIf24ScfpVc7c0eocW9ckojfDV6a2zuLe6n73TgkH4JXF2gAtLNHo+rMcg3vpq0+wV/rEj/55obEi6Mm8yzml1Qu0ERWNDVSlHfM2BuG5JyOtWUbS47YP/bxtu5UQjIRarGQpPiz88Q++19f3YR6rVahwj/gVLozkj9tvVD3zIUOlPz0w/hPYgAn+XwK+Lxr78p/7GOjiGfugmITVYHGW/4IwS/5xonKw9yXqQzM9nRWjSkBri8v6UuEMu5kkGHLvbKtIw+ERmrNbpyPww+gYA8Fh1v3KUhsoPpxAORAARWOwE5igaVwZsqhTgeHfqdPk3tz1zF42bI2vHVRpJa2zwbG2JRONsZL63f0GLxm1X09WQkXbnRQROeZFgsVgv3ZzUIKQZddWj7d/DNMfjWtHYVVwzRjNj1alBXkumJLQ+6rWcpjt7O0dEaiQap8BBXxGBbxOYb9EIgM9nIYTCujNLFpxVaiGLxmXbc3plDC7LehRlbzODQWnX6fdjakhOlh2Y4Tnw7S62OI4i0bg42hnVEhH4EQJzFI1rgrZ0SKCq7c3cJOL0q+YuGleE84cUDCZNPr97hvHfezk4jpPcbDWawtmPpO40AGDj8a9DEnEvL0wL6WctjftPN4zLJX38ox6BD7KbxGou4bGu56fWToHuvOk8r02g1uA4ppEONT4MWzHlhGV7Ln3pEas0XAojXY+OmdtLrey3xTxvHZhkD6sVE21FFzZ9KxDOhqPnB0RqnKIhhAxFsFcJ27YE6DP12hCfWjksUWkwtjzigdY3V3ZOKY/Z15lEo6NX0N1P5SKpgk0cxyXDHW+uHnCzM73Oeu3W2KLGfgWHBVdK6jPjN5jb6+yW+Cdm1wllKhzDFOKRkkcHvhsIh53TyBCzWRpd71TIcGFRsDauEQh/VoBjyurESxt3neV3i1i8auVoY+aRjYYJSUGveUOQwrLvRdobvC1NKwGs90e9FmNQ1ZutTTS+UoQrht/sCFwS/qC2T6zCcEyj7q/PCl9jGhbGcuWGY3l1fdq6K+WSttz7fmbJGr9oRWP7h71PmnCoESTtDDIeY7cCXhQO0IQq5fOV1klsmmhccTW9RSRT4TiOKaW16bdXLzW2we0KEa4ceR+y0S8qqWlYpsHYc+rS7/gtM5xzuRPHRd0pO0wsKTZ29hUjOD7EMy+GybfDCSJc0/0xwR8AW/uPw+wvi+1pNEXiOK5Rjd7YqzvZxW/7x69dOgjiwbwnEcb233qoYFCiljdd9gl6nN/CnqNWDtZncZcu2X82uX+S61pKaWvB462mgaiW7kjIa9ZVWSUfqs/Yus6Yqkkp0SYiwBKYf9F4u4KAZF/uKVNL4/47GX1CJYbhGpWi7+u7LXbGedB7+QM4PvLJcYnhHOlI2729m6wA8PY7VNAwrOEuG2kujPE3/DB1bed/4nZ5h1DJ3UJVssmWkldbdbm6Pq0Q4Sph9qkDZtLVd2NyowDDxx7qf4Nea48XN4+yWWAa2Ujzy5h13+gWM4lGh62ht6p7x7RlwBWiNv7bneZ+F7bOXuee5AgmZeyTQKMSjbTcPjI1qNfq8ISGfiH7xNGoRluLI5wdvhcIh53TqJnd0lg4gMu68zxctENsxypGZDJBVeRuz6iX5UIJ90wSjWXeOWK4Naw6dU+ioeRD/DD/mW/0FssDXjZPMpBJvaQl9LQfxwV1VzycvR5k1gvlbBsoRQP5iacc7Uwck5d4RNxLHxGzd2Cu7t33js0G+Ekfjgvqry4NOvypins0qBXd/GfB3GN594OMwUkFhuFq6Rjv5Wlne5MsAHAJOPC5dlDbBArxeO69o8bZl+HX+iTK8frMvZ5bnpd0SriuIh5tfxCx2lCOHWfuTsg1Q+Wvdc9F7YGYVAmu7im8vGyWYG9HrjwSK/Gvb08CAE6nNuI4TnGzQLnbPI73ZhnS99x59WvXONe4aslA7Z19xvu1X0DuOI735KxaFny1nDtHLRsvfR7htgTYuHreSK8UyTU4ppEL2t9dMLPxLt18OKNGV2VcKW7NebTFkN/UDbug3Ze/tA/ruqhS/PXDtXVG5R9a2DGpmGw7H+p8/E5q76SSbSm1uKPk1c51JjV/WIirpfybpwxvBlMzQd8RAUTAhMAcReO6DWG9cijrSomMjIw8ceJ4xJGQLes9PaaLwR/dM3fRCDxOPCyREZCUD6Xdi9rmv9z0iQ4i7/B45Z197Lww8SCP/eS9YAOKbI6sGVcph8rDtSx+VjQejG2VYBp5fzOvc7SvmVdcVFHfKdOQhGokIdxf9yy3d997PUNIMirRUOWXkmL+l94xGUXKeA/2aW9Pltb2B669G1MSGulIfXkxr6Syd0xBqidyr+sjnth5HXpeJcUp+UR/dQmPx69oGxSppT1DQmK26Kmrth/8nFv8dUBGQ1o+UsfWN/vtmhVLgaW134GL1UNymlD2t9SVFRWVltUMTMgpBmvNvObjZnzRMekbAEwTjSuCz37plZK4YrCturiYV/K1tn9cSRGKhg8xPnr3SheP690ySjYxUF9RwisqaxkQ0QzZlXp/5RJtLlae62IqBGoKUwy0VrHoattESkV3fQ/xzeip3xaNbvdqNVBWukvnkXv8JQ8yVE9b+8DQSFd9Ba+otLlngoT0WH1K8HIu6Iz/4ZIBGYWJ4o/NGlBh+f7oDglByNvPcC8g9+sUkBCXlLRLlKK2+oqiYl5ZQ68cpylR63V9OFGf4Ae9UlI1OVTD4xUVlde19Qu7C2Zzs9KLxhCHwykTBD3GO2vy5mjhHRLbNqmRd6eeORjVLyNNRKOF+9qI7BYhQ2kG2upKinnVTX0KghirM3rS3q1VQEJSxu+QKcaaKst4JRVdY0qaVrd9jtU/Gq/1QSgfTA1eb2xwG7sltUIIx8qNu6ZshT2RQ2Yg7cl6AGxsr6XxeN2jIgiZscEOHo9XUpQezs2i9Qu+2jCmJpXCtkoej/e1ZXCSZuiGlJsrHblRnW2HeWMqmhpt+9Lb317DK+bXdY1qSEYz/OXFnawJ0URHLY9XVtU9JoMM3ZQat4J7OXRZdyS/S8zgso76r0XFJfy65qGu2n3fCjs7pejo66IjMI+i0XmZ78ZDl6oFBCHrf3yIVX0AAAfvTY/LBkkKH+tp4BcVVlS3i1UEOdl8cfsyLet95QIIpbVpXWOj3VVlPF5Nu0hFUbKeB/vvNo3JBN31/BJedfuQmqDJiYow/dCTndPKa6+/qilGIRyoKecVFvMq2wblGEXK2m+HrGBvERFZcpoRVsU72hvtZv674waVUNn8lFMi7ptiU4ZVtEo8Ul3KLymt6BVIaUad//iYq8ktxrRDTBWN9j7p++V8AAAgAElEQVTRSeVijFRP9NeWl/CKi2va+uQYrRmti91hdOXfWdBHaOQDbfUlJbyymhaxhsalvTcP+et0j6PXkVdVKpKSTwxUl/KLeF9bB4Sa8eoe8bejp35HNPIFUDNQvNRVKxoja4QaXDba3F4tHOmuLOGVVjZPKAlaPfnh2h5O4tkci/+koWAf79lUOWusv+/NF+0khJUfYrl9SSMQSnpLq4YmRYNtFXz2Odc3IadorDfnnK8OoG9c8SCGKwdaa3nFRV+q6vrG5OnxxhTNt56NQCgbaOoan+htruKVfG0bEFEMMcBLfJDfLFdMNFaV83jVA5NqmpbXPNxhuHZ9aFyjQEmqJ1urSnjFX9r6RSSpqn131VUrLI/dHFGRivHe1oqekZ5GXnFxVVOPEqc1ku64/X7aZ23wuYdSjB6rem8my85kKiE1xL82m2g8ev2pkoQ1H6IAAHtvJPPKq/olGgZSo+3cG9THW2wJlyw7dCd/kqSVwv6vpcUlZRX9EwqalOTE7dLGXF0TWCSBcKI+r3tc2FT9lcer7p9Q0rSi/vnxl9WjovG+8tLSLxXNQgXOkMJ3p3Sh1bz2XG2fxDDxYN1XHq/4S11rb39j7iEDEfMNnzX3B+SkdKy37ivHZ0RG01jTy6tLbbUd8DC/V06oRC0tX8Rjg9w5pc294wRNT7am712pf+4/5kFaXX47Wv9kNM8DfUMEEAFzAnMUjes3JY9i+uhmDEMT6rHehne3jvgu+1GVOOW8XxCNANiviIjP6BWrGYYU9TVkJF3b6GYajXIm99T5EI0Mre4qfh0a5AWAxRL3VRfT6yBD9RfeXcmOdVn67bvSMYlphM13D29wsLOytLJZF3a7aVylmWiL3sA+8FzXn2+YxMix2ti9m9xZxeUYuO9U5YiaFFeHcyolKPatmGCkvWWxoRvYkTGbJb5BIXeLBwgIZxON2sadPqfR3mXtp2YRRUp4CYcClrtZAWBp7Ryw/2Jpt4TGJW/PhegVn3nvmCIaXfbkDCop9XjmzTOBPtyjwd41cPeJrNZJmpBmX9INcLq43crOenNsd4A72wi23oFH60SQnGjcFsDNRvTcnFw1xFBY+Ye4TT4OAFjYu/juinrRzwbM+9aSG1z0VFrc01KYYfx8fndPu0bHDKIRQlIhyLgR5ee+BABbz7U7cvo1kBRlRXOjrjuPV02oCUXXOeOwrHnd2ZGFsNIRBakZucaF7WNFI00R0r4XZ0N8uQaz8vC/kpglwRhp1yetWn3crIaa8Tuxhzg6tm4+Afv2bF86LWHtDoNotLZf+aZRzKi6rxgM1dZ2x5NrNZSi5MKK9eai0dLG/lZGN0Er6p8eDfBhm9LJK+jO50YVqa59qnvhYEUjQ+PizoSD2zydbAFwWLsrvF5IQE3/Q10WvyoatVWYYU7jisNfJwlc0v3wcijbvNZ23oGHc/o0pLQ7LpjLmxONkCE781+HrHQGwMJt9eH0yhHIQI1EkHc7hv352Dj4HXwiwCEmqNm3aRkAVvuO50spKCjbt8KD/e1YuHlt3rbDw9X0Zz4LZbR7sRL4ddGoEHTzuJtNWW2zQKImJX1v444sc+ZeyG2WnnrOx2mmi5ccstbD0gLYO/nGvMgnKKY9//4qTlpwopGhJ5oubfNztAXAZcXpWzwpAdVy9eDXjwf93C0tgNOag6nshDE6555ufsXGS2kTGlrTXxC5M8CZs1s6+ASeS85TUcxYw+dgHwDA2pwBNSNrO+mkFU5sAx9+34GT4uzdngAAr11XBmSkUlAXf3yzs5Wlpc2SdftuNItx5Wht+DadoJ3SKaaIxm1xRTKSFrZkntgd4MI9G5x9/c/cyp5QU8q+dIO//qbPRc9uHAv0Ya1fNq7eu9804Qze8jqaGx2y3hj1ZFxNyUeqbx4NcLayBNZ2PoHBCeVD7HvDt5bcYEUjhYnqK4z3+YyMjJundJGxp4tGhqEmmjLDd61zBMDG0WvHzSIJzSg6Pi91sQNg2cUn1TgNK1MMy2lNqTr75D3zIB+jYEPWHe4YKxpJEh+reBwS5MuNQdv7H4zN7xQztDzlDDfMtuv1JEULG5KDV7MPexsHN//tBzbPasplRSNDqVrfnFzn5QiAvU9ASMGgCuIaDS7MuL5jKRuExynk5MNBBU1PlHJPGwDcDhQMqShJz/3og8vZxz97VWqnnFJ03wjizI2caGQoZUvW0z3+SwGwdFi25npBB2TIrvRLHlyr/bpoZIHM4J5q5X8kfkBOKIZrbh4IsLOxtLKxDzie0C3BFIPV4f5s3lrRSBOS/JvBns52ADhtPXq+TYRDtUI83nQn3N/W2tLG3vfyi2IVyQx/SdJGgrtYJmTIybyTe9zYrm3j5rMueOdWtk/P9PFZdT/r8/Mjweu4k+18N51oEkNCUOnnozUzs6KRYWhJL//ckc3aBL3Wbb+a248zWMeb47okkWiciS3ahwjMRmCOotHV1X3pMu1n+eZ9ZzKrWSXDqIdfbQmcogZ/8OsviUb2LdLKPXD/p5ph1i2ToUlJ192D+pFb8LtEI6Ecvx7mZnB5sbC6NwShtOuZvy8AVq6nE5swCOvfBBtHgy0sr2W1QELx7NpBAMD2nH4GKr5e22BIAQCXmLhaDcPw2THLNUn8QQZXJF3ZZ2Fyhqv3zhbxT4tGj+2ZkwwUVl43RETjOoSF9810COnhsodrtLfZKd3EXDQuvZ3BQGqg+OFaF5MCAauQU48m1VDWnqaP1mplpQ1pqkvNIqFeAfGx11vZx+3qQ2d6pYRquOyAaVEsLLfmDf6AaNSPU+j/YuJ61ocGgJlEIy2ofh64zFhUj7vcUpBvOWUVcqJKqMYlDaeMx6dUHoDA0OJBmZlohHRf+l5dxF3udIs1B/N7pRQmvMUNh77phlA9cmdHwLS0ZthhEI0A2ByIzpAQTH+utjbAzsG/QsCQfbkrLcEU0WjvcLtHzZA9GdbGjgVW7TvVJSawgTztiDIrGiHW+mqv8RRru+icPhKq+DoXrN8lGo88ymYg3fHpwWpjr7VYcq5cATXNSZznHCcaGUrxMMIQhdXi6JMc9k2y7eP2lfr2sLBM64VQMXg4JBAAq4MnSxUMFOTqjfAz4ES7EAEzAr8uGvW3GdYFW9Keu8tpiaX+x2/nvz2nXwah4M4m44/MwvJ4vYxQjnw5wv0OOdFItia56vs08N20t1lIQKh4btL5Yx5+ImhY/um6tvTv25QQH3nq5my4in2+WQbnD2igcuTsUTbpXS+aMUg2PTUspLfj6zhDDpW4O9oBsPzqiwaSgeWvo/SFZa8/ntMHCcmnqAMzTOIAwFw07s4fVNGKkYvhZqHULJYFPq8W0JD5oF8j2MLaPF611SsBhMKGS9waiituvW4jIcx7sNlYDHaw8nK76vui0YS8brPs1Qktn+miEaonH0ftNrp1WlqVjkAoavR0dwbA81JiHcHAL6+/EfrTNupuqoaCDdlG0Qgl7Se9TB6KFnYRcalqEvYUPGHHPsPTpZAZr3q41MmYrVnnM/vCikZKULlimaG9wOa3rTiEysZE403QN+BFlxTCQa3B0iuxnIFEx6cL7ibG4fVbs8UM053CjhwATjRqRF1n9ho9Mi2s2LxELbe0Zf9dotHG++q7dgLC0sRtpr0/njcINaI7Z0IMopHo/GB8zruvvF81SkNY//m0oUtYhl0dUBDSjkKtOfFOjRQSws+7uQqaMZzhi4UF+6ZhcsDiRbMSYsNPV2vtlqxohIQi42rEEpPf0rLVB1tFkBkr11lfkWg0IYg2EYHvEpijaJwuBU8mVSpIKGt4NP3Qj+z5VdGor2hg2I2cik4lQRHy/ofH/W3ZW8rvEo0qQfVxvY8Dl/+pBiXEBdVBfkuBy7KbNeMMlJXEhpp+XpR2Qhr78iDWDYCULhKqxx5fOWtywvFnH5o1NGxPPw48D/N6ZLi89xJ7BzZ+HD2+NadRe950S6PX+06akZVFT5k1x8a/7CahrDs5cEbfHXPReOlzDaQ0mfGnjOPb2vyCT1RPqDXCGu1j2crabdPBk7ff5NTWto1MSjU4w06IwMfesqLR+kDMSwkOh4ouG6vEbf3inMYZRCNDNiRdZR/w+o+zW+YkhKNfdrE7tkd8HVORGsFNVr/P/HHYE9kgwghFx1luViJraSQn03eaTQ8BIOB50QBNqhMvsmxXXk4bVRCkfIyfcjti1za/ZTNbcLX5mYhG4LrhSMWggpC2ng5grWdBN2uVlKwkjh3TnyIaHU6VySA5XH7XpNuEht5+2ibFCEWD9sWKc08Vftqjeyxy2dkePVOrgrD1vTbz3yQal99La4UMVZb+0LR4R8MrpRCO8EPZvLXuqXjPeeMbFABX30LIdH1+aLryyO1qOdSMP93L1mLl1hNVA3KGIdr4H88eO7jRz/tbZLVVRP8vbgK/Lhp10VNXhCSkfRWpKXV32o7luskHftv2dUloOFkXZdrRQ+83S0hC0n1yH+vAwIlGcc5qE3u4//ZPA3KIt5quUbPvxiuMYjqyEji/z9BGCcT6cp2mBds5lNsPSVlO9CFbAHw3xbaKSXIgXft27HWaJ6fVVc+P2VsD4B6Y+HWUhurCZ2YlC+X3QUZVdT5i6t2b6yRmojHoQpeSkA/yDpv4rnNnuV1I/ELQkJd0VNuzPFZvOnnxTha/sq1XIJVrCJKd4TzZyIlGn8CXLUKGGb67amov/MU5jdNFIyZqjtlndj9426aC2EDCUlcAXM8+4uM0bM17YPasNiuU99VnTQQDa1LYcAcAcO6pbc+XupjN2nCIjBdqqInqVM4iHPy+cRwnCWFrScK5A9sCVzmaqRez1AFghZy09cEyV6PCWb+lRArpjrcmK94uXZNQJaDh5Avuic8KMFKZ/ybhiEkzXrhWIiahtJpzEOVEo7Sj6KBZi55tUUFsqHT5UtY6+btEo6ffoyYhAyV5p00KFxr6umoIUsqCa+xrkdbSKCjSegJpgXhffdxBQCrzigmfbadbxBrl6Nfj3K3fN+bNgAxjNMKylCfHd2/3m82DlkvAxn7p1sMx9z7k19d3jIrkGMG9aWDDz01EI6EYvBJunGkJALDyWpXUKYN4901tKZBoNGkNtIkIfJfAvInG1QEHGoXknBfhmC/RCICF87K10al1FEMPf32y0t3qN4rGka8RZoBNRKOb560W0fThUnYPjVUnnFsKQA7npzPjOd0558DGYxUChUbUGG0+6DZH0Zg7CAlh2papbwEARNYroKwnOXDao52tmblovJ1VzxCqF5yZ1KzeQWFlw3K9aHQ+/qh4TI5jkpGmiqIPL+5fOBdd0K/Ri8YlYeeK5BRs+zBVvv5p0eiyK6NRyJCqd1e3mL0aGCtmuePY/XEVo+7L0U7E5+Y0TnyYFq7medEAQ2qSrrACz9LKec+pm/k1PRqawRWTndWZcUdNQs0YE2e3TEUjsHa/nFrD0HjB/QgX5z18Ea0aqTgSyD7tporGOzUzLH3NdSNS1aJ9Gf17onHd45zeGbs0hHCswigaKbxDO39Ih4QVjXTbh9umYxesaCQmUw9wrx3Wjv7bI5/l1o7LCRpXjXbWv7kW5mUSzsAcLfqGCMxnIBxbl1WJOe00Q1d/iPbiLD/+O/b3K2bu6aSs/9QB9k7LiUZhuqPJS71WNCpqTB8cWtE4UPiMuzuzhjhJ6wtH84AobHO+bYKkLD+GFY1W7uuTykdoRv5kjxMAq180ijFx54W9vqxBZfmG5MYJbvX66cVT158/blIaYycxE427rw6pSXFH9n7TITfu3FP332EU5L3kXPv8T+a1juEENtbTzMt6kxB3LeZkqcQgGv02ve2TQXVTtDET3da8i0aNqC5KH/5Hm4eJaAQhlxOVBDPZpnXdnVYadqLI2sf8URpSGde0vrusaBQ1X19qNOBxV524Na4mJ+sztKO4zmv23H6W2z+pYShSNNRe9PrWpinnG7PirH/NN5aZTJvjRCNW/8gEsU40KrTLISZWjk5vP+0eZcMTNm1ONEpa8vYbMwIA/BHRuHzNk07JzMWjVGU3Ip31onGowHT6h1Y0KlNMl+7gRKNqou4U95S1tnPYGnkzs7pXRTC4StxVU3z7xBaz8QBjZV1OJ5UJlQQmHqovL3ifFH82Npo/hEFz0YjLuy8eMV7DbnmuetghgXS/1qwMkGg0x4O+IQLfJjBvonHFenYRDjg6x5Ub5080svW1sLrSoYHYaMX6Ve5/RzS6eN6qm4Bw9IXdDB/t8ugfeyGUdu/YuGb6GbY2ViDoWMWoApd3nTePb+rk4V0xSv7snEavj90QKsqP6R1IjZ3i9gCE4vbkAGN0A+OxKaLxclo9pDSpd6PMovaxS7yfqhNp1ONf2VC0njf7aKjs529fv9TG2lrrpvqQc0/lLI32YWfz5CTszz9nkg276fGilfzunMbZo6f+tKUROF372AghPcRP8Dd5lhtLZesYk9tDQtjxKUTr2zKLaAz+VDFBE/KHUXoPGAt2uWAnl11veR1qksEV3Rd1k3GMaWu3zEQjAJab4gWQmWx+d/ZdGsNQbe/ita6aU0Xj+XIFJDpTDkzvNnZ2uggAf080rniQ0c7Q5Mf4g9OLZ6uNd89ZGn9aNLLILCytrG09151OKlWwzvCCZM4IORUr+o4IcATmzdLIpmZhtf/2OE7hk53Hd7MDbH7b9ndLIezLmt7P2Z8h5343J9F4rFkGNX150y2NF4pHICH5fGo/519qEXbnPU7BuvcXHUKuDmvIEf6bzVo71rLA51UCBiqSj89QNJtZDGJmonHLpV4VIRsqCQ2c0pO8ryTVEwwseMLG9jqX389Q8uJ7Ec72NtZWlpasO3ryqEE0rt70tlcG4ejdqTPStrPRtr43p/Eb0VOnWxq/LRottp7vlOO0UnDv2JYZfUlXBF7qlDJQ3X5ad3hm0bj1/GM5To98eWOgYmlpZWNrtzv2VeeEhmHo+s8XZzFmzkU0xpeNQkwSf+7wDK1oy41z/kXR6OX3pHkSwuFHMxTOTtvHtJbGnxWN3E+NfYC6eQc/L27DKEY92XZm90yjg8sfDtBQ3pW91tfFxlo3ISaJc081tTROF40uPmtYbSlv0vkrI9E45VeOviIC3yQwb6JxV2SaEGdkdQk/4ow6/Zy5i0YP742Bpg5AbHVd/B4M4lA1UOC/wunviEYbl+jntRoaK3+wzsQ5yawp9qV0k6Q4L3K29SWD3laM0oTyQ/xB1ulI/1l/MEtM/vScRve9SQIcytqS15pM0wDWTsGJPHYdi89XvWccfza3NK4681HJ0GO1H4I9jWdbWNmG3fwoxZnh4uvs68HxZAWk+j/f89NPnbH13PFFYHBPBevDzg3KKfVQeaiXCRgXv4x+8vtzGudTNAKw4WyzjISaibTLJ5ZPGcxc4hVyIWMcY9Sjxcf0cWxY0Qix7jcnjXNMLCx9Dl3pFGP4ZHWEyZCxrq3sg5K/DDGkJvm6uYexvimniEYAnK9VyBmlcEAso7CJ+CM6E/MU0WjvcLZdzohbHvpOKbM+WQDAD4jGiEYVxIQNJzYby718W6aQ/NHoqdrcpgfCCbmXyRpkPt9aahLa0aRoOvfUOYlGYzJe9xsISHR+nN232Hgu2lqkBOZVNLLhUqLS+nAG68665mpt6eC3LbdLCtXdF9lgTjN/5iQaQUKVhCYnM/cGmI7NOXqHVY5h+GTryRD9+kmbzvXICFFb4ceP2TiF59wxDC4uvZhYSdCw+Nl2xxlF0kyFNRONYMOnDgmjFiZe3mc6Z3HJij2prSKGEN7n7mfJDWJaMXI2zDAQ6bAu/is7XVHrnursdz+/l2Jg0ZMdTsbnl82qM4WyHwiEM4+iEQCHE++bNGxAotRDm4y3Ow6D9dI1Wz+0iGhKVfPYMF+aFY20qPmgv9F0aG2/PD6lmaDp0mfmhj0uFb9Td0UaStyYY0jCnPFcROOaeD5OaxqeX3KdaW1JNv0fEI0rTtwaV5GStsL9hgDpNq6R2e3wh6OnshlND4Rj53XpfTPOaAri1sz2FJq7aDSyW/miQgBx2b3znIuKcT+3FZOqhERn0uVl+k5u5727ahxOsTQyuPz9rSOmS6VsOvJxAmOkVZyLLwDI0jiFK/qKCHybwBxF45qbL5/GnQkJ9HRxcfFZs+n83ZeN42pKOZQQGTBdEP7InrmLxkOxtZ0tBW+TLkcd2ey3xNYr8GDk5ZzmYZommt5f8WRvaa5RN6vUNOwtiNSutsASmY/oqapvuKcCy9X7r3WLMUzY9eraiVVOrNCwc10acuziw9tntRO3XAPPNokIzUTjs+uRa7iYkNY2XnsiLjyI08b1sl53Mw+DjHyo5uHpYNYY5uR14OzD6jEFgdPftjQuPVYig/R4+U1DLCAbR5/H/CGCUncUPQ7buNIWAGtb77BrrzrG1bis69o+b+NkC9P+Yi4agf3axMZJipA3Zb6M2MKl7eJ79PKLBoGSlLRdDeCUZNDDMcgoR6riDq4DwNLTb29iYauG1YPaOY3A2mNnVv0EQ2nq8p7sYtdUYs+5n9EkV2voP2ppZBtk89HkATlNa0T12S+vnDq4zsnBamVQaOSF5xmVQg2NiXsenzS8EgFWNDKQlg9/fnDGfxmreFfvOZdbJyBovOnlVu1YaMytRyf3BziwrW25bNXhwpYxGpc+jJw5YuE00QgctiYLON9TeesrX/074xTRaGljfzO/DydkjWmPjmzyY7OysPTctP96wh02RDr3+QHR6HK9SgIpTUf64x0+ANg5bzxyuXRETtM/JxpPvSiEDN2Y/9jHWT9I4BtRIyQx6UDm80tsyuzHPWj/sZtxUau1L2xzsTRargs6fzF6r24CkIf/6ZR+nFaUXmDfXj3Xhjx5+/njo9Mm04O0+aL/FzWB+RaNALDjXzijHnkWZg9sPWJelJI07K9NO3dgA2datPH03RIT9/iMPn7M3ETjuvCEfjlFiDqeXz7qzYadBB5bIpJ5TTjNtGTfNKwUAID7nYoxSqkQTopoce0RE4Oe1/7r/UpSOd7+Ju7UKhtOsbl67Tx6Mf5ylOmcYdPOYS4awYrw16MaRjHa+PJqmA8nnby3hr7IalYQeH/OWe1j5XaZAJLKsk93/Gytre1d98Y87RxXUgbRCOx2XnorJ2iloPX5uT221pbW9i57o+81CSQ4/kctjWw1l218XD5C0KS0v+7FvUsHd6y1tnLbsHPfpfhXFZ1CksZ6S59sZOPbaj+saIQMMVHzOXZ/EGs8dFt95mnGsJwghQ2RWgf64NO3r0cHebOTFK3tnPfFp0lxerj05SxTEeYiGoHHvuIRjJD2pyZe2earHZhw2bwn8tatc85suKMfEo1gWVjFsJLCxLnPonztrW0cXA9ff9cvUv+caHTwvZXVS0Lyy5OdepOf9bqwu8NKQjnSmnTpqA8XYXaJu9feyCt3r0ZpCc1NNB65HB9zcKM9q5Ot3FfvzmkXUqrxG5FTJ7Ow1d/8cgIy8n7+xZ0rAbD2CTiUXNaDUVNFI4S0YrDu2aVQ9hm8xD045l6dQEUpR54d0k/7MbU02jrvOZ/wOfVtbLBxvEDXKdAfRAAR4AjMUTRu4Y3QNEUQOIZhOE5QNEPjipxbp3xcXX9EIk4/Z+6icf+5dgnOhkylSILAMJwguZVo5d2Fh9fpIpMFHrsmUJAMTanVmEZUx852/+2ikX2V35VQwAaVpSkWk0KBsYuhU7LObN2YsIX9wbOfJBhbdAJnj2MYTpKUsvW1rnNaWscWDFFsAiSmwVQqdi11Qc3T0iHs26LRaemOGiEFGYq9StC6JYAdnHbZElE2KIcMQ+oy41ZmJyZTY1caQplN/VFMEY0AOC3dVtwro7kSq1SYWoOTFEMphpMj1utkp4XV4zolG2CcJDC5AidIXNxUzAYI0olGACysd8YPElyQWwLXnkPL2x89qcf+tGhkg3pvCbs3IMO4ViIJtgUIkqIYBpKKnrjjQZzPlY6K1j21unmYrT2mxjRqtvKQGCqJt9EPdmb0cxXHMLmcbW2aYQaLr3nMrMjN5zRymVjaOd2tGoNQXhCtT3HanEZ29CAolNcn0zWlUqktNU2PvtW33w+IRrDE+X436+VJEzjbtwiSlra9bZ/8OdFouS+BXaiRpnClUq0cucHOLLJwCLrXxy75wfZqtUqp1rBMZYPpu7R+XXMRjVahp6oVFIljXIIYe8MRtWUGr17CBlY98UVJQ5ocvWGwteg5oL+LmcD8i0YAgmOL2DVwJ3h72QnMQe9b2Dsqe6/DMKVS9ygseKZb/XduotHCwiP6fjFBsVHAcY1KrmJ/PzQDxc3vt5tGTAbAas8n7bz57k8b9c7xXINbWK26XiKjzR89JDVe8Xm2n8gU0QgsrLbFs6uDcGVQs88egqRpYrQi2YNdwof9WO15LSB1WSjZe6G6O7VUYBSNwMLS42pBn/bWyvJhzyEG82LK2JMaPLgQq9qkzP//6XUav+2eqk3cftmap8VdJAMZmta/KJA0t2Z9V9GjjW6m92jOPbW7uU+hpkhCpcI0GLu6PaXoe7pTH4z7bI6Cvb/hmEqhUGMkRUNi6N4ua7NWMNZqTqIRWKzacLNbSmlvpGwxuBupepC/fCnnBvsDlkYALIOfVRheQhRqnMSVXwvqVT9laQS2h66+lRPsewhbjO5MtmaWVnuTvhIQ0jR7W9a/3tDjtSnaEABzE41JTQrtrwlTKLgHKBwofuQ34wuKhXVyk4p90+DeZ9g3jcm6shY2eqqZe6pS3tfTgZG6Nyj2yUGqvjyNdrfVt5WJaHRe7lfUz769dBfqJjwa2xBtIQKIAEdgjqJxZdjlD+n5ZV++lJeXl5fx89PeXDjsP10K/vieuYtGALy2HIp/npJbUMzj8fk8XmH250eXws3NDs57zzzIK+Lz+fyi1CfsTW31zqdpeXkfE3SxvZzcIpIz+XkvDe4ltz/yC1OfrPCcxfVo47xsN3IAAAhvSURBVL7k7MK8T48MK1ZxMHc9z+MXpj5d6WW8atWBi6/T8kq4gpUU5H56cWe/2eoW9huOXEzJyCvmsWXjFeR/eHY7xMQrxsrO4fDVxKz8Ej6fX1KY/exG+HInt/sfC/n5yTN4yRj6tKVtwKHLKTnFbH0zkldz62ixB92CLj5OyStk9/NKSlJfPwwL5FZ8Mlw4ZWOJ0+EXmfz85AMm++291p1/+CaXg8kvKcp89/jIxlVG/yMAbOx9zz58U1DM4/N4OR+fR2xYevJ5Lr8o7cIa/dgeAPbrjz59n8HWWn+O04lnBfyi5POzDYWD4LMP+Lyi52dCTR1sDeVyPJFYwM95sF437X5H7H0+r/j5mcOmJy9xvJnB539+ODUakMuKHdcTP+Tk6/pPUW7Wy/jYdXqvVEMW+jmNu/deeJSRzzEsyHp69egyg5ENgEOXnqZlF2j7YVFOWsK5/d/ga38ssYBf9PqSaXmsN+++m5v6xHTE2mdjyIfs4sLU+2bDrZ6bbyV9LmBLwefxeDmf3109YeyMxxNz+UXpVwJNgxBYb9ubmM/nJ1/UV8jCcvWu02/T87lfReHHhLOrbWwTM/j8tAT9GdP+bo3O5fNSrkWbToD1O3kvnaNRkvc+VLcIpIXX2gOP32WyKfP5/OLi7I/PIndwq3exsdi33E/NLyl8bRa64vAFPo+XfCnC1CYb8TSXX5RxdeMaACxWB8a++pyjS68w/+PT65u4xcsAAN4BB95mFea/uqT325tWbLRjURL4FdG4IfxCUQnv/e0pYciA0wr/R5/Yn8zlMG13cz8R9zwrr4i9f5eUFGSnPb12bIV+jvSGR6l8fvp1e84upG0Cn7VXUnL5uYnG3yoAQWHnCot5H+JPm/6sfPdffpuRzz44+PyinNRHFw/amitGLj3/x+l8fknq+SUzOAku33n6TVoeey/i84sLCz4n3d+zwfTnZdYnVqy7lFbE/xBnOinPzn/36Xfa+wOfX5Sb+ejKUR+9pUl7sffO068z2NtdcVH+s2th9jbnP/P5GUmHHIzFcQ+//CQjr4g9pyDnOXuO5YNUPj8zydnReJJZUcDOxIyCgsxE3RiT+TEAwP1UfkHKXWcHrXbVnvyMXZfH5HPhVT6/IOWUi2l1WJ+jnceuv0nPL2Efp+wTMPPDy9hDpvdabRL6OY1Bux+8y+aalp/14cnhwBXGkbx1+x+/SisqZhPilRSnv350ROtoY1IGk83Tn/n8zJdhLiYTMnz97mXzC5+fMnlAOXudepLK4+ddMCp76xWbjyR9yCjiCswvKkp/l3h812rdGOWOsE/5xVkvbxudYdgs973M4xd+fOCuXV6TK8TW6Pv/b++OWpvIwjAA96901e1U28Tc7N4IQv0Be6GoLEiLeOHibr0RRFEXRS+qsouLImIVlGpTbZP5iUvaRpO2aNJxJmfOeSA3SWfmfN/zTZu+TDN9t/652807G2srN34/sfh3O++sPlpqfv2UyUCx09O/Lf3Z3sqfDt63fe7U1fsv29tltF98vfnpmaVbu2dpt7v1af31v/fOn949+3899WAtz1cfDFwBn24tXnuxmbdvDn5cY+HCf2ufNt79c277FuVn/1p5+6FXau8XufX3T25f/vLXUkMlbj853ly4+eTVZqebdztrrx4vLsxff9bOP79Z/mXnXbf3Lzd6n2lcPr38cLf4zY+rd/84O3QZ8dqjvLOxcuV871zJTl6683xz68Oti/3v4f2reoVA2gKHDI2jp8ERtywSGtOeoO4rEuiHxqHsVtHaliFAYEyBIqFxzKVsHpNAPzQOZYuYGkykl35o3HP31ES61yaBcgSExnJcHTU6AaExupFqKGYBoTHm6ZbYm9BYIm6FhxYaK8S2VDICQmMyo9ZoMQGhsZifvQlUKiA0Vsodz2JCYxyzFBrjmKMuwhIQGsOah2qCFRAagx2NwgjsFxAa95t4ZQQBoXEEpBpsIjTWYEhKrJ2A0Fi7kSl4MgLHZrLZ2eznI4P32ZtMJVYlQOC7AkLjd4lscJDAsd4P+pmjP/Xvr3nQNl4LX+DITJbNZtlR79jhz0qF9REQGuszK5USIECAwGgCQuNoTrYiQIAAAQIjCQiNIzHZiAABAgRqJCA01mhYSiVAgACB8AWExvBnpEICBAgQGE9AaBzPy9YECBAgQOCbAkLjN3l8kQABAgRqKCA01nBoSiZAgACBcAWExnBnozICBAgQOJyA0Hg4N3sRIECAAIEDBYTGA1m8SIAAAQI1FhAaazw8pRMgQIBAeAJCY3gzUREBAgQIFBMQGov52ZsAAQIECAwJCI1DHJ4QIECAQAQCQmMEQ9QCAQIECIQjIDSGMwuVECBAgMCPERAaf4yjoxAgQIAAgW0BodGJQIAAAQKxCQiNsU1UPwQIECAwUQGhcaL8FidAgACBEgSExhJQHZIAAQIE0hUQGtOdvc4JECAQq4DQGOtk9UWAAAECExEQGifCblECBAgQKFFAaCwR16EJECBAID0BoTG9meuYAAECsQsIjbFPWH8ECBAgUKmA0Fgpt8UIECBAoAIBobECZEsQIECAQDoCQmM6s9YpAQIEUhEQGlOZtD4JECBAoBIBobESZosQIECAQIUCQmOF2JYiQIAAgfgFhMb4Z6xDAgQIpCYgNKY2cf0SIECAQKkCQmOpvA5OgAABAhMQEBongG5JAgQIEIhXQGiMd7Y6I0CAQKoCQmOqk9c3AQIECJQiMNVotsJ5zDdOehAgQIAAgYICO+9rBQ9idwIECBAgQGBHYOr4ibkQHo1ma26+GUIlaiBAgACBugs0mq2di411b0T9BAgQIEAgBIGpUq5fjn/QRrOVZbPj72cPAgQIECCwV8Cfp+4V8ZwAAQIECBQQ+B8Lv1wEsGljsAAAAABJRU5ErkJggg==;" parent="WIyWlLk6GJQsqaUBKTNV-1" vertex="1">
          <mxGeometry x="720" y="70" width="1014.83" height="350" as="geometry" />
        </mxCell>
        <mxCell id="a-LNourcdsWGeh-w3yn2-37" value="" style="rounded=0;html=1;jettySize=auto;orthogonalLoop=1;fontSize=11;endArrow=block;endFill=0;endSize=8;strokeWidth=1;shadow=0;labelBackgroundColor=none;edgeStyle=orthogonalEdgeStyle;" parent="WIyWlLk6GJQsqaUBKTNV-1" source="a-LNourcdsWGeh-w3yn2-38" target="a-LNourcdsWGeh-w3yn2-41" edge="1">
          <mxGeometry relative="1" as="geometry" />
        </mxCell>
        <mxCell id="a-LNourcdsWGeh-w3yn2-38" value="user login" style="rounded=1;whiteSpace=wrap;html=1;fontSize=12;glass=0;strokeWidth=1;shadow=0;" parent="WIyWlLk6GJQsqaUBKTNV-1" vertex="1">
          <mxGeometry x="880" y="585" width="120" height="40" as="geometry" />
        </mxCell>
        <mxCell id="a-LNourcdsWGeh-w3yn2-39" value="Yes" style="rounded=0;html=1;jettySize=auto;orthogonalLoop=1;fontSize=11;endArrow=block;endFill=0;endSize=8;strokeWidth=1;shadow=0;labelBackgroundColor=none;edgeStyle=orthogonalEdgeStyle;" parent="WIyWlLk6GJQsqaUBKTNV-1" source="a-LNourcdsWGeh-w3yn2-41" target="a-LNourcdsWGeh-w3yn2-45" edge="1">
          <mxGeometry y="20" relative="1" as="geometry">
            <mxPoint as="offset" />
            <mxPoint x="940" y="795" as="targetPoint" />
          </mxGeometry>
        </mxCell>
        <mxCell id="a-LNourcdsWGeh-w3yn2-40" value="No" style="edgeStyle=orthogonalEdgeStyle;rounded=0;html=1;jettySize=auto;orthogonalLoop=1;fontSize=11;endArrow=block;endFill=0;endSize=8;strokeWidth=1;shadow=0;labelBackgroundColor=none;" parent="WIyWlLk6GJQsqaUBKTNV-1" source="a-LNourcdsWGeh-w3yn2-41" target="a-LNourcdsWGeh-w3yn2-42" edge="1">
          <mxGeometry y="10" relative="1" as="geometry">
            <mxPoint as="offset" />
          </mxGeometry>
        </mxCell>
        <mxCell id="a-LNourcdsWGeh-w3yn2-41" value="auth" style="rhombus;whiteSpace=wrap;html=1;shadow=0;fontFamily=Helvetica;fontSize=12;align=center;strokeWidth=1;spacing=6;spacingTop=-4;" parent="WIyWlLk6GJQsqaUBKTNV-1" vertex="1">
          <mxGeometry x="890" y="675" width="100" height="80" as="geometry" />
        </mxCell>
        <mxCell id="a-LNourcdsWGeh-w3yn2-42" value="login page" style="rounded=1;whiteSpace=wrap;html=1;fontSize=12;glass=0;strokeWidth=1;shadow=0;" parent="WIyWlLk6GJQsqaUBKTNV-1" vertex="1">
          <mxGeometry x="1040" y="695" width="120" height="40" as="geometry" />
        </mxCell>
        <mxCell id="a-LNourcdsWGeh-w3yn2-43" value="call to server" style="edgeStyle=orthogonalEdgeStyle;rounded=0;html=1;jettySize=auto;orthogonalLoop=1;fontSize=11;endArrow=block;endFill=0;endSize=8;strokeWidth=1;shadow=0;labelBackgroundColor=none;exitX=1;exitY=0.5;exitDx=0;exitDy=0;" parent="WIyWlLk6GJQsqaUBKTNV-1" source="a-LNourcdsWGeh-w3yn2-45" target="a-LNourcdsWGeh-w3yn2-44" edge="1">
          <mxGeometry y="10" relative="1" as="geometry">
            <mxPoint as="offset" />
            <mxPoint x="990" y="835" as="sourcePoint" />
          </mxGeometry>
        </mxCell>
        <mxCell id="a-LNourcdsWGeh-w3yn2-44" value="gell all disable menu item of current user" style="rounded=1;whiteSpace=wrap;html=1;fontSize=12;glass=0;strokeWidth=1;shadow=0;" parent="WIyWlLk6GJQsqaUBKTNV-1" vertex="1">
          <mxGeometry x="1300" y="625" width="120" height="40" as="geometry" />
        </mxCell>
        <mxCell id="a-LNourcdsWGeh-w3yn2-45" value="load disabled menu item" style="rounded=1;whiteSpace=wrap;html=1;" parent="WIyWlLk6GJQsqaUBKTNV-1" vertex="1">
          <mxGeometry x="880" y="835" width="120" height="30" as="geometry" />
        </mxCell>
        <mxCell id="a-LNourcdsWGeh-w3yn2-46" value="return&lt;span style=&quot;background-color: initial;&quot;&gt;&amp;nbsp;disable menu items&lt;/span&gt;" style="rounded=1;whiteSpace=wrap;html=1;" parent="WIyWlLk6GJQsqaUBKTNV-1" vertex="1">
          <mxGeometry x="1340" y="925" width="120" height="60" as="geometry" />
        </mxCell>
        <mxCell id="a-LNourcdsWGeh-w3yn2-47" value="" style="endArrow=classic;html=1;rounded=0;exitX=0.825;exitY=0.975;exitDx=0;exitDy=0;entryX=0.5;entryY=0;entryDx=0;entryDy=0;exitPerimeter=0;" parent="WIyWlLk6GJQsqaUBKTNV-1" source="a-LNourcdsWGeh-w3yn2-44" target="a-LNourcdsWGeh-w3yn2-46" edge="1">
          <mxGeometry width="50" height="50" relative="1" as="geometry">
            <mxPoint x="1440" y="925" as="sourcePoint" />
            <mxPoint x="1270" y="835" as="targetPoint" />
          </mxGeometry>
        </mxCell>
        <mxCell id="a-LNourcdsWGeh-w3yn2-48" value="remove menu item in disiable list" style="rounded=1;whiteSpace=wrap;html=1;" parent="WIyWlLk6GJQsqaUBKTNV-1" vertex="1">
          <mxGeometry x="970" y="925" width="130" height="60" as="geometry" />
        </mxCell>
        <mxCell id="a-LNourcdsWGeh-w3yn2-49" value="" style="endArrow=classic;html=1;rounded=0;exitX=0;exitY=0.5;exitDx=0;exitDy=0;entryX=1;entryY=0.5;entryDx=0;entryDy=0;" parent="WIyWlLk6GJQsqaUBKTNV-1" source="a-LNourcdsWGeh-w3yn2-46" target="a-LNourcdsWGeh-w3yn2-48" edge="1">
          <mxGeometry width="50" height="50" relative="1" as="geometry">
            <mxPoint x="1220" y="885" as="sourcePoint" />
            <mxPoint x="1270" y="835" as="targetPoint" />
          </mxGeometry>
        </mxCell>
      </root>
    </mxGraphModel>
  </diagram>
</mxfile>
